solid USB-OK
facet normal -2.5089184475992377e-13 -0.7071069497738808 0.7071066125991741
outer loop
vertex 17.37381651440766 0.6429596913271278 2.487499868869786
vertex 6.673816514407814 0.1429596913309233 1.9874996304512054
vertex 16.8738162759889 0.14295969132730504 1.9874996304512054
endloop
endfacet
facet normal -2.5089184475992377e-13 -0.7071069497738808 0.7071066125991741
outer loop
vertex 6.673816514407814 0.1429596913309233 1.9874996304512054
vertex 17.37381651440766 0.6429596913271278 2.487499868869786
vertex 6.173816514407574 0.6429596913311041 2.487499868869786
endloop
endfacet
facet normal -2.6737458093953325e-16 -2.138363209514895e-15 -1.0
outer loop
vertex 6.923815942206279 8.792959691330832 3.712500131130248
vertex 9.623816132943825 17.23295969132989 3.7125001311302293
vertex 9.62381613294083 8.792959691329877 3.7125001311302475
endloop
endfacet
facet normal -2.6737458093953325e-16 -2.138363209514895e-15 -1.0
outer loop
vertex 9.623816132943825 17.23295969132989 3.7125001311302293
vertex 6.923815942206279 8.792959691330832 3.712500131130248
vertex 6.923815942209273 17.232959691330844 3.71250013113023
endloop
endfacet
facet normal 2.508933670237599e-13 0.7071067811865476 -0.7071067811865476
outer loop
vertex 18.348816562099813 23.59295969132679 2.3499999642372114
vertex 19.273816395206143 22.792959691326462 1.5499999642372113
vertex 18.34881656209953 22.792959691326793 1.5499999642372113
endloop
endfacet
facet normal 2.508933670237599e-13 0.7071067811865476 -0.7071067811865476
outer loop
vertex 19.273816395206143 22.792959691326462 1.5499999642372113
vertex 18.348816562099813 23.59295969132679 2.3499999642372114
vertex 19.273816395206428 23.592959691326463 2.3499999642372114
endloop
endfacet
facet normal 1.2375626020888554e-15 -4.391080051866226e-28 1.0
outer loop
vertex 16.67381660978345 23.592959691327383 3.1500000357627878
vertex 17.548816490573557 22.792959691327074 3.150000035762787
vertex 17.54881649057384 23.592959691327074 3.150000035762787
endloop
endfacet
facet normal 1.2375626020888554e-15 -4.391080051866226e-28 1.0
outer loop
vertex 17.548816490573557 22.792959691327074 3.150000035762787
vertex 16.67381660978345 23.592959691327383 3.1500000357627878
vertex 16.67381660978317 22.792959691327383 3.1500000357627878
endloop
endfacet
facet normal -1.0 3.548168023544519e-13 0.0
outer loop
vertex 17.548816490573557 22.792959691327074 3.150000035762787
vertex 17.54881649057384 23.592959691327074 4.05
vertex 17.54881649057384 23.592959691327074 3.150000035762787
endloop
endfacet
facet normal -1.0 3.548168023544519e-13 0.0
outer loop
vertex 17.54881649057384 23.592959691327074 4.05
vertex 17.548816490573557 22.792959691327074 3.150000035762787
vertex 17.548816490573557 22.792959691327074 4.05
endloop
endfacet
facet normal 0.0 0.0 1.0
outer loop
vertex 17.54881649057384 23.592959691327074 4.05
vertex 18.34881656209953 22.792959691326793 4.05
vertex 18.348816562099813 23.59295969132679 4.05
endloop
endfacet
facet normal 0.0 0.0 1.0
outer loop
vertex 18.34881656209953 22.792959691326793 4.05
vertex 17.54881649057384 23.592959691327074 4.05
vertex 17.548816490573557 22.792959691327074 4.05
endloop
endfacet
facet normal 1.0 -3.548168023544519e-13 0.0
outer loop
vertex 18.34881656209953 22.792959691326793 4.05
vertex 18.348816562099813 23.59295969132679 3.150000035762787
vertex 18.348816562099813 23.59295969132679 4.05
endloop
endfacet
facet normal 1.0 -3.548168023544519e-13 0.0
outer loop
vertex 18.348816562099813 23.59295969132679 3.150000035762787
vertex 18.34881656209953 22.792959691326793 4.05
vertex 18.34881656209953 22.792959691326793 3.150000035762787
endloop
endfacet
facet normal 0.0 0.0 1.0
outer loop
vertex 18.348816562099813 23.59295969132679 3.150000035762787
vertex 19.273816395206143 22.792959691326462 3.150000035762787
vertex 19.273816395206428 23.592959691326463 3.150000035762787
endloop
endfacet
facet normal 0.0 0.0 1.0
outer loop
vertex 19.273816395206143 22.792959691326462 3.150000035762787
vertex 18.348816562099813 23.59295969132679 3.150000035762787
vertex 18.34881656209953 22.792959691326793 3.150000035762787
endloop
endfacet
facet normal 2.5004661421258036e-13 0.7071067811865475 -0.7071067811865476
outer loop
vertex 16.67381660978317 22.792959691327383 1.5499999642372124
vertex 17.54881649057384 23.592959691327074 2.3499999642372114
vertex 17.548816490573557 22.792959691327074 1.5499999642372113
endloop
endfacet
facet normal 2.5004661421258036e-13 0.7071067811865475 -0.7071067811865476
outer loop
vertex 17.54881649057384 23.592959691327074 2.3499999642372114
vertex 16.67381660978317 22.792959691327383 1.5499999642372124
vertex 16.67381660978345 23.592959691327383 2.3499999642372127
endloop
endfacet
facet normal 2.4963729579356514e-13 0.7071067811865476 -0.7071067811865476
outer loop
vertex 17.548816490573557 22.792959691327074 0.6499999999999996
vertex 18.348816562099813 23.59295969132679 1.4499999999999982
vertex 18.34881656209953 22.792959691326793 0.6499999999999981
endloop
endfacet
facet normal 2.4963729579356514e-13 0.7071067811865476 -0.7071067811865476
outer loop
vertex 18.348816562099813 23.59295969132679 1.4499999999999982
vertex 17.548816490573557 22.792959691327074 0.6499999999999996
vertex 17.54881649057384 23.592959691327074 1.4499999999999995
endloop
endfacet
facet normal 1.5867891810179195e-13 0.44721365236609123 -0.894427162566847
outer loop
vertex 7.673816132938524 1.7929595959630782 2.3374998450279314
vertex 8.87381689587763 2.092959595962655 2.4874998688697842
vertex 8.873816895877525 1.7929595959626536 2.3374998450279314
endloop
endfacet
facet normal 1.5867891810179195e-13 0.44721365236609123 -0.894427162566847
outer loop
vertex 8.87381689587763 2.092959595962655 2.4874998688697842
vertex 7.673816132938524 1.7929595959630782 2.3374998450279314
vertex 7.673816132938629 2.0929595959630793 2.4874998688697842
endloop
endfacet
facet normal 1.5867891810179195e-13 0.44721365236609123 -0.894427162566847
outer loop
vertex 14.673816609775432 1.7929595959605948 2.3374998450279314
vertex 15.873816419040725 2.0929595959601714 2.4874998688697842
vertex 15.873816419040617 1.7929595959601703 2.3374998450279314
endloop
endfacet
facet normal 1.5867891810179195e-13 0.44721365236609123 -0.894427162566847
outer loop
vertex 15.873816419040725 2.0929595959601714 2.4874998688697842
vertex 14.673816609775432 1.7929595959605948 2.3374998450279314
vertex 14.673816609775539 2.092959595960596 2.4874998688697842
endloop
endfacet
facet normal 4.789546081291836e-18 6.532670888376491e-17 1.0
outer loop
vertex 6.873815942206278 8.792959691330855 2.4874998688697842
vertex 7.673816132938629 2.0929595959630793 2.4874998688697842
vertex 7.6738161329403685 6.9929596913305145 2.4874998688697842
endloop
endfacet
facet normal 4.789546081291836e-18 6.532670888376491e-17 1.0
outer loop
vertex 16.673816609778203 8.792959691327377 2.487499868869784
vertex 17.873816514407796 1.1429596913269506 2.487499868869783
vertex 17.873816514410507 8.792959691326958 2.487499868869783
endloop
endfacet
facet normal 4.789546081291836e-18 6.532670888376491e-17 1.0
outer loop
vertex 17.873816514407796 1.1429596913269506 2.487499868869783
vertex 16.673816609778203 8.792959691327377 2.487499868869784
vertex 17.37381651440766 0.6429596913271278 2.487499868869786
endloop
endfacet
facet normal 4.789546081291836e-18 6.532670888376491e-17 1.0
outer loop
vertex 17.37381651440766 0.6429596913271278 2.487499868869786
vertex 16.673816609778203 8.792959691327377 2.487499868869784
vertex 15.873816419040725 2.0929595959601714 2.4874998688697842
endloop
endfacet
facet normal 4.789546081291836e-18 6.532670888376491e-17 1.0
outer loop
vertex 17.37381651440766 0.6429596913271278 2.487499868869786
vertex 15.873816419040725 2.0929595959601714 2.4874998688697842
vertex 6.173816514407574 0.6429596913311041 2.487499868869786
endloop
endfacet
facet normal 4.789546081291836e-18 6.532670888376491e-17 1.0
outer loop
vertex 15.873816419040725 2.0929595959601714 2.4874998688697842
vertex 16.673816609778203 8.792959691327377 2.487499868869784
vertex 15.873816575106856 6.99295969132763 2.4874998688697842
endloop
endfacet
facet normal 4.789546081291836e-18 6.532670888376491e-17 1.0
outer loop
vertex 6.173816514407574 0.6429596913311041 2.487499868869786
vertex 15.873816419040725 2.0929595959601714 2.4874998688697842
vertex 14.673816609775539 2.092959595960596 2.4874998688697842
endloop
endfacet
facet normal 4.789546081291836e-18 6.532670888376491e-17 1.0
outer loop
vertex 6.173816514407574 0.6429596913311041 2.487499868869786
vertex 14.673816609775539 2.092959595960596 2.4874998688697842
vertex 8.87381689587763 2.092959595962655 2.4874998688697842
endloop
endfacet
facet normal 4.789546081291836e-18 6.532670888376491e-17 1.0
outer loop
vertex 8.87381689587763 2.092959595962655 2.4874998688697842
vertex 14.673816609775539 2.092959595960596 2.4874998688697842
vertex 14.673815812167854 6.992959691328054 2.4874998688697842
endloop
endfacet
facet normal 4.789546081291836e-18 6.532670888376491e-17 1.0
outer loop
vertex 8.87381689587763 2.092959595962655 2.4874998688697842
vertex 14.673815812167854 6.992959691328054 2.4874998688697842
vertex 13.873816419043282 8.792959691328372 2.4874998688697842
endloop
endfacet
facet normal 4.789546081291836e-18 6.532670888376491e-17 1.0
outer loop
vertex 8.87381689587763 2.092959595962655 2.4874998688697842
vertex 13.873816419043282 8.792959691328372 2.4874998688697842
vertex 9.673816132940829 8.792959691329862 2.4874998688697842
endloop
endfacet
facet normal 4.789546081291836e-18 6.532670888376491e-17 1.0
outer loop
vertex 8.87381689587763 2.092959595962655 2.4874998688697842
vertex 9.673816132940829 8.792959691329862 2.4874998688697842
vertex 8.87381689587937 6.99295969133009 2.4874998688697842
endloop
endfacet
facet normal 4.789546081291836e-18 6.532670888376491e-17 1.0
outer loop
vertex 6.173816514407574 0.6429596913311041 2.487499868869786
vertex 8.87381689587763 2.092959595962655 2.4874998688697842
vertex 7.673816132938629 2.0929595959630793 2.4874998688697842
endloop
endfacet
facet normal 4.789546081291836e-18 6.532670888376491e-17 1.0
outer loop
vertex 6.173816514407574 0.6429596913311041 2.487499868869786
vertex 7.673816132938629 2.0929595959630793 2.4874998688697842
vertex 6.873815942206278 8.792959691330855 2.4874998688697842
endloop
endfacet
facet normal 4.789546081291836e-18 6.532670888376491e-17 1.0
outer loop
vertex 6.173816514407574 0.6429596913311041 2.487499868869786
vertex 6.873815942206278 8.792959691330855 2.4874998688697842
vertex 5.673816514410508 8.792959691331287 2.487499868869783
endloop
endfacet
facet normal 4.789546081291836e-18 6.532670888376491e-17 1.0
outer loop
vertex 6.173816514407574 0.6429596913311041 2.487499868869786
vertex 5.673816514410508 8.792959691331287 2.487499868869783
vertex 5.673816514407794 1.1429596913312792 2.487499868869783
endloop
endfacet
facet normal 1.0 -3.556514453347019e-13 1.7493399635688522e-14
outer loop
vertex 6.923815942206325 8.792959691330827 1.0374998688698143
vertex 6.923815942209319 17.232959691330844 1.0374998688697963
vertex 6.923815942206279 8.792959691330836 2.487499868869785
endloop
endfacet
facet normal 1.0 -3.556514453347019e-13 1.7493399635688522e-14
outer loop
vertex 6.923815942206279 8.792959691330832 3.712500131130248
vertex 6.923815942209319 17.232959691330844 1.0374998688697963
vertex 6.923815942209273 17.232959691330844 3.71250013113023
endloop
endfacet
facet normal 1.0 -3.556514453347019e-13 1.7493399635688522e-14
outer loop
vertex 6.923815942209319 17.232959691330844 1.0374998688697963
vertex 6.923815942206279 8.792959691330832 3.712500131130248
vertex 6.923815942206279 8.792959691330836 2.487499868869785
endloop
endfacet
facet normal -3.5533242786406617e-13 -1.0 5.775291356258191e-15
outer loop
vertex 6.923815942206325 8.792959691330827 0.9874998688698146
vertex 6.873815942206278 8.792959691330855 2.4874998688697842
vertex 6.873815942206324 8.792959691330848 0.9874998688698134
endloop
endfacet
facet normal -3.5533242786406617e-13 -1.0 5.775291356258191e-15
outer loop
vertex 6.873815942206278 8.792959691330855 2.4874998688697842
vertex 6.923815942206325 8.792959691330827 0.9874998688698146
vertex 6.923815942206325 8.792959691330827 1.0374998688698143
endloop
endfacet
facet normal -3.5533242786406617e-13 -1.0 5.775291356258191e-15
outer loop
vertex 6.873815942206278 8.792959691330855 2.4874998688697842
vertex 6.923815942206325 8.792959691330827 1.0374998688698143
vertex 6.923815942206279 8.792959691330836 2.487499868869785
endloop
endfacet
facet normal -1.0 3.548168023544519e-13 0.0
outer loop
vertex 9.62381613294083 8.792959691329871 1.0374998688698136
vertex 9.623816132943825 17.23295969132989 3.7125001311302293
vertex 9.623816132943825 17.23295969132989 1.0374998688697952
endloop
endfacet
facet normal -1.0 3.548168023544519e-13 0.0
outer loop
vertex 9.623816132943825 17.23295969132989 3.7125001311302293
vertex 9.62381613294083 8.792959691329871 1.0374998688698136
vertex 9.62381613294083 8.79295969132988 2.4874998688697842
endloop
endfacet
facet normal -1.0 3.548168023544519e-13 0.0
outer loop
vertex 9.62381613294083 8.792959691329877 3.7125001311302475
vertex 9.623816132943825 17.23295969132989 3.7125001311302293
vertex 9.62381613294083 8.79295969132988 2.4874998688697842
endloop
endfacet
facet normal -3.5313576670741685e-13 -1.0 5.8275902430548525e-15
outer loop
vertex 9.673816132940829 8.792959691329862 2.4874998688697842
vertex 9.62381613294083 8.792959691329871 0.9874998688698134
vertex 9.673816132940829 8.792959691329854 0.9874998688698134
endloop
endfacet
facet normal -3.5313576670741685e-13 -1.0 5.8275902430548525e-15
outer loop
vertex 9.62381613294083 8.792959691329871 0.9874998688698134
vertex 9.673816132940829 8.792959691329862 2.4874998688697842
vertex 9.62381613294083 8.792959691329871 1.0374998688698136
endloop
endfacet
facet normal -3.5313576670741685e-13 -1.0 5.8275902430548525e-15
outer loop
vertex 9.62381613294083 8.792959691329871 1.0374998688698136
vertex 9.673816132940829 8.792959691329862 2.4874998688697842
vertex 9.62381613294083 8.79295969132988 2.4874998688697842
endloop
endfacet
facet normal -1.0 3.548168023544519e-13 0.0
outer loop
vertex 16.62381660978317 22.792959691327404 0.5250000000000006
vertex 16.623816609782992 22.29295969132741 3.775000000000002
vertex 16.62381660978317 22.79295969132741 4.275000000000001
endloop
endfacet
facet normal -1.0 3.548168023544519e-13 0.0
outer loop
vertex 16.623816609782992 22.29295969132741 3.775000000000002
vertex 16.62381660978317 22.792959691327404 0.5250000000000006
vertex 16.623816609782992 22.292959691327404 0.9750000000000019
endloop
endfacet
facet normal -1.0 3.548168023544519e-13 0.0
outer loop
vertex 16.623816609782992 22.29295969132741 3.775000000000002
vertex 16.623816609782992 22.292959691327404 0.9750000000000019
vertex 16.623816609781215 17.292959691327408 3.7750000000000137
endloop
endfacet
facet normal -1.0 3.548168023544519e-13 0.0
outer loop
vertex 16.623816609781215 17.292959691327408 3.7750000000000137
vertex 16.623816609782992 22.292959691327404 0.9750000000000019
vertex 16.623816609781215 17.292959691327408 0.9750000000000123
endloop
endfacet
facet normal -1.0 3.548168023544519e-13 0.0
outer loop
vertex 16.623816609781215 17.292959691327408 3.7750000000000137
vertex 16.623816609781215 17.292959691327408 0.9750000000000123
vertex 16.623816609781194 17.232959691327405 1.0374998688697956
endloop
endfacet
facet normal -1.0 3.548168023544519e-13 0.0
outer loop
vertex 16.623816609781215 17.292959691327408 3.7750000000000137
vertex 16.623816609781194 17.232959691327405 1.0374998688697956
vertex 16.623816609781194 17.232959691327405 3.71250013113023
endloop
endfacet
facet normal -3.548168023544519e-13 -1.0 0.0
outer loop
vertex 16.673816609778203 8.792959691327377 2.487499868869784
vertex 16.623816609778203 8.792959691327397 0.9874998688698134
vertex 16.673816609778203 8.792959691327377 0.9874998688698134
endloop
endfacet
facet normal -3.548168023544519e-13 -1.0 0.0
outer loop
vertex 16.623816609778203 8.792959691327397 0.9874998688698134
vertex 16.673816609778203 8.792959691327377 2.487499868869784
vertex 16.623816609778203 8.792959691327397 1.0374998688698134
endloop
endfacet
facet normal -3.548168023544519e-13 -1.0 0.0
outer loop
vertex 16.623816609778203 8.792959691327397 1.0374998688698134
vertex 16.673816609778203 8.792959691327377 2.487499868869784
vertex 16.623816609778203 8.792959691327397 2.487499868869784
endloop
endfacet
facet normal -3.548168023544519e-13 -1.0 5.7752913562582085e-15
outer loop
vertex 13.923816419043282 8.792959691328344 1.0374998688698136
vertex 13.873816419043282 8.792959691328365 0.9874998688698138
vertex 13.923816419043282 8.792959691328344 0.9874998688698138
endloop
endfacet
facet normal -3.548168023544519e-13 -1.0 5.7752913562582085e-15
outer loop
vertex 13.873816419043282 8.792959691328365 0.9874998688698138
vertex 13.923816419043282 8.792959691328344 1.0374998688698136
vertex 13.873816419043282 8.792959691328372 2.4874998688697842
endloop
endfacet
facet normal -3.548168023544519e-13 -1.0 5.7752913562582085e-15
outer loop
vertex 13.873816419043282 8.792959691328372 2.4874998688697842
vertex 13.923816419043282 8.792959691328344 1.0374998688698136
vertex 13.923816419043282 8.792959691328353 2.4874998688697842
endloop
endfacet
facet normal 1.0 -3.575347445675844e-13 4.3128889256184164e-15
outer loop
vertex 13.923816419043282 8.792959691328344 1.0374998688698136
vertex 13.923816419046307 17.23295969132836 1.0374998688697956
vertex 13.923816419043282 8.792959691328353 2.4874998688697842
endloop
endfacet
facet normal 1.0 -3.575347445675844e-13 4.3128889256184164e-15
outer loop
vertex 13.923816419043282 8.792959691328349 3.712500131130249
vertex 13.923816419046307 17.23295969132836 1.0374998688697956
vertex 13.923816419046284 17.23295969132836 3.71250013113023
endloop
endfacet
facet normal 1.0 -3.575347445675844e-13 4.3128889256184164e-15
outer loop
vertex 13.923816419046307 17.23295969132836 1.0374998688697956
vertex 13.923816419043282 8.792959691328349 3.712500131130249
vertex 13.923816419043282 8.792959691328353 2.4874998688697842
endloop
endfacet
facet normal -1.0 3.548168023544519e-13 0.0
outer loop
vertex 16.623816609778203 8.792959691327397 1.0374998688698134
vertex 16.623816609781194 17.232959691327405 3.71250013113023
vertex 16.623816609781194 17.232959691327405 1.0374998688697956
endloop
endfacet
facet normal -1.0 3.548168023544519e-13 0.0
outer loop
vertex 16.623816609781194 17.232959691327405 3.71250013113023
vertex 16.623816609778203 8.792959691327397 1.0374998688698134
vertex 16.623816609778203 8.792959691327397 2.487499868869784
endloop
endfacet
facet normal -1.0 3.548168023544519e-13 0.0
outer loop
vertex 16.623816609781194 17.232959691327405 3.71250013113023
vertex 16.623816609778203 8.792959691327397 2.487499868869784
vertex 16.623816609778203 8.792959691327393 3.712500131130249
endloop
endfacet
facet normal -7.892679699568589e-28 -2.22389773789559e-15 -1.0
outer loop
vertex 13.923816419043282 8.792959691328349 3.712500131130249
vertex 16.623816609781194 17.232959691327405 3.71250013113023
vertex 16.623816609778203 8.792959691327393 3.712500131130249
endloop
endfacet
facet normal -7.892679699568589e-28 -2.22389773789559e-15 -1.0
outer loop
vertex 16.623816609781194 17.232959691327405 3.71250013113023
vertex 13.923816419043282 8.792959691328349 3.712500131130249
vertex 13.923816419046284 17.23295969132836 3.71250013113023
endloop
endfacet
facet normal -1.336872904701301e-16 -2.0935431166435116e-15 -1.0
outer loop
vertex 6.923815942209294 17.29295969133085 3.775000000000013
vertex 9.62381613294562 22.29295969132989 3.775000000000002
vertex 9.623816132943846 17.29295969132989 3.7750000000000123
endloop
endfacet
facet normal -1.336872904701301e-16 -2.0935431166435116e-15 -1.0
outer loop
vertex 9.62381613294562 22.29295969132989 3.775000000000002
vertex 6.923815942209294 17.29295969133085 3.775000000000013
vertex 6.9238159422110686 22.29295969133085 3.775000000000002
endloop
endfacet
facet normal 2.5577369863111645e-13 0.7213865951398746 -0.6925325843254589
outer loop
vertex 6.923815942209273 17.232959691330844 3.71250013113023
vertex 9.623816132943846 17.29295969132989 3.7750000000000123
vertex 9.623816132943825 17.23295969132989 3.7125001311302293
endloop
endfacet
facet normal 2.5577369863111645e-13 0.7213865951398746 -0.6925325843254589
outer loop
vertex 9.623816132943846 17.29295969132989 3.7750000000000123
vertex 6.923815942209273 17.232959691330844 3.71250013113023
vertex 6.923815942209294 17.29295969133085 3.775000000000013
endloop
endfacet
facet normal 2.562379224973618e-13 0.7213865951398756 0.6925325843254577
outer loop
vertex 6.92381594220934 17.29295969133085 0.9750000000000134
vertex 9.623816132943825 17.23295969132989 1.0374998688697952
vertex 9.623816132943846 17.29295969132989 0.9750000000000123
endloop
endfacet
facet normal 2.562379224973618e-13 0.7213865951398756 0.6925325843254577
outer loop
vertex 9.623816132943825 17.23295969132989 1.0374998688697952
vertex 6.92381594220934 17.29295969133085 0.9750000000000134
vertex 6.923815942209319 17.232959691330844 1.0374998688697963
endloop
endfacet
facet normal -8.194990613430387e-28 -2.3101165425032363e-15 -1.0
outer loop
vertex 13.923816419046307 17.292959691328367 3.7750000000000137
vertex 16.623816609782992 22.29295969132741 3.775000000000002
vertex 16.623816609781215 17.292959691327408 3.7750000000000137
endloop
endfacet
facet normal -8.194990613430387e-28 -2.3101165425032363e-15 -1.0
outer loop
vertex 16.623816609782992 22.29295969132741 3.775000000000002
vertex 13.923816419046307 17.292959691328367 3.7750000000000137
vertex 13.92381641904807 22.292959691328367 3.775000000000002
endloop
endfacet
facet normal 2.5596008494889724e-13 0.7213865951398785 -0.6925325843254548
outer loop
vertex 13.923816419046307 17.292959691328367 3.7750000000000137
vertex 16.623816609781194 17.232959691327405 3.71250013113023
vertex 13.923816419046284 17.23295969132836 3.71250013113023
endloop
endfacet
facet normal 2.5596008494889724e-13 0.7213865951398785 -0.6925325843254548
outer loop
vertex 16.623816609781194 17.232959691327405 3.71250013113023
vertex 13.923816419046307 17.292959691328367 3.7750000000000137
vertex 16.623816609781215 17.292959691327408 3.7750000000000137
endloop
endfacet
facet normal 2.5596008494889654e-13 0.7213865951398765 0.692532584325457
outer loop
vertex 13.923816419046307 17.23295969132836 1.0374998688697956
vertex 16.623816609781215 17.292959691327408 0.9750000000000123
vertex 13.92381641904633 17.292959691328367 0.9750000000000123
endloop
endfacet
facet normal 2.5596008494889654e-13 0.7213865951398765 0.692532584325457
outer loop
vertex 16.623816609781215 17.292959691327408 0.9750000000000123
vertex 13.923816419046307 17.23295969132836 1.0374998688697956
vertex 16.623816609781194 17.232959691327405 1.0374998688697956
endloop
endfacet
facet normal 3.6764004879158375e-16 2.1490550255624333e-15 1.0
outer loop
vertex 6.923815942209319 17.232959691330844 1.0374998688697963
vertex 9.62381613294083 8.792959691329871 1.0374998688698136
vertex 9.623816132943825 17.23295969132989 1.0374998688697952
endloop
endfacet
facet normal 3.6764004879158375e-16 2.1490550255624333e-15 1.0
outer loop
vertex 9.62381613294083 8.792959691329871 1.0374998688698136
vertex 6.923815942209319 17.232959691330844 1.0374998688697963
vertex 6.923815942206325 8.792959691330827 1.0374998688698143
endloop
endfacet
facet normal -3.548168023544519e-13 -1.0 0.0
outer loop
vertex 9.62381613294083 8.792959691329871 1.0374998688698136
vertex 6.923815942206325 8.792959691330827 0.9874998688698146
vertex 9.62381613294083 8.792959691329871 0.9874998688698134
endloop
endfacet
facet normal -3.548168023544519e-13 -1.0 0.0
outer loop
vertex 6.923815942206325 8.792959691330827 0.9874998688698146
vertex 9.62381613294083 8.792959691329871 1.0374998688698136
vertex 6.923815942206325 8.792959691330827 1.0374998688698143
endloop
endfacet
facet normal 6.684364523544053e-17 2.1383632095149666e-15 1.0
outer loop
vertex 13.923816419046307 17.23295969132836 1.0374998688697956
vertex 16.623816609778203 8.792959691327397 1.0374998688698134
vertex 16.623816609781194 17.232959691327405 1.0374998688697956
endloop
endfacet
facet normal 6.684364523544053e-17 2.1383632095149666e-15 1.0
outer loop
vertex 16.623816609778203 8.792959691327397 1.0374998688698134
vertex 13.923816419046307 17.23295969132836 1.0374998688697956
vertex 13.923816419043282 8.792959691328344 1.0374998688698136
endloop
endfacet
facet normal -3.5160830738318704e-13 -1.0 -3.520787080007368e-30
outer loop
vertex 16.623816609778203 8.792959691327397 1.0374998688698134
vertex 13.923816419043282 8.792959691328344 0.9874998688698138
vertex 16.623816609778203 8.792959691327397 0.9874998688698134
endloop
endfacet
facet normal -3.5160830738318704e-13 -1.0 -3.520787080007368e-30
outer loop
vertex 13.923816419043282 8.792959691328344 0.9874998688698138
vertex 16.623816609778203 8.792959691327397 1.0374998688698134
vertex 13.923816419043282 8.792959691328344 1.0374998688698136
endloop
endfacet
facet normal -1.0 3.548168023544519e-13 0.0
outer loop
vertex 9.62381613294562 22.292959691329887 0.9750000000000022
vertex 9.623816132943846 17.29295969132989 3.7750000000000123
vertex 9.62381613294562 22.29295969132989 3.775000000000002
endloop
endfacet
facet normal -1.0 3.548168023544519e-13 0.0
outer loop
vertex 9.623816132943846 17.29295969132989 3.7750000000000123
vertex 9.62381613294562 22.292959691329887 0.9750000000000022
vertex 9.623816132943846 17.29295969132989 0.9750000000000123
endloop
endfacet
facet normal -1.0 3.548168023544519e-13 0.0
outer loop
vertex 9.623816132943846 17.29295969132989 3.7750000000000123
vertex 9.623816132943846 17.29295969132989 0.9750000000000123
vertex 9.623816132943825 17.23295969132989 1.0374998688697952
endloop
endfacet
facet normal -1.0 3.548168023544519e-13 0.0
outer loop
vertex 9.623816132943846 17.29295969132989 3.7750000000000123
vertex 9.623816132943825 17.23295969132989 1.0374998688697952
vertex 9.623816132943825 17.23295969132989 3.7125001311302293
endloop
endfacet
facet normal 3.342182261742039e-16 2.057447545666828e-15 1.0
outer loop
vertex 6.923815942211115 22.292959691330843 0.975000000000003
vertex 9.623816132943846 17.29295969132989 0.9750000000000123
vertex 9.62381613294562 22.292959691329887 0.9750000000000022
endloop
endfacet
facet normal 3.342182261742039e-16 2.057447545666828e-15 1.0
outer loop
vertex 9.623816132943846 17.29295969132989 0.9750000000000123
vertex 6.923815942211115 22.292959691330843 0.975000000000003
vertex 6.92381594220934 17.29295969133085 0.9750000000000134
endloop
endfacet
facet normal 7.427678835840806e-28 2.0935431166435597e-15 1.0
outer loop
vertex 13.92381641904807 22.29295969132836 0.9750000000000019
vertex 16.623816609781215 17.292959691327408 0.9750000000000123
vertex 16.623816609782992 22.292959691327404 0.9750000000000019
endloop
endfacet
facet normal 7.427678835840806e-28 2.0935431166435597e-15 1.0
outer loop
vertex 16.623816609781215 17.292959691327408 0.9750000000000123
vertex 13.92381641904807 22.29295969132836 0.9750000000000019
vertex 13.92381641904633 17.292959691328367 0.9750000000000123
endloop
endfacet
facet normal 1.0 -3.5079863876006517e-13 5.5386650897144046e-15
outer loop
vertex 13.923816419046307 17.292959691328367 3.7750000000000137
vertex 13.92381641904807 22.29295969132836 0.9750000000000019
vertex 13.92381641904807 22.292959691328367 3.775000000000002
endloop
endfacet
facet normal 1.0 -3.5079863876006517e-13 5.5386650897144046e-15
outer loop
vertex 13.92381641904807 22.29295969132836 0.9750000000000019
vertex 13.923816419046307 17.292959691328367 3.7750000000000137
vertex 13.92381641904633 17.292959691328367 0.9750000000000123
endloop
endfacet
facet normal 1.0 -3.5079863876006517e-13 5.5386650897144046e-15
outer loop
vertex 13.92381641904633 17.292959691328367 0.9750000000000123
vertex 13.923816419046307 17.292959691328367 3.7750000000000137
vertex 13.923816419046284 17.23295969132836 3.71250013113023
endloop
endfacet
facet normal 1.0 -3.5079863876006517e-13 5.5386650897144046e-15
outer loop
vertex 13.92381641904633 17.292959691328367 0.9750000000000123
vertex 13.923816419046284 17.23295969132836 3.71250013113023
vertex 13.923816419046307 17.23295969132836 1.0374998688697956
endloop
endfacet
facet normal 1.0 -3.5481680235445184e-13 1.674244853863691e-14
outer loop
vertex 6.923815942209294 17.29295969133085 3.775000000000013
vertex 6.923815942211115 22.292959691330843 0.975000000000003
vertex 6.9238159422110686 22.29295969133085 3.775000000000002
endloop
endfacet
facet normal 1.0 -3.5481680235445184e-13 1.674244853863691e-14
outer loop
vertex 6.923815942211115 22.292959691330843 0.975000000000003
vertex 6.923815942209294 17.29295969133085 3.775000000000013
vertex 6.92381594220934 17.29295969133085 0.9750000000000134
endloop
endfacet
facet normal 1.0 -3.5481680235445184e-13 1.674244853863691e-14
outer loop
vertex 6.92381594220934 17.29295969133085 0.9750000000000134
vertex 6.923815942209294 17.29295969133085 3.775000000000013
vertex 6.923815942209273 17.232959691330844 3.71250013113023
endloop
endfacet
facet normal 1.0 -3.5481680235445184e-13 1.674244853863691e-14
outer loop
vertex 6.92381594220934 17.29295969133085 0.9750000000000134
vertex 6.923815942209273 17.232959691330844 3.71250013113023
vertex 6.923815942209319 17.232959691330844 1.0374998688697963
endloop
endfacet
facet normal 2.508933670237599e-13 0.7071067811865476 -0.7071067811865476
outer loop
vertex 13.423816419048247 22.792959691328544 4.275000000000001
vertex 16.623816609782992 22.29295969132741 3.775000000000002
vertex 13.92381641904807 22.292959691328367 3.775000000000002
endloop
endfacet
facet normal 2.508933670237599e-13 0.7071067811865476 -0.7071067811865476
outer loop
vertex 16.623816609782992 22.29295969132741 3.775000000000002
vertex 13.423816419048247 22.792959691328544 4.275000000000001
vertex 16.62381660978317 22.79295969132741 4.275000000000001
endloop
endfacet
facet normal 0.7071067811867964 0.7071067811862988 -1.2265549393639958e-15
outer loop
vertex 13.423816419048247 22.792959691328544 4.275000000000001
vertex 13.92381641904807 22.29295969132836 0.9750000000000019
vertex 13.423816419048247 22.792959691328537 0.5250000000000006
endloop
endfacet
facet normal 0.7071067811867964 0.7071067811862988 -1.2265549393639958e-15
outer loop
vertex 13.92381641904807 22.29295969132836 0.9750000000000019
vertex 13.423816419048247 22.792959691328544 4.275000000000001
vertex 13.92381641904807 22.292959691328367 3.775000000000002
endloop
endfacet
facet normal 2.508933670237599e-13 0.7071067811865476 -0.7071067811865476
outer loop
vertex 6.4238159422112435 22.792959691331024 4.275000000000001
vertex 9.62381613294562 22.29295969132989 3.775000000000002
vertex 6.9238159422110686 22.29295969133085 3.775000000000002
endloop
endfacet
facet normal 2.508933670237599e-13 0.7071067811865476 -0.7071067811865476
outer loop
vertex 9.62381613294562 22.29295969132989 3.775000000000002
vertex 6.4238159422112435 22.792959691331024 4.275000000000001
vertex 10.123816132945798 22.79295969132971 4.275000000000001
endloop
endfacet
facet normal 2.3736403612874923e-13 0.6689647316224514 0.7432941462471648
outer loop
vertex 13.423816419048247 22.792959691328537 0.5250000000000006
vertex 16.623816609782992 22.292959691327404 0.9750000000000019
vertex 16.62381660978317 22.792959691327404 0.5250000000000006
endloop
endfacet
facet normal 2.3736403612874923e-13 0.6689647316224514 0.7432941462471648
outer loop
vertex 16.623816609782992 22.292959691327404 0.9750000000000019
vertex 13.423816419048247 22.792959691328537 0.5250000000000006
vertex 13.92381641904807 22.29295969132836 0.9750000000000019
endloop
endfacet
facet normal 0.7071067811867986 0.7071067811862964 1.123252926823152e-14
outer loop
vertex 6.9238159422110686 22.29295969133085 3.775000000000002
vertex 6.423815942211301 22.79295969133102 0.5125001311302197
vertex 6.4238159422112435 22.792959691331024 4.275000000000001
endloop
endfacet
facet normal 0.7071067811867986 0.7071067811862964 1.123252926823152e-14
outer loop
vertex 6.423815942211301 22.79295969133102 0.5125001311302197
vertex 6.9238159422110686 22.29295969133085 3.775000000000002
vertex 6.923815942211115 22.292959691330843 0.975000000000003
endloop
endfacet
facet normal 2.41103183085965e-13 0.6790418778651747 0.7340995355572276
outer loop
vertex 6.423815942211301 22.79295969133102 0.5125001311302197
vertex 9.62381613294562 22.292959691329887 0.9750000000000022
vertex 10.123816132945798 22.79295969132971 0.512500131130219
endloop
endfacet
facet normal 2.41103183085965e-13 0.6790418778651747 0.7340995355572276
outer loop
vertex 9.62381613294562 22.292959691329887 0.9750000000000022
vertex 6.423815942211301 22.79295969133102 0.5125001311302197
vertex 6.923815942211115 22.292959691330843 0.975000000000003
endloop
endfacet
facet normal -0.7071067811862968 0.7071067811867984 -6.08176762601231e-16
outer loop
vertex 10.123816132945798 22.79295969132971 0.512500131130219
vertex 9.62381613294562 22.29295969132989 3.775000000000002
vertex 10.123816132945798 22.79295969132971 4.275000000000001
endloop
endfacet
facet normal -0.7071067811862968 0.7071067811867984 -6.08176762601231e-16
outer loop
vertex 9.62381613294562 22.29295969132989 3.775000000000002
vertex 10.123816132945798 22.79295969132971 0.512500131130219
vertex 9.62381613294562 22.292959691329887 0.9750000000000022
endloop
endfacet
facet normal 3.548168023544519e-13 1.0 0.0
outer loop
vertex 16.67381660978345 23.592959691327383 3.1500000357627878
vertex 17.54881649057384 23.592959691327074 3.150000035762787
vertex 16.67381660978345 23.592959691327383 2.3499999642372127
endloop
endfacet
facet normal 3.548168023544519e-13 1.0 0.0
outer loop
vertex 17.54881649057384 23.592959691327074 4.05
vertex 18.348816562099813 23.59295969132679 3.150000035762787
vertex 17.54881649057384 23.592959691327074 3.150000035762787
endloop
endfacet
facet normal 3.548168023544519e-13 1.0 0.0
outer loop
vertex 18.348816562099813 23.59295969132679 3.150000035762787
vertex 17.54881649057384 23.592959691327074 4.05
vertex 18.348816562099813 23.59295969132679 4.05
endloop
endfacet
facet normal 3.548168023544519e-13 1.0 0.0
outer loop
vertex 17.54881649057384 23.592959691327074 1.4499999999999995
vertex 18.348816562099813 23.59295969132679 2.3499999642372114
vertex 18.348816562099813 23.59295969132679 1.4499999999999982
endloop
endfacet
facet normal 3.548168023544519e-13 1.0 0.0
outer loop
vertex 18.348816562099813 23.59295969132679 2.3499999642372114
vertex 17.54881649057384 23.592959691327074 1.4499999999999995
vertex 17.54881649057384 23.592959691327074 2.3499999642372114
endloop
endfacet
facet normal 3.548168023544519e-13 1.0 0.0
outer loop
vertex 18.348816562099813 23.59295969132679 2.3499999642372114
vertex 17.54881649057384 23.592959691327074 2.3499999642372114
vertex 16.67381660978345 23.592959691327383 2.3499999642372127
endloop
endfacet
facet normal 3.548168023544519e-13 1.0 0.0
outer loop
vertex 18.348816562099813 23.59295969132679 2.3499999642372114
vertex 16.67381660978345 23.592959691327383 2.3499999642372127
vertex 19.273816395206428 23.592959691326463 2.3499999642372114
endloop
endfacet
facet normal 3.548168023544519e-13 1.0 0.0
outer loop
vertex 19.273816395206428 23.592959691326463 2.3499999642372114
vertex 16.67381660978345 23.592959691327383 2.3499999642372127
vertex 19.273816395206428 23.592959691326463 3.150000035762787
endloop
endfacet
facet normal 3.548168023544519e-13 1.0 0.0
outer loop
vertex 19.273816395206428 23.592959691326463 3.150000035762787
vertex 16.67381660978345 23.592959691327383 2.3499999642372127
vertex 17.54881649057384 23.592959691327074 3.150000035762787
endloop
endfacet
facet normal 3.548168023544519e-13 1.0 0.0
outer loop
vertex 19.273816395206428 23.592959691326463 3.150000035762787
vertex 17.54881649057384 23.592959691327074 3.150000035762787
vertex 18.348816562099813 23.59295969132679 3.150000035762787
endloop
endfacet
facet normal 1.0 -3.548168023544519e-13 0.0
outer loop
vertex 18.34881656209953 22.792959691326793 1.5499999642372113
vertex 18.348816562099813 23.59295969132679 1.4499999999999982
vertex 18.348816562099813 23.59295969132679 2.3499999642372114
endloop
endfacet
facet normal 1.0 -3.548168023544519e-13 0.0
outer loop
vertex 18.348816562099813 23.59295969132679 1.4499999999999982
vertex 18.34881656209953 22.792959691326793 1.5499999642372113
vertex 18.34881656209953 22.792959691326793 0.6499999999999981
endloop
endfacet
facet normal -1.0 3.548168023544519e-13 0.0
outer loop
vertex 17.548816490573557 22.792959691327074 0.6499999999999996
vertex 17.54881649057384 23.592959691327074 2.3499999642372114
vertex 17.54881649057384 23.592959691327074 1.4499999999999995
endloop
endfacet
facet normal -1.0 3.548168023544519e-13 0.0
outer loop
vertex 17.54881649057384 23.592959691327074 2.3499999642372114
vertex 17.548816490573557 22.792959691327074 0.6499999999999996
vertex 17.548816490573557 22.792959691327074 1.5499999642372113
endloop
endfacet
facet normal -1.0 3.548168023544519e-13 0.0
outer loop
vertex 16.67381660978317 22.792959691327383 1.5499999642372124
vertex 16.67381660978345 23.592959691327383 3.1500000357627878
vertex 16.67381660978345 23.592959691327383 2.3499999642372127
endloop
endfacet
facet normal -1.0 3.548168023544519e-13 0.0
outer loop
vertex 16.67381660978345 23.592959691327383 3.1500000357627878
vertex 16.67381660978317 22.792959691327383 1.5499999642372124
vertex 16.67381660978317 22.792959691327383 3.1500000357627878
endloop
endfacet
facet normal 1.0 -3.548168023544519e-13 0.0
outer loop
vertex 19.273816395206143 22.792959691326462 3.150000035762787
vertex 19.273816395206428 23.592959691326463 2.3499999642372114
vertex 19.273816395206428 23.592959691326463 3.150000035762787
endloop
endfacet
facet normal 1.0 -3.548168023544519e-13 0.0
outer loop
vertex 19.273816395206428 23.592959691326463 2.3499999642372114
vertex 19.273816395206143 22.792959691326462 3.150000035762787
vertex 19.273816395206143 22.792959691326462 1.5499999642372113
endloop
endfacet
facet normal 3.548168023544519e-13 1.0 0.0
outer loop
vertex 16.62381660978317 22.792959691327404 0.5250000000000006
vertex 17.548816490573557 22.792959691327074 0.6499999999999996
vertex 18.34881656209953 22.792959691326793 0.6499999999999981
endloop
endfacet
facet normal 3.548168023544519e-13 1.0 0.0
outer loop
vertex 17.548816490573557 22.792959691327074 0.6499999999999996
vertex 16.62381660978317 22.792959691327404 0.5250000000000006
vertex 16.67381660978317 22.792959691327383 1.5499999642372124
endloop
endfacet
facet normal 3.548168023544519e-13 1.0 0.0
outer loop
vertex 16.67381660978317 22.792959691327383 1.5499999642372124
vertex 16.62381660978317 22.792959691327404 0.5250000000000006
vertex 16.62381660978317 22.79295969132741 4.275000000000001
endloop
endfacet
facet normal 3.548168023544519e-13 1.0 0.0
outer loop
vertex 17.548816490573557 22.792959691327074 0.6499999999999996
vertex 16.67381660978317 22.792959691327383 1.5499999642372124
vertex 17.548816490573557 22.792959691327074 1.5499999642372113
endloop
endfacet
facet normal 3.548168023544519e-13 1.0 0.0
outer loop
vertex 16.67381660978317 22.792959691327383 1.5499999642372124
vertex 16.62381660978317 22.79295969132741 4.275000000000001
vertex 16.67381660978317 22.792959691327383 3.1500000357627878
endloop
endfacet
facet normal 3.548168023544519e-13 1.0 0.0
outer loop
vertex 16.67381660978317 22.792959691327383 3.1500000357627878
vertex 16.62381660978317 22.79295969132741 4.275000000000001
vertex 17.548816490573557 22.792959691327074 4.05
endloop
endfacet
facet normal 3.548168023544519e-13 1.0 0.0
outer loop
vertex 17.548816490573557 22.792959691327074 4.05
vertex 16.62381660978317 22.79295969132741 4.275000000000001
vertex 18.34881656209953 22.792959691326793 4.05
endloop
endfacet
facet normal 3.548168023544519e-13 1.0 0.0
outer loop
vertex 4.27381639520646 22.792959691331784 0.4874998688697828
vertex 6.423815942211301 22.79295969133102 0.5125001311302197
vertex 19.27381639520619 22.792959691326462 0.4874998688697828
endloop
endfacet
facet normal 3.548168023544519e-13 1.0 0.0
outer loop
vertex 6.423815942211301 22.79295969133102 0.5125001311302197
vertex 4.27381639520646 22.792959691331784 0.4874998688697828
vertex 4.27381639520646 22.792959691331784 4.400000000000001
endloop
endfacet
facet normal 3.548168023544519e-13 1.0 0.0
outer loop
vertex 19.27381639520619 22.792959691326462 0.4874998688697828
vertex 6.423815942211301 22.79295969133102 0.5125001311302197
vertex 10.123816132945798 22.79295969132971 0.512500131130219
endloop
endfacet
facet normal 3.548168023544519e-13 1.0 0.0
outer loop
vertex 6.423815942211301 22.79295969133102 0.5125001311302197
vertex 4.27381639520646 22.792959691331784 4.400000000000001
vertex 6.4238159422112435 22.792959691331024 4.275000000000001
endloop
endfacet
facet normal 3.548168023544519e-13 1.0 0.0
outer loop
vertex 6.4238159422112435 22.792959691331024 4.275000000000001
vertex 4.27381639520646 22.792959691331784 4.400000000000001
vertex 10.123816132945798 22.79295969132971 4.275000000000001
endloop
endfacet
facet normal 3.548168023544519e-13 1.0 0.0
outer loop
vertex 10.123816132945798 22.79295969132971 4.275000000000001
vertex 4.27381639520646 22.792959691331784 4.400000000000001
vertex 13.423816419048247 22.792959691328544 4.275000000000001
endloop
endfacet
facet normal 3.548168023544519e-13 1.0 0.0
outer loop
vertex 13.423816419048247 22.792959691328544 4.275000000000001
vertex 4.27381639520646 22.792959691331784 4.400000000000001
vertex 16.62381660978317 22.79295969132741 4.275000000000001
endloop
endfacet
facet normal 3.548168023544519e-13 1.0 0.0
outer loop
vertex 18.34881656209953 22.792959691326793 4.05
vertex 19.273816395206143 22.792959691326462 3.150000035762787
vertex 18.34881656209953 22.792959691326793 3.150000035762787
endloop
endfacet
facet normal 3.548168023544519e-13 1.0 0.0
outer loop
vertex 19.273816395206143 22.792959691326462 3.150000035762787
vertex 18.34881656209953 22.792959691326793 4.05
vertex 19.27381639520619 22.792959691326462 4.400000000000001
endloop
endfacet
facet normal 3.548168023544519e-13 1.0 0.0
outer loop
vertex 19.27381639520619 22.792959691326462 4.400000000000001
vertex 18.34881656209953 22.792959691326793 4.05
vertex 16.62381660978317 22.79295969132741 4.275000000000001
endloop
endfacet
facet normal 3.548168023544519e-13 1.0 0.0
outer loop
vertex 19.27381639520619 22.792959691326462 4.400000000000001
vertex 16.62381660978317 22.79295969132741 4.275000000000001
vertex 4.27381639520646 22.792959691331784 4.400000000000001
endloop
endfacet
facet normal 3.548168023544519e-13 1.0 0.0
outer loop
vertex 10.123816132945798 22.79295969132971 4.275000000000001
vertex 13.423816419048247 22.792959691328537 0.5250000000000006
vertex 10.123816132945798 22.79295969132971 0.512500131130219
endloop
endfacet
facet normal 3.548168023544519e-13 1.0 0.0
outer loop
vertex 13.423816419048247 22.792959691328537 0.5250000000000006
vertex 10.123816132945798 22.79295969132971 4.275000000000001
vertex 13.423816419048247 22.792959691328544 4.275000000000001
endloop
endfacet
facet normal 3.548168023544519e-13 1.0 0.0
outer loop
vertex 17.548816490573557 22.792959691327074 4.05
vertex 17.548816490573557 22.792959691327074 3.150000035762787
vertex 16.67381660978317 22.792959691327383 3.1500000357627878
endloop
endfacet
facet normal 3.548168023544519e-13 1.0 0.0
outer loop
vertex 19.27381639520619 22.792959691326462 0.4874998688697828
vertex 18.34881656209953 22.792959691326793 0.6499999999999981
vertex 19.273816395206143 22.792959691326462 1.5499999642372113
endloop
endfacet
facet normal 3.548168023544519e-13 1.0 0.0
outer loop
vertex 18.34881656209953 22.792959691326793 0.6499999999999981
vertex 19.27381639520619 22.792959691326462 0.4874998688697828
vertex 16.62381660978317 22.792959691327404 0.5250000000000006
endloop
endfacet
facet normal 3.548168023544519e-13 1.0 0.0
outer loop
vertex 16.62381660978317 22.792959691327404 0.5250000000000006
vertex 19.27381639520619 22.792959691326462 0.4874998688697828
vertex 10.123816132945798 22.79295969132971 0.512500131130219
endloop
endfacet
facet normal 3.548168023544519e-13 1.0 0.0
outer loop
vertex 16.62381660978317 22.792959691327404 0.5250000000000006
vertex 10.123816132945798 22.79295969132971 0.512500131130219
vertex 13.423816419048247 22.792959691328537 0.5250000000000006
endloop
endfacet
facet normal 3.548168023544519e-13 1.0 0.0
outer loop
vertex 19.273816395206143 22.792959691326462 1.5499999642372113
vertex 18.34881656209953 22.792959691326793 0.6499999999999981
vertex 18.34881656209953 22.792959691326793 1.5499999642372113
endloop
endfacet
facet normal -3.54834496262207e-13 -1.0 -4.6143335591456854e-33
outer loop
vertex 16.8738162759889 0.14295969132730504 1.9874996304512054
vertex 6.673816514407814 0.1429596913309233 0.4874998688697857
vertex 16.8738162759889 0.14295969132730504 0.4874998688697857
endloop
endfacet
facet normal -3.54834496262207e-13 -1.0 -4.6143335591456854e-33
outer loop
vertex 6.673816514407814 0.1429596913309233 0.4874998688697857
vertex 16.8738162759889 0.14295969132730504 1.9874996304512054
vertex 6.673816514407814 0.1429596913309233 1.9874996304512054
endloop
endfacet
facet normal 0.7071067811863275 -0.7071067811867676 -1.7503963499130488e-16
outer loop
vertex 17.37381651440766 0.6429596913271278 2.487499868869786
vertex 17.873816514407796 1.1429596913269506 0.4874998688697828
vertex 17.873816514407796 1.1429596913269506 2.487499868869783
endloop
endfacet
facet normal 0.7071067811863275 -0.7071067811867676 -1.7503963499130488e-16
outer loop
vertex 17.873816514407796 1.1429596913269506 0.4874998688697828
vertex 17.37381651440766 0.6429596913271278 2.487499868869786
vertex 17.37381651440766 0.6429596913271307 0.4874998688697857
endloop
endfacet
facet normal 0.7071066125989194 -0.7071069497741355 -5.482135093825437e-18
outer loop
vertex 17.37381651440766 0.6429596913271278 2.487499868869786
vertex 16.8738162759889 0.14295969132730504 0.4874998688697857
vertex 17.37381651440766 0.6429596913271307 0.4874998688697857
endloop
endfacet
facet normal 0.7071066125989194 -0.7071069497741355 -5.482135093825437e-18
outer loop
vertex 16.8738162759889 0.14295969132730504 0.4874998688697857
vertex 17.37381651440766 0.6429596913271278 2.487499868869786
vertex 16.8738162759889 0.14295969132730504 1.9874996304512054
endloop
endfacet
facet normal -0.707106781186504 -0.7071067811865911 1.315713363587525e-16
outer loop
vertex 6.673816514407814 0.1429596913309233 1.9874996304512054
vertex 6.173816514407574 0.642959691331107 0.4874998688697857
vertex 6.673816514407814 0.1429596913309233 0.4874998688697857
endloop
endfacet
facet normal -0.707106781186504 -0.7071067811865911 1.315713363587525e-16
outer loop
vertex 6.173816514407574 0.642959691331107 0.4874998688697857
vertex 6.673816514407814 0.1429596913309233 1.9874996304512054
vertex 6.173816514407574 0.6429596913311041 2.487499868869786
endloop
endfacet
facet normal -0.7071067811868299 -0.7071067811862652 -1.2965898888241304e-16
outer loop
vertex 6.173816514407574 0.642959691331107 0.4874998688697857
vertex 5.673816514407794 1.1429596913312792 2.487499868869783
vertex 5.673816514407794 1.142959691331282 0.4874998688697828
endloop
endfacet
facet normal -0.7071067811868299 -0.7071067811862652 -1.2965898888241304e-16
outer loop
vertex 5.673816514407794 1.1429596913312792 2.487499868869783
vertex 6.173816514407574 0.642959691331107 0.4874998688697857
vertex 6.173816514407574 0.6429596913311041 2.487499868869786
endloop
endfacet
facet normal -3.548168023544519e-13 -1.0 0.0
outer loop
vertex 5.673816514411574 11.79295992974987 4.400000000000001
vertex 4.273816395202556 11.792959929750365 0.4874998688697857
vertex 5.673816514411574 11.79295992974987 0.4874998688697828
endloop
endfacet
facet normal -3.548168023544519e-13 -1.0 0.0
outer loop
vertex 4.273816395202556 11.792959929750365 0.4874998688697857
vertex 5.673816514411574 11.79295992974987 4.400000000000001
vertex 4.273816395202568 11.792959929750365 4.400000000000004
endloop
endfacet
facet normal -3.548168023544519e-13 -1.0 0.0
outer loop
vertex 19.273816395202285 11.792959929745045 0.4874998688697857
vertex 17.873816514411573 11.79295992974554 4.400000000000001
vertex 17.873816514411573 11.79295992974554 0.4874998688697828
endloop
endfacet
facet normal -3.548168023544519e-13 -1.0 0.0
outer loop
vertex 17.873816514411573 11.79295992974554 4.400000000000001
vertex 19.273816395202285 11.792959929745045 0.4874998688697857
vertex 19.273816395202285 11.792959929745045 4.400000000000004
endloop
endfacet
facet normal -1.123844248573275e-24 -9.62184229884335e-17 -1.0
outer loop
vertex 17.020263123814495 0.9965130819205124 3.383959779057477e-15
vertex 17.37381651441175 12.292959929745718 0.0
vertex 17.373816514407864 1.3500664725136602 9.475087381360936e-16
endloop
endfacet
facet normal -1.123844248573275e-24 -9.62184229884335e-17 -1.0
outer loop
vertex 17.37381651441175 12.292959929745718 0.0
vertex 18.77381639520601 22.29295969132664 6.31672492090729e-16
vertex 18.773816395202463 12.292959929745223 2.7974067506875144e-15
endloop
endfacet
facet normal -1.123844248573275e-24 -9.62184229884335e-17 -1.0
outer loop
vertex 18.77381639520601 22.29295969132664 6.31672492090729e-16
vertex 17.37381651441175 12.292959929745718 0.0
vertex 4.773816395206283 22.29295969133161 6.31672492090729e-16
endloop
endfacet
facet normal -1.123844248573275e-24 -9.62184229884335e-17 -1.0
outer loop
vertex 4.773816395206283 22.29295969133161 6.31672492090729e-16
vertex 17.37381651441175 12.292959929745718 0.0
vertex 17.020263123814495 0.9965130819205124 3.383959779057477e-15
endloop
endfacet
facet normal -1.123844248573275e-24 -9.62184229884335e-17 -1.0
outer loop
vertex 4.773816395206283 22.29295969133161 6.31672492090729e-16
vertex 17.020263123814495 0.9965130819205124 3.383959779057477e-15
vertex 16.666709564633692 0.6429596913273762 3.383959779057477e-15
endloop
endfacet
facet normal -1.123844248573275e-24 -9.62184229884335e-17 -1.0
outer loop
vertex 4.773816395206283 22.29295969133161 6.31672492090729e-16
vertex 16.666709564633692 0.6429596913273762 3.383959779057477e-15
vertex 6.1738165144117545 12.292959929749692 0.0
endloop
endfacet
facet normal -1.123844248573275e-24 -9.62184229884335e-17 -1.0
outer loop
vertex 6.1738165144117545 12.292959929749692 0.0
vertex 16.666709564633692 0.6429596913273762 3.383959779057477e-15
vertex 6.880923295594424 0.64295969133085 3.383959779057477e-15
endloop
endfacet
facet normal -1.123844248573275e-24 -9.62184229884335e-17 -1.0
outer loop
vertex 6.1738165144117545 12.292959929749692 0.0
vertex 6.880923295594424 0.64295969133085 3.383959779057477e-15
vertex 6.527369905000829 0.9965130819243991 3.383959779057477e-15
endloop
endfacet
facet normal -1.123844248573275e-24 -9.62184229884335e-17 -1.0
outer loop
vertex 6.1738165144117545 12.292959929749692 0.0
vertex 6.527369905000829 0.9965130819243991 3.383959779057477e-15
vertex 6.1738165144078705 1.3500664725176392 9.475087381360936e-16
endloop
endfacet
facet normal -1.123844248573275e-24 -9.62184229884335e-17 -1.0
outer loop
vertex 4.773816395206283 22.29295969133161 6.31672492090729e-16
vertex 6.1738165144117545 12.292959929749692 0.0
vertex 4.773816395202736 12.29295992975019 2.7974067506875144e-15
endloop
endfacet
facet normal 0.0 0.0 1.0
outer loop
vertex 7.6738161329403685 6.9929596913305145 2.100000000000039
vertex 8.873816895877525 1.7929595959626536 2.100000000000039
vertex 8.87381689587937 6.99295969133009 2.100000000000039
endloop
endfacet
facet normal 0.0 0.0 1.0
outer loop
vertex 8.873816895877525 1.7929595959626536 2.100000000000039
vertex 7.6738161329403685 6.9929596913305145 2.100000000000039
vertex 7.673816132938524 1.7929595959630782 2.100000000000039
endloop
endfacet
facet normal 0.0 0.0 1.0
outer loop
vertex 14.673815812167854 6.992959691328054 2.100000000000039
vertex 15.873816419040617 1.7929595959601703 2.100000000000039
vertex 15.873816575106856 6.99295969132763 2.100000000000039
endloop
endfacet
facet normal 0.0 0.0 1.0
outer loop
vertex 15.873816419040617 1.7929595959601703 2.100000000000039
vertex 14.673815812167854 6.992959691328054 2.100000000000039
vertex 14.673816609775432 1.7929595959605948 2.100000000000039
endloop
endfacet
facet normal 1.8513257014527644e-13 0.5257444319282437 0.850642576113169
outer loop
vertex 16.623816609778203 8.792959691327397 0.9874998688698134
vertex 15.873816575106856 6.99295969132763 2.100000000000039
vertex 16.673816609778203 8.792959691327377 0.9874998688698134
endloop
endfacet
facet normal 1.8513257014527644e-13 0.5257444319282437 0.850642576113169
outer loop
vertex 15.873816575106856 6.99295969132763 2.100000000000039
vertex 16.623816609778203 8.792959691327397 0.9874998688698134
vertex 13.923816419043282 8.792959691328344 0.9874998688698138
endloop
endfacet
facet normal 1.8513257014527644e-13 0.5257444319282437 0.850642576113169
outer loop
vertex 15.873816575106856 6.99295969132763 2.100000000000039
vertex 13.923816419043282 8.792959691328344 0.9874998688698138
vertex 14.673815812167854 6.992959691328054 2.100000000000039
endloop
endfacet
facet normal 1.8513257014527644e-13 0.5257444319282437 0.850642576113169
outer loop
vertex 14.673815812167854 6.992959691328054 2.100000000000039
vertex 13.923816419043282 8.792959691328344 0.9874998688698138
vertex 13.873816419043282 8.792959691328365 0.9874998688698138
endloop
endfacet
facet normal 3.548168023544519e-13 1.0 0.0
outer loop
vertex 14.673816609775432 1.7929595959605948 2.3374998450279314
vertex 15.873816419040617 1.7929595959601703 2.100000000000039
vertex 14.673816609775432 1.7929595959605948 2.100000000000039
endloop
endfacet
facet normal 3.548168023544519e-13 1.0 0.0
outer loop
vertex 15.873816419040617 1.7929595959601703 2.100000000000039
vertex 14.673816609775432 1.7929595959605948 2.3374998450279314
vertex 15.873816419040617 1.7929595959601703 2.3374998450279314
endloop
endfacet
facet normal 0.9138116629645443 0.40613820877870377 -2.186494672966306e-15
outer loop
vertex 14.673815812167854 6.992959691328054 2.4874998688697842
vertex 13.873816419043282 8.792959691328365 0.9874998688698138
vertex 13.873816419043282 8.792959691328372 2.4874998688697842
endloop
endfacet
facet normal 0.9138116629645443 0.40613820877870377 -2.186494672966306e-15
outer loop
vertex 13.873816419043282 8.792959691328365 0.9874998688698138
vertex 14.673815812167854 6.992959691328054 2.4874998688697842
vertex 14.673815812167854 6.992959691328054 2.100000000000039
endloop
endfacet
facet normal 0.9999999999999865 1.560305749715098e-07 -5.5502733388726887e-08
outer loop
vertex 14.673816609775539 2.092959595960596 2.4874998688697842
vertex 14.673815812167854 6.992959691328054 2.100000000000039
vertex 14.673815812167854 6.992959691328054 2.4874998688697842
endloop
endfacet
facet normal 0.9999999999999865 1.560305749715098e-07 -5.5502733388726887e-08
outer loop
vertex 14.673815812167854 6.992959691328054 2.100000000000039
vertex 14.673816609775539 2.092959595960596 2.4874998688697842
vertex 14.673816609775432 1.7929595959605948 2.100000000000039
endloop
endfacet
facet normal 0.9999999999999865 1.560305749715098e-07 -5.5502733388726887e-08
outer loop
vertex 14.673816609775432 1.7929595959605948 2.100000000000039
vertex 14.673816609775539 2.092959595960596 2.4874998688697842
vertex 14.673816609775432 1.7929595959605948 2.3374998450279314
endloop
endfacet
facet normal -0.9999999999999996 3.053017515305358e-08 -1.0859952451911983e-08
outer loop
vertex 15.873816419040617 1.7929595959601703 2.100000000000039
vertex 15.873816575106856 6.99295969132763 2.4874998688697842
vertex 15.873816575106856 6.99295969132763 2.100000000000039
endloop
endfacet
facet normal -0.9999999999999996 3.053017515305358e-08 -1.0859952451911983e-08
outer loop
vertex 15.873816575106856 6.99295969132763 2.4874998688697842
vertex 15.873816419040617 1.7929595959601703 2.100000000000039
vertex 15.873816419040725 2.0929595959601714 2.4874998688697842
endloop
endfacet
facet normal -0.9999999999999996 3.053017515305358e-08 -1.0859952451911983e-08
outer loop
vertex 15.873816419040725 2.0929595959601714 2.4874998688697842
vertex 15.873816419040617 1.7929595959601703 2.100000000000039
vertex 15.873816419040617 1.7929595959601703 2.3374998450279314
endloop
endfacet
facet normal -0.9138115420876434 0.4061384807518286 -4.555196632796907e-17
outer loop
vertex 15.873816575106856 6.99295969132763 2.100000000000039
vertex 16.673816609778203 8.792959691327377 2.487499868869784
vertex 16.673816609778203 8.792959691327377 0.9874998688698134
endloop
endfacet
facet normal -0.9138115420876434 0.4061384807518286 -4.555196632796907e-17
outer loop
vertex 16.673816609778203 8.792959691327377 2.487499868869784
vertex 15.873816575106856 6.99295969132763 2.100000000000039
vertex 15.873816575106856 6.99295969132763 2.4874998688697842
endloop
endfacet
facet normal 3.548168023544519e-13 1.0 0.0
outer loop
vertex 7.673816132938524 1.7929595959630782 2.3374998450279314
vertex 8.873816895877525 1.7929595959626536 2.100000000000039
vertex 7.673816132938524 1.7929595959630782 2.100000000000039
endloop
endfacet
facet normal 3.548168023544519e-13 1.0 0.0
outer loop
vertex 8.873816895877525 1.7929595959626536 2.100000000000039
vertex 7.673816132938524 1.7929595959630782 2.3374998450279314
vertex 8.873816895877525 1.7929595959626536 2.3374998450279314
endloop
endfacet
facet normal 1.867014270827321e-13 0.5257444319282396 0.8506425761131716
outer loop
vertex 9.62381613294083 8.792959691329871 0.9874998688698134
vertex 8.87381689587937 6.99295969133009 2.100000000000039
vertex 9.673816132940829 8.792959691329854 0.9874998688698134
endloop
endfacet
facet normal 1.867014270827321e-13 0.5257444319282396 0.8506425761131716
outer loop
vertex 8.87381689587937 6.99295969133009 2.100000000000039
vertex 9.62381613294083 8.792959691329871 0.9874998688698134
vertex 6.923815942206325 8.792959691330827 0.9874998688698146
endloop
endfacet
facet normal 1.867014270827321e-13 0.5257444319282396 0.8506425761131716
outer loop
vertex 8.87381689587937 6.99295969133009 2.100000000000039
vertex 6.923815942206325 8.792959691330827 0.9874998688698146
vertex 7.6738161329403685 6.9929596913305145 2.100000000000039
endloop
endfacet
facet normal 1.867014270827321e-13 0.5257444319282396 0.8506425761131716
outer loop
vertex 7.6738161329403685 6.9929596913305145 2.100000000000039
vertex 6.923815942206325 8.792959691330827 0.9874998688698146
vertex 6.873815942206324 8.792959691330848 0.9874998688698134
endloop
endfacet
facet normal -1.0 3.548168023544519e-13 0.0
outer loop
vertex 8.873816895877525 1.7929595959626536 2.100000000000039
vertex 8.87381689587937 6.99295969133009 2.4874998688697842
vertex 8.87381689587937 6.99295969133009 2.100000000000039
endloop
endfacet
facet normal -1.0 3.548168023544519e-13 0.0
outer loop
vertex 8.87381689587937 6.99295969133009 2.4874998688697842
vertex 8.873816895877525 1.7929595959626536 2.100000000000039
vertex 8.87381689587763 2.092959595962655 2.4874998688697842
endloop
endfacet
facet normal -1.0 3.548168023544519e-13 0.0
outer loop
vertex 8.87381689587763 2.092959595962655 2.4874998688697842
vertex 8.873816895877525 1.7929595959626536 2.100000000000039
vertex 8.873816895877525 1.7929595959626536 2.3374998450279314
endloop
endfacet
facet normal -0.9138116923690793 0.4061381426184435 -2.1409427695044888e-15
outer loop
vertex 9.673816132940829 8.792959691329854 0.9874998688698134
vertex 8.87381689587937 6.99295969133009 2.4874998688697842
vertex 9.673816132940829 8.792959691329862 2.4874998688697842
endloop
endfacet
facet normal -0.9138116923690793 0.4061381426184435 -2.1409427695044888e-15
outer loop
vertex 8.87381689587937 6.99295969133009 2.4874998688697842
vertex 9.673816132940829 8.792959691329854 0.9874998688698134
vertex 8.87381689587937 6.99295969133009 2.100000000000039
endloop
endfacet
facet normal 1.0 -3.548168023544519e-13 0.0
outer loop
vertex 7.673816132938629 2.0929595959630793 2.4874998688697842
vertex 7.6738161329403685 6.9929596913305145 2.100000000000039
vertex 7.6738161329403685 6.9929596913305145 2.4874998688697842
endloop
endfacet
facet normal 1.0 -3.548168023544519e-13 0.0
outer loop
vertex 7.6738161329403685 6.9929596913305145 2.100000000000039
vertex 7.673816132938629 2.0929595959630793 2.4874998688697842
vertex 7.673816132938524 1.7929595959630782 2.100000000000039
endloop
endfacet
facet normal 1.0 -3.548168023544519e-13 0.0
outer loop
vertex 7.673816132938524 1.7929595959630782 2.100000000000039
vertex 7.673816132938629 2.0929595959630793 2.4874998688697842
vertex 7.673816132938524 1.7929595959630782 2.3374998450279314
endloop
endfacet
facet normal 0.9138115126831682 0.40613854691188805 2.4188093341822904e-14
outer loop
vertex 7.6738161329403685 6.9929596913305145 2.4874998688697842
vertex 6.873815942206324 8.792959691330848 0.9874998688698134
vertex 6.873815942206278 8.792959691330855 2.4874998688697842
endloop
endfacet
facet normal 0.9138115126831682 0.40613854691188805 2.4188093341822904e-14
outer loop
vertex 6.873815942206324 8.792959691330848 0.9874998688698134
vertex 7.6738161329403685 6.9929596913305145 2.4874998688697842
vertex 7.6738161329403685 6.9929596913305145 2.100000000000039
endloop
endfacet
facet normal 0.49363127213406754 -0.4936312721343821 -0.7160002334792174
outer loop
vertex 17.37381651440766 0.6429596913271307 0.4874998688697857
vertex 17.373816514407864 1.3500664725136602 9.475087381360936e-16
vertex 17.873816514407796 1.1429596913269506 0.4874998688697828
endloop
endfacet
facet normal 0.49363127213406754 -0.4936312721343821 -0.7160002334792174
outer loop
vertex 17.373816514407864 1.3500664725136602 9.475087381360936e-16
vertex 17.37381651440766 0.6429596913271307 0.4874998688697857
vertex 17.020263123814495 0.9965130819205124 3.383959779057477e-15
endloop
endfacet
facet normal -2.4769787244758834e-13 -0.6981000398637052 -0.7160002334792169
outer loop
vertex 6.673816514407814 0.1429596913309233 0.4874998688697857
vertex 16.666709564633692 0.6429596913273762 3.383959779057477e-15
vertex 16.8738162759889 0.14295969132730504 0.4874998688697857
endloop
endfacet
facet normal -2.4769787244758834e-13 -0.6981000398637052 -0.7160002334792169
outer loop
vertex 16.666709564633692 0.6429596913273762 3.383959779057477e-15
vertex 6.673816514407814 0.1429596913309233 0.4874998688697857
vertex 6.880923295594424 0.64295969133085 3.383959779057477e-15
endloop
endfacet
facet normal -0.4936312721344181 -0.49363127213403024 -0.7160002334792183
outer loop
vertex 6.173816514407574 0.642959691331107 0.4874998688697857
vertex 6.1738165144078705 1.3500664725176392 9.475087381360936e-16
vertex 6.527369905000829 0.9965130819243991 3.383959779057477e-15
endloop
endfacet
facet normal -0.4936312721344181 -0.49363127213403024 -0.7160002334792183
outer loop
vertex 6.1738165144078705 1.3500664725176392 9.475087381360936e-16
vertex 6.173816514407574 0.642959691331107 0.4874998688697857
vertex 5.673816514407794 1.142959691331282 0.4874998688697828
endloop
endfacet
facet normal -0.49363127213419394 -0.49363127213425256 -0.7160002334792196
outer loop
vertex 6.673816514407814 0.1429596913309233 0.4874998688697857
vertex 6.527369905000829 0.9965130819243991 3.383959779057477e-15
vertex 6.880923295594424 0.64295969133085 3.383959779057477e-15
endloop
endfacet
facet normal -0.49363127213419394 -0.49363127213425256 -0.7160002334792196
outer loop
vertex 6.527369905000829 0.9965130819243991 3.383959779057477e-15
vertex 6.673816514407814 0.1429596913309233 0.4874998688697857
vertex 6.173816514407574 0.642959691331107 0.4874998688697857
endloop
endfacet
facet normal -0.6981000398637032 2.47668311371808e-13 -0.716000233479219
outer loop
vertex 5.673816514407794 1.142959691331282 0.4874998688697828
vertex 6.1738165144117545 12.292959929749692 0.0
vertex 6.1738165144078705 1.3500664725176392 9.475087381360936e-16
endloop
endfacet
facet normal -0.6981000398637032 2.47668311371808e-13 -0.716000233479219
outer loop
vertex 6.1738165144117545 12.292959929749692 0.0
vertex 5.673816514407794 1.142959691331282 0.4874998688697828
vertex 5.673816514411574 11.79295992974987 0.4874998688697828
endloop
endfacet
facet normal -2.462284260709327e-13 -0.6981000398637038 -0.7160002334792184
outer loop
vertex 17.873816514411573 11.79295992974554 0.4874998688697828
vertex 18.773816395202463 12.292959929745223 2.7974067506875144e-15
vertex 19.273816395202285 11.792959929745045 0.4874998688697857
endloop
endfacet
facet normal -2.462284260709327e-13 -0.6981000398637038 -0.7160002334792184
outer loop
vertex 18.773816395202463 12.292959929745223 2.7974067506875144e-15
vertex 17.873816514411573 11.79295992974554 0.4874998688697828
vertex 17.37381651441175 12.292959929745718 0.0
endloop
endfacet
facet normal 0.6981000398637031 -2.47729763457638e-13 -0.716000233479219
outer loop
vertex 17.373816514407864 1.3500664725136602 9.475087381360936e-16
vertex 17.873816514411573 11.79295992974554 0.4874998688697828
vertex 17.873816514407796 1.1429596913269506 0.4874998688697828
endloop
endfacet
facet normal 0.6981000398637031 -2.47729763457638e-13 -0.716000233479219
outer loop
vertex 17.873816514411573 11.79295992974554 0.4874998688697828
vertex 17.373816514407864 1.3500664725136602 9.475087381360936e-16
vertex 17.37381651441175 12.292959929745718 0.0
endloop
endfacet
facet normal 2.4769762386795525e-13 0.6981000398637052 -0.7160002334792172
outer loop
vertex 18.77381639520601 22.29295969132664 6.31672492090729e-16
vertex 4.27381639520646 22.792959691331784 0.4874998688697828
vertex 19.27381639520619 22.792959691326462 0.4874998688697828
endloop
endfacet
facet normal 2.4769762386795525e-13 0.6981000398637052 -0.7160002334792172
outer loop
vertex 4.27381639520646 22.792959691331784 0.4874998688697828
vertex 18.77381639520601 22.29295969132664 6.31672492090729e-16
vertex 4.773816395206283 22.29295969133161 6.31672492090729e-16
endloop
endfacet
facet normal 0.4936311544431974 -0.4936313898252316 -0.7160002334792123
outer loop
vertex 16.8738162759889 0.14295969132730504 0.4874998688697857
vertex 17.020263123814495 0.9965130819205124 3.383959779057477e-15
vertex 17.37381651440766 0.6429596913271307 0.4874998688697857
endloop
endfacet
facet normal 0.4936311544431974 -0.4936313898252316 -0.7160002334792123
outer loop
vertex 17.020263123814495 0.9965130819205124 3.383959779057477e-15
vertex 16.8738162759889 0.14295969132730504 0.4874998688697857
vertex 16.666709564633692 0.6429596913273762 3.383959779057477e-15
endloop
endfacet
facet normal 0.6981000398637033 -2.4787066494335603e-13 -0.7160002334792188
outer loop
vertex 18.773816395202463 12.292959929745223 2.7974067506875144e-15
vertex 19.27381639520619 22.792959691326462 0.4874998688697828
vertex 19.273816395202285 11.792959929745045 0.4874998688697857
endloop
endfacet
facet normal 0.6981000398637033 -2.4787066494335603e-13 -0.7160002334792188
outer loop
vertex 19.27381639520619 22.792959691326462 0.4874998688697828
vertex 18.773816395202463 12.292959929745223 2.7974067506875144e-15
vertex 18.77381639520601 22.29295969132664 6.31672492090729e-16
endloop
endfacet
facet normal -0.6981000398637033 2.4752268176454e-13 -0.7160002334792188
outer loop
vertex 4.273816395202556 11.792959929750365 0.4874998688697857
vertex 4.773816395206283 22.29295969133161 6.31672492090729e-16
vertex 4.773816395202736 12.29295992975019 2.7974067506875144e-15
endloop
endfacet
facet normal -0.6981000398637033 2.4752268176454e-13 -0.7160002334792188
outer loop
vertex 4.773816395206283 22.29295969133161 6.31672492090729e-16
vertex 4.273816395202556 11.792959929750365 0.4874998688697857
vertex 4.27381639520646 22.792959691331784 0.4874998688697828
endloop
endfacet
facet normal -2.49131418820075e-13 -0.6981000398637038 -0.7160002334792183
outer loop
vertex 5.673816514411574 11.79295992974987 0.4874998688697828
vertex 4.773816395202736 12.29295992975019 2.7974067506875144e-15
vertex 6.1738165144117545 12.292959929749692 0.0
endloop
endfacet
facet normal -2.49131418820075e-13 -0.6981000398637038 -0.7160002334792183
outer loop
vertex 4.773816395202736 12.29295992975019 2.7974067506875144e-15
vertex 5.673816514411574 11.79295992974987 0.4874998688697828
vertex 4.273816395202556 11.792959929750365 0.4874998688697857
endloop
endfacet
facet normal 1.4438228390645498e-14 -5.098110659410695e-27 1.0
outer loop
vertex 4.273816395205926 21.292959713006184 4.400000000000213
vertex 19.273816395205305 20.292959734675293 4.399999999999996
vertex 19.273816395205657 21.29295971300088 4.399999999999996
endloop
endfacet
facet normal 1.4438228390645498e-14 -5.098110659410695e-27 1.0
outer loop
vertex 19.273816395205305 20.292959734675293 4.399999999999996
vertex 4.273816395205926 21.292959713006184 4.400000000000213
vertex 4.273816395205573 20.292959734680597 4.400000000000213
endloop
endfacet
facet normal 1.443822839064551e-14 -5.125460932600783e-27 1.0
outer loop
vertex 4.273816395204874 18.292959778029495 4.400000000000213
vertex 19.27381639520424 17.292959799698544 4.399999999999996
vertex 19.273816395204594 18.29295977802413 4.399999999999996
endloop
endfacet
facet normal 1.443822839064551e-14 -5.125460932600783e-27 1.0
outer loop
vertex 19.27381639520424 17.292959799698544 4.399999999999996
vertex 4.273816395204874 18.292959778029495 4.400000000000213
vertex 4.273816395204519 17.292959799703908 4.400000000000213
endloop
endfacet
facet normal 1.443822839064552e-14 -5.155679649076556e-27 1.0
outer loop
vertex 4.273816395203809 15.29295984305283 4.400000000000213
vertex 19.27381639520315 14.292959864721793 4.399999999999996
vertex 19.273816395203518 15.29295984304738 4.399999999999996
endloop
endfacet
facet normal 1.443822839064552e-14 -5.155679649076556e-27 1.0
outer loop
vertex 19.27381639520315 14.292959864721793 4.399999999999996
vertex 4.273816395203809 15.29295984305283 4.400000000000213
vertex 4.273816395203454 14.292959864727244 4.400000000000213
endloop
endfacet
facet normal 1.0 -3.534045956386305e-13 -1.388089079491819e-15
outer loop
vertex 19.273816395205657 21.29295971300088 4.399999999999996
vertex 19.273816395206143 22.792959691326462 3.150000035762787
vertex 19.27381639520619 22.792959691326462 4.400000000000001
endloop
endfacet
facet normal 1.0 -3.534045956386305e-13 -1.388089079491819e-15
outer loop
vertex 19.273816395206143 22.792959691326462 3.150000035762787
vertex 19.273816395205657 21.29295971300088 4.399999999999996
vertex 19.273816395206143 22.792959691326462 1.5499999642372113
endloop
endfacet
facet normal 1.0 -3.534045956386305e-13 -1.388089079491819e-15
outer loop
vertex 19.273816395206143 22.792959691326462 1.5499999642372113
vertex 19.273816395205657 21.29295971300088 4.399999999999996
vertex 19.27381639520619 22.792959691326462 0.4874998688697828
endloop
endfacet
facet normal 1.0 -3.534045956386305e-13 -1.388089079491819e-15
outer loop
vertex 19.27381639520619 22.792959691326462 0.4874998688697828
vertex 19.273816395205657 21.29295971300088 4.399999999999996
vertex 19.273816395202285 11.792959929745045 0.4874998688697857
endloop
endfacet
facet normal 1.0 -3.534045956386305e-13 -1.388089079491819e-15
outer loop
vertex 19.273816395202285 11.792959929745045 0.4874998688697857
vertex 19.273816395205657 21.29295971300088 4.399999999999996
vertex 19.273816395205305 20.292959734675293 4.399999999999996
endloop
endfacet
facet normal 1.0 -3.534045956386305e-13 -1.388089079491819e-15
outer loop
vertex 19.273816395202285 11.792959929745045 0.4874998688697857
vertex 19.273816395205305 20.292959734675293 4.399999999999996
vertex 19.273816395204594 18.29295977802413 4.399999999999996
endloop
endfacet
facet normal 1.0 -3.534045956386305e-13 -1.388089079491819e-15
outer loop
vertex 19.273816395202285 11.792959929745045 0.4874998688697857
vertex 19.273816395204594 18.29295977802413 4.399999999999996
vertex 19.27381639520424 17.292959799698544 4.399999999999996
endloop
endfacet
facet normal 1.0 -3.534045956386305e-13 -1.388089079491819e-15
outer loop
vertex 19.273816395202285 11.792959929745045 0.4874998688697857
vertex 19.27381639520424 17.292959799698544 4.399999999999996
vertex 19.273816395203518 15.29295984304738 4.399999999999996
endloop
endfacet
facet normal 1.0 -3.534045956386305e-13 -1.388089079491819e-15
outer loop
vertex 19.273816395202285 11.792959929745045 0.4874998688697857
vertex 19.273816395203518 15.29295984304738 4.399999999999996
vertex 19.27381639520315 14.292959864721793 4.399999999999996
endloop
endfacet
facet normal 1.0 -3.534045956386305e-13 -1.388089079491819e-15
outer loop
vertex 19.273816395202285 11.792959929745045 0.4874998688697857
vertex 19.27381639520315 14.292959864721793 4.399999999999996
vertex 19.273816395202285 11.792959929745045 4.400000000000004
endloop
endfacet
facet normal -1.0 3.5398981333007825e-13 1.9244050641972005e-15
outer loop
vertex 4.273816395202556 11.792959929750365 0.4874998688697857
vertex 4.27381639520646 22.792959691331784 4.400000000000001
vertex 4.27381639520646 22.792959691331784 0.4874998688697828
endloop
endfacet
facet normal -1.0 3.5398981333007825e-13 1.9244050641972005e-15
outer loop
vertex 4.27381639520646 22.792959691331784 4.400000000000001
vertex 4.273816395202556 11.792959929750365 0.4874998688697857
vertex 4.273816395205926 21.292959713006184 4.400000000000213
endloop
endfacet
facet normal -1.0 3.5398981333007825e-13 1.9244050641972005e-15
outer loop
vertex 4.273816395205926 21.292959713006184 4.400000000000213
vertex 4.273816395202556 11.792959929750365 0.4874998688697857
vertex 4.273816395205573 20.292959734680597 4.400000000000213
endloop
endfacet
facet normal -1.0 3.5398981333007825e-13 1.9244050641972005e-15
outer loop
vertex 4.273816395205573 20.292959734680597 4.400000000000213
vertex 4.273816395202556 11.792959929750365 0.4874998688697857
vertex 4.273816395204874 18.292959778029495 4.400000000000213
endloop
endfacet
facet normal -1.0 3.5398981333007825e-13 1.9244050641972005e-15
outer loop
vertex 4.273816395204874 18.292959778029495 4.400000000000213
vertex 4.273816395202556 11.792959929750365 0.4874998688697857
vertex 4.273816395204519 17.292959799703908 4.400000000000213
endloop
endfacet
facet normal -1.0 3.5398981333007825e-13 1.9244050641972005e-15
outer loop
vertex 4.273816395204519 17.292959799703908 4.400000000000213
vertex 4.273816395202556 11.792959929750365 0.4874998688697857
vertex 4.273816395203809 15.29295984305283 4.400000000000213
endloop
endfacet
facet normal -1.0 3.5398981333007825e-13 1.9244050641972005e-15
outer loop
vertex 4.273816395203809 15.29295984305283 4.400000000000213
vertex 4.273816395202556 11.792959929750365 0.4874998688697857
vertex 4.273816395203454 14.292959864727244 4.400000000000213
endloop
endfacet
facet normal -1.0 3.5398981333007825e-13 1.9244050641972005e-15
outer loop
vertex 4.273816395203454 14.292959864727244 4.400000000000213
vertex 4.273816395202556 11.792959929750365 0.4874998688697857
vertex 4.273816395202568 11.792959929750365 4.400000000000004
endloop
endfacet
facet normal 7.219114195338097e-15 4.331468651310617e-14 1.0
outer loop
vertex 4.67381639520632 22.39295969133164 4.8000000000000576
vertex 18.8738163952058 21.692959713001024 4.799999999999986
vertex 18.87381639520605 22.392959691326602 4.800000000000018
endloop
endfacet
facet normal 7.219114195338097e-15 4.331468651310617e-14 1.0
outer loop
vertex 18.8738163952058 21.692959713001024 4.799999999999986
vertex 4.67381639520632 22.39295969133164 4.8000000000000576
vertex 4.673816395206071 21.692959713006044 4.80000000000015
endloop
endfacet
facet normal 1.443822839064553e-14 -5.05543051908653e-27 1.0
outer loop
vertex 4.673816395205442 19.892959734680456 4.800000000000207
vertex 18.873816395204734 18.692959778024274 4.800000000000002
vertex 18.873816395205157 19.892959734675433 4.800000000000002
endloop
endfacet
facet normal 1.443822839064553e-14 -5.05543051908653e-27 1.0
outer loop
vertex 18.873816395204734 18.692959778024274 4.800000000000002
vertex 4.673816395205442 19.892959734680456 4.800000000000207
vertex 4.673816395205029 18.692959778029355 4.800000000000207
endloop
endfacet
facet normal 1.4438228390645533e-14 -5.127002628334697e-27 1.0
outer loop
vertex 4.673816395204379 16.892959799703764 4.800000000000207
vertex 18.87381639520367 15.692959843047525 4.800000000000002
vertex 18.873816395204095 16.892959799698684 4.800000000000002
endloop
endfacet
facet normal 1.4438228390645533e-14 -5.127002628334697e-27 1.0
outer loop
vertex 18.87381639520367 15.692959843047525 4.800000000000002
vertex 4.673816395204379 16.892959799703764 4.800000000000207
vertex 4.673816395203952 15.692959843052686 4.800000000000207
endloop
endfacet
facet normal -1.0 3.548168023544519e-13 0.0
outer loop
vertex 5.673816514410508 8.792959691331287 4.400000000000001
vertex 5.673816514411574 11.79295992974987 4.400000000000001
vertex 5.673816514410508 8.792959691331287 2.487499868869783
endloop
endfacet
facet normal -1.0 3.548168023544519e-13 0.0
outer loop
vertex 5.673816514411574 11.79295992974987 0.4874998688697828
vertex 5.673816514410508 8.792959691331287 2.487499868869783
vertex 5.673816514411574 11.79295992974987 4.400000000000001
endloop
endfacet
facet normal -1.0 3.548168023544519e-13 0.0
outer loop
vertex 5.673816514410508 8.792959691331287 2.487499868869783
vertex 5.673816514411574 11.79295992974987 0.4874998688697828
vertex 5.673816514407794 1.142959691331282 0.4874998688697828
endloop
endfacet
facet normal -1.0 3.548168023544519e-13 0.0
outer loop
vertex 5.673816514410508 8.792959691331287 2.487499868869783
vertex 5.673816514407794 1.142959691331282 0.4874998688697828
vertex 5.673816514407794 1.1429596913312792 2.487499868869783
endloop
endfacet
facet normal -3.548168023395456e-13 -1.0 1.918636800983041e-16
outer loop
vertex 13.923816419043282 8.792959691328349 3.712500131130249
vertex 13.873816419043282 8.792959691328372 2.4874998688697842
vertex 13.923816419043282 8.792959691328353 2.4874998688697842
endloop
endfacet
facet normal -3.548168023395456e-13 -1.0 1.918636800983041e-16
outer loop
vertex 13.873816419043282 8.792959691328372 2.4874998688697842
vertex 13.923816419043282 8.792959691328349 3.712500131130249
vertex 9.673816132940829 8.792959691329862 2.4874998688697842
endloop
endfacet
facet normal -3.548168023395456e-13 -1.0 1.918636800983041e-16
outer loop
vertex 9.673816132940829 8.792959691329862 2.4874998688697842
vertex 13.923816419043282 8.792959691328349 3.712500131130249
vertex 9.62381613294083 8.79295969132988 2.4874998688697842
endloop
endfacet
facet normal -3.548168023395456e-13 -1.0 1.918636800983041e-16
outer loop
vertex 9.62381613294083 8.79295969132988 2.4874998688697842
vertex 13.923816419043282 8.792959691328349 3.712500131130249
vertex 9.62381613294083 8.792959691329877 3.7125001311302475
endloop
endfacet
facet normal -3.548168023395456e-13 -1.0 1.918636800983041e-16
outer loop
vertex 9.62381613294083 8.792959691329877 3.7125001311302475
vertex 13.923816419043282 8.792959691328349 3.712500131130249
vertex 6.923815942206279 8.792959691330832 3.712500131130248
endloop
endfacet
facet normal -3.548168023395456e-13 -1.0 1.918636800983041e-16
outer loop
vertex 17.873816514410507 8.792959691326958 4.400000000000001
vertex 16.673816609778203 8.792959691327377 2.487499868869784
vertex 17.873816514410507 8.792959691326958 2.487499868869783
endloop
endfacet
facet normal -3.548168023395456e-13 -1.0 1.918636800983041e-16
outer loop
vertex 16.673816609778203 8.792959691327377 2.487499868869784
vertex 17.873816514410507 8.792959691326958 4.400000000000001
vertex 16.623816609778203 8.792959691327397 2.487499868869784
endloop
endfacet
facet normal -3.548168023395456e-13 -1.0 1.918636800983041e-16
outer loop
vertex 16.623816609778203 8.792959691327397 2.487499868869784
vertex 17.873816514410507 8.792959691326958 4.400000000000001
vertex 16.623816609778203 8.792959691327393 3.712500131130249
endloop
endfacet
facet normal -3.548168023395456e-13 -1.0 1.918636800983041e-16
outer loop
vertex 16.623816609778203 8.792959691327393 3.712500131130249
vertex 17.873816514410507 8.792959691326958 4.400000000000001
vertex 13.923816419043282 8.792959691328349 3.712500131130249
endloop
endfacet
facet normal -3.548168023395456e-13 -1.0 1.918636800983041e-16
outer loop
vertex 6.873815942206278 8.792959691330855 2.4874998688697842
vertex 5.673816514410508 8.792959691331287 4.400000000000001
vertex 5.673816514410508 8.792959691331287 2.487499868869783
endloop
endfacet
facet normal -3.548168023395456e-13 -1.0 1.918636800983041e-16
outer loop
vertex 5.673816514410508 8.792959691331287 4.400000000000001
vertex 6.873815942206278 8.792959691330855 2.4874998688697842
vertex 6.923815942206279 8.792959691330836 2.487499868869785
endloop
endfacet
facet normal -3.548168023395456e-13 -1.0 1.918636800983041e-16
outer loop
vertex 5.673816514410508 8.792959691331287 4.400000000000001
vertex 6.923815942206279 8.792959691330836 2.487499868869785
vertex 6.923815942206279 8.792959691330832 3.712500131130248
endloop
endfacet
facet normal -3.548168023395456e-13 -1.0 1.918636800983041e-16
outer loop
vertex 5.673816514410508 8.792959691331287 4.400000000000001
vertex 6.923815942206279 8.792959691330832 3.712500131130248
vertex 13.923816419043282 8.792959691328349 3.712500131130249
endloop
endfacet
facet normal -3.548168023395456e-13 -1.0 1.918636800983041e-16
outer loop
vertex 5.673816514410508 8.792959691331287 4.400000000000001
vertex 13.923816419043282 8.792959691328349 3.712500131130249
vertex 17.873816514410507 8.792959691326958 4.400000000000001
endloop
endfacet
facet normal 1.0 -3.548168023544519e-13 0.0
outer loop
vertex 17.873816514410507 8.792959691326958 4.400000000000001
vertex 17.873816514411573 11.79295992974554 0.4874998688697828
vertex 17.873816514411573 11.79295992974554 4.400000000000001
endloop
endfacet
facet normal 1.0 -3.548168023544519e-13 0.0
outer loop
vertex 17.873816514411573 11.79295992974554 0.4874998688697828
vertex 17.873816514410507 8.792959691326958 4.400000000000001
vertex 17.873816514410507 8.792959691326958 2.487499868869783
endloop
endfacet
facet normal 1.0 -3.548168023544519e-13 0.0
outer loop
vertex 17.873816514411573 11.79295992974554 0.4874998688697828
vertex 17.873816514410507 8.792959691326958 2.487499868869783
vertex 17.873816514407796 1.1429596913269506 0.4874998688697828
endloop
endfacet
facet normal 1.0 -3.548168023544519e-13 0.0
outer loop
vertex 17.873816514407796 1.1429596913269506 0.4874998688697828
vertex 17.873816514410507 8.792959691326958 2.487499868869783
vertex 17.873816514407796 1.1429596913269506 2.487499868869783
endloop
endfacet
facet normal 4.402005105691906e-15 -1.5818467526909497e-14 1.0
outer loop
vertex 18.873816395203008 13.892959864721938 4.799999999999995
vertex 17.473816514411713 12.192959929745683 4.800000000000006
vertex 18.873816395202425 12.192959929745186 4.800000000000008
endloop
endfacet
facet normal 4.402005105691906e-15 -1.5818467526909497e-14 1.0
outer loop
vertex 17.473816514411713 12.192959929745683 4.800000000000006
vertex 18.873816395203008 13.892959864721938 4.799999999999995
vertex 4.673816395203314 13.892959864727098 4.800000000000191
endloop
endfacet
facet normal 4.402005105691906e-15 -1.5818467526909497e-14 1.0
outer loop
vertex 17.473816514411713 12.192959929745683 4.800000000000006
vertex 4.673816395203314 13.892959864727098 4.800000000000191
vertex 17.47381651441065 9.1929596913271 4.800000000000006
endloop
endfacet
facet normal 4.402005105691906e-15 -1.5818467526909497e-14 1.0
outer loop
vertex 17.47381651441065 9.1929596913271 4.800000000000006
vertex 4.673816395203314 13.892959864727098 4.800000000000191
vertex 6.073816514411717 12.192959929749728 4.800000000000004
endloop
endfacet
facet normal 4.402005105691906e-15 -1.5818467526909497e-14 1.0
outer loop
vertex 6.073816514411717 12.192959929749728 4.800000000000004
vertex 4.673816395203314 13.892959864727098 4.800000000000191
vertex 4.67381639520271 12.192959929750225 4.800000000000021
endloop
endfacet
facet normal 4.402005105691906e-15 -1.5818467526909497e-14 1.0
outer loop
vertex 6.073816514410654 9.192959691331147 4.800000000000004
vertex 17.47381651441065 9.1929596913271 4.800000000000006
vertex 6.073816514411717 12.192959929749728 4.800000000000004
endloop
endfacet
facet normal -0.7071067811865437 3.4917866968147234e-13 0.7071067811865513
outer loop
vertex 4.27381639520646 22.792959691331784 4.400000000000001
vertex 4.673816395206071 21.692959713006044 4.80000000000015
vertex 4.67381639520632 22.39295969133164 4.8000000000000576
endloop
endfacet
facet normal -0.7071067811865437 3.4917866968147234e-13 0.7071067811865513
outer loop
vertex 4.673816395206071 21.692959713006044 4.80000000000015
vertex 4.27381639520646 22.792959691331784 4.400000000000001
vertex 4.273816395205926 21.292959713006184 4.400000000000213
endloop
endfacet
facet normal -2.4271169761840813e-13 -0.707106781186545 0.7071067811865501
outer loop
vertex 18.873816395204734 18.692959778024274 4.800000000000002
vertex 4.273816395204874 18.292959778029495 4.400000000000213
vertex 19.273816395204594 18.29295977802413 4.399999999999996
endloop
endfacet
facet normal -2.4271169761840813e-13 -0.707106781186545 0.7071067811865501
outer loop
vertex 4.273816395204874 18.292959778029495 4.400000000000213
vertex 18.873816395204734 18.692959778024274 4.800000000000002
vertex 4.673816395205029 18.692959778029355 4.800000000000207
endloop
endfacet
facet normal -2.4079586631820187e-13 -0.7071067811865144 0.7071067811865807
outer loop
vertex 18.8738163952058 21.692959713001024 4.799999999999986
vertex 4.273816395205926 21.292959713006184 4.400000000000213
vertex 19.273816395205657 21.29295971300088 4.399999999999996
endloop
endfacet
facet normal -2.4079586631820187e-13 -0.7071067811865144 0.7071067811865807
outer loop
vertex 4.273816395205926 21.292959713006184 4.400000000000213
vertex 18.8738163952058 21.692959713001024 4.799999999999986
vertex 4.673816395206071 21.692959713006044 4.80000000000015
endloop
endfacet
facet normal 2.5184544765467986e-13 0.7071067811865782 0.7071067811865169
outer loop
vertex 4.67381639520632 22.39295969133164 4.8000000000000576
vertex 19.27381639520619 22.792959691326462 4.400000000000001
vertex 4.27381639520646 22.792959691331784 4.400000000000001
endloop
endfacet
facet normal 2.5184544765467986e-13 0.7071067811865782 0.7071067811865169
outer loop
vertex 19.27381639520619 22.792959691326462 4.400000000000001
vertex 4.67381639520632 22.39295969133164 4.8000000000000576
vertex 18.87381639520605 22.392959691326602 4.800000000000018
endloop
endfacet
facet normal 0.7071067811865539 -2.523996994714237e-13 0.7071067811865411
outer loop
vertex 18.873816395205157 19.892959734675433 4.800000000000002
vertex 19.273816395204594 18.29295977802413 4.399999999999996
vertex 19.273816395205305 20.292959734675293 4.399999999999996
endloop
endfacet
facet normal 0.7071067811865539 -2.523996994714237e-13 0.7071067811865411
outer loop
vertex 19.273816395204594 18.29295977802413 4.399999999999996
vertex 18.873816395205157 19.892959734675433 4.800000000000002
vertex 18.873816395204734 18.692959778024274 4.800000000000002
endloop
endfacet
facet normal 2.6026538034354623e-13 0.7071067811865462 0.7071067811865488
outer loop
vertex 4.273816395205573 20.292959734680597 4.400000000000213
vertex 18.873816395205157 19.892959734675433 4.800000000000002
vertex 19.273816395205305 20.292959734675293 4.399999999999996
endloop
endfacet
facet normal 2.6026538034354623e-13 0.7071067811865462 0.7071067811865488
outer loop
vertex 18.873816395205157 19.892959734675433 4.800000000000002
vertex 4.273816395205573 20.292959734680597 4.400000000000213
vertex 4.673816395205442 19.892959734680456 4.800000000000207
endloop
endfacet
facet normal 0.7071067811865539 -2.52390165721755e-13 0.7071067811865411
outer loop
vertex 18.873816395204095 16.892959799698684 4.800000000000002
vertex 19.273816395203518 15.29295984304738 4.399999999999996
vertex 19.27381639520424 17.292959799698544 4.399999999999996
endloop
endfacet
facet normal 0.7071067811865539 -2.52390165721755e-13 0.7071067811865411
outer loop
vertex 19.273816395203518 15.29295984304738 4.399999999999996
vertex 18.873816395204095 16.892959799698684 4.800000000000002
vertex 18.87381639520367 15.692959843047525 4.800000000000002
endloop
endfacet
facet normal 2.6313134726825383e-13 0.7071067811865449 0.7071067811865501
outer loop
vertex 4.273816395204519 17.292959799703908 4.400000000000213
vertex 18.873816395204095 16.892959799698684 4.800000000000002
vertex 19.27381639520424 17.292959799698544 4.399999999999996
endloop
endfacet
facet normal 2.6313134726825383e-13 0.7071067811865449 0.7071067811865501
outer loop
vertex 18.873816395204095 16.892959799698684 4.800000000000002
vertex 4.273816395204519 17.292959799703908 4.400000000000213
vertex 4.673816395204379 16.892959799703764 4.800000000000207
endloop
endfacet
facet normal 0.7071067811865513 -2.611051957736577e-13 0.7071067811865437
outer loop
vertex 18.87381639520605 22.392959691326602 4.800000000000018
vertex 19.273816395205657 21.29295971300088 4.399999999999996
vertex 19.27381639520619 22.792959691326462 4.400000000000001
endloop
endfacet
facet normal 0.7071067811865513 -2.611051957736577e-13 0.7071067811865437
outer loop
vertex 19.273816395205657 21.29295971300088 4.399999999999996
vertex 18.87381639520605 22.392959691326602 4.800000000000018
vertex 18.8738163952058 21.692959713001024 4.799999999999986
endloop
endfacet
facet normal -2.46767035954355e-13 -0.7071067811865476 0.7071067811865476
outer loop
vertex 18.87381639520367 15.692959843047525 4.800000000000002
vertex 4.273816395203809 15.29295984305283 4.400000000000213
vertex 19.273816395203518 15.29295984304738 4.399999999999996
endloop
endfacet
facet normal -2.46767035954355e-13 -0.7071067811865476 0.7071067811865476
outer loop
vertex 4.273816395203809 15.29295984305283 4.400000000000213
vertex 18.87381639520367 15.692959843047525 4.800000000000002
vertex 4.673816395203952 15.692959843052686 4.800000000000207
endloop
endfacet
facet normal -0.7071067811865412 2.509029007734264e-13 0.7071067811865539
outer loop
vertex 4.273816395204519 17.292959799703908 4.400000000000213
vertex 4.673816395203952 15.692959843052686 4.800000000000207
vertex 4.673816395204379 16.892959799703764 4.800000000000207
endloop
endfacet
facet normal -0.7071067811865412 2.509029007734264e-13 0.7071067811865539
outer loop
vertex 4.673816395203952 15.692959843052686 4.800000000000207
vertex 4.273816395204519 17.292959799703908 4.400000000000213
vertex 4.273816395203809 15.29295984305283 4.400000000000213
endloop
endfacet
facet normal 2.6694842232067055e-13 0.707106781186538 0.7071067811865571
outer loop
vertex 4.273816395203454 14.292959864727244 4.400000000000213
vertex 18.873816395203008 13.892959864721938 4.799999999999995
vertex 19.27381639520315 14.292959864721793 4.399999999999996
endloop
endfacet
facet normal 2.6694842232067055e-13 0.707106781186538 0.7071067811865571
outer loop
vertex 18.873816395203008 13.892959864721938 4.799999999999995
vertex 4.273816395203454 14.292959864727244 4.400000000000213
vertex 4.673816395203314 13.892959864727098 4.800000000000191
endloop
endfacet
facet normal -0.7071067811865309 2.4608835719070683e-13 0.7071067811865642
outer loop
vertex 4.673816395205442 19.892959734680456 4.800000000000207
vertex 4.273816395204874 18.292959778029495 4.400000000000213
vertex 4.673816395205029 18.692959778029355 4.800000000000207
endloop
endfacet
facet normal -0.7071067811865309 2.4608835719070683e-13 0.7071067811865642
outer loop
vertex 4.273816395204874 18.292959778029495 4.400000000000213
vertex 4.673816395205442 19.892959734680456 4.800000000000207
vertex 4.273816395205573 20.292959734680597 4.400000000000213
endloop
endfacet
facet normal -2.521566649331424e-13 -0.7071067811865516 0.7071067811865435
outer loop
vertex 19.273816395202285 11.792959929745045 4.400000000000004
vertex 17.473816514411713 12.192959929745683 4.800000000000006
vertex 17.873816514411573 11.79295992974554 4.400000000000001
endloop
endfacet
facet normal -2.521566649331424e-13 -0.7071067811865516 0.7071067811865435
outer loop
vertex 17.473816514411713 12.192959929745683 4.800000000000006
vertex 19.273816395202285 11.792959929745045 4.400000000000004
vertex 18.873816395202425 12.192959929745186 4.800000000000008
endloop
endfacet
facet normal -2.5093503648360273e-13 -0.7071067811865507 0.7071067811865444
outer loop
vertex 17.47381651441065 9.1929596913271 4.800000000000006
vertex 5.673816514410508 8.792959691331287 4.400000000000001
vertex 17.873816514410507 8.792959691326958 4.400000000000001
endloop
endfacet
facet normal -2.5093503648360273e-13 -0.7071067811865507 0.7071067811865444
outer loop
vertex 5.673816514410508 8.792959691331287 4.400000000000001
vertex 17.47381651441065 9.1929596913271 4.800000000000006
vertex 6.073816514410654 9.192959691331147 4.800000000000004
endloop
endfacet
facet normal -2.459699211727658e-13 -0.7071067811865586 0.7071067811865365
outer loop
vertex 6.073816514411717 12.192959929749728 4.800000000000004
vertex 4.273816395202568 11.792959929750365 4.400000000000004
vertex 5.673816514411574 11.79295992974987 4.400000000000001
endloop
endfacet
facet normal -2.459699211727658e-13 -0.7071067811865586 0.7071067811865365
outer loop
vertex 4.273816395202568 11.792959929750365 4.400000000000004
vertex 6.073816514411717 12.192959929749728 4.800000000000004
vertex 4.67381639520271 12.192959929750225 4.800000000000021
endloop
endfacet
facet normal 0.70710678118655 -2.5089931552366985e-13 0.7071067811865451
outer loop
vertex 17.47381651441065 9.1929596913271 4.800000000000006
vertex 17.873816514411573 11.79295992974554 4.400000000000001
vertex 17.473816514411713 12.192959929745683 4.800000000000006
endloop
endfacet
facet normal 0.70710678118655 -2.5089931552366985e-13 0.7071067811865451
outer loop
vertex 17.873816514411573 11.79295992974554 4.400000000000001
vertex 17.47381651441065 9.1929596913271 4.800000000000006
vertex 17.873816514410507 8.792959691326958 4.400000000000001
endloop
endfacet
facet normal -0.7071067811865489 2.5089336702376037e-13 0.7071067811865462
outer loop
vertex 5.673816514411574 11.79295992974987 4.400000000000001
vertex 6.073816514410654 9.192959691331147 4.800000000000004
vertex 6.073816514411717 12.192959929749728 4.800000000000004
endloop
endfacet
facet normal -0.7071067811865489 2.5089336702376037e-13 0.7071067811865462
outer loop
vertex 6.073816514410654 9.192959691331147 4.800000000000004
vertex 5.673816514411574 11.79295992974987 4.400000000000001
vertex 5.673816514410508 8.792959691331287 4.400000000000001
endloop
endfacet
facet normal -0.707106781186544 1.8837333092408914e-13 0.7071067811865511
outer loop
vertex 4.273816395203454 14.292959864727244 4.400000000000213
vertex 4.67381639520271 12.192959929750225 4.800000000000021
vertex 4.673816395203314 13.892959864727098 4.800000000000191
endloop
endfacet
facet normal -0.707106781186544 1.8837333092408914e-13 0.7071067811865511
outer loop
vertex 4.67381639520271 12.192959929750225 4.800000000000021
vertex 4.273816395203454 14.292959864727244 4.400000000000213
vertex 4.273816395202568 11.792959929750365 4.400000000000004
endloop
endfacet
facet normal 0.7071067811865454 -2.4273364548524625e-13 0.7071067811865498
outer loop
vertex 19.27381639520315 14.292959864721793 4.399999999999996
vertex 18.873816395202425 12.192959929745186 4.800000000000008
vertex 19.273816395202285 11.792959929745045 4.400000000000004
endloop
endfacet
facet normal 0.7071067811865454 -2.4273364548524625e-13 0.7071067811865498
outer loop
vertex 18.873816395202425 12.192959929745186 4.800000000000008
vertex 19.27381639520315 14.292959864721793 4.399999999999996
vertex 18.873816395203008 13.892959864721938 4.799999999999995
endloop
endfacet
endsolid USB-OK
