solid OpenSCAD_Model
  facet normal 1 -0 0
    outer loop
      vertex 87 58.5 29
      vertex 87 60 28.85
      vertex 87 60 29
    endloop
  endfacet
  facet normal 1 0 0
    outer loop
      vertex 87 60 28.85
      vertex 87 58.5 29
      vertex 87 60 27.0287
    endloop
  endfacet
  facet normal 1 0 0
    outer loop
      vertex 87 60 27.0287
      vertex 87 58.5 29
      vertex 87 60 25.5
    endloop
  endfacet
  facet normal 1 0 0
    outer loop
      vertex 87 58.5 19
      vertex 87 60 25.5
      vertex 87 58.5 29
    endloop
  endfacet
  facet normal 1 0 0
    outer loop
      vertex 87 60 25.5
      vertex 87 58.5 19
      vertex 87 60 19
    endloop
  endfacet
  facet normal 1 0 0
    outer loop
      vertex 87 60.9107 27.9393
      vertex 87 60 28.85
      vertex 87 60 27.0287
    endloop
  endfacet
  facet normal 1 0 0
    outer loop
      vertex 87 1.5 28.85
      vertex 87 0.589339 27.9393
      vertex 87 1.5 27.0287
    endloop
  endfacet
  facet normal 1 0 0
    outer loop
      vertex 87 1.5 28.85
      vertex 87 3 29
      vertex 87 1.5 29
    endloop
  endfacet
  facet normal 1 0 0
    outer loop
      vertex 87 1.5 27.0287
      vertex 87 3 29
      vertex 87 1.5 28.85
    endloop
  endfacet
  facet normal 1 0 0
    outer loop
      vertex 87 3 29
      vertex 87 1.5 27.0287
      vertex 87 3 19
    endloop
  endfacet
  facet normal 1 0 0
    outer loop
      vertex 87 3 19
      vertex 87 1.5 27.0287
      vertex 87 1.5 19
    endloop
  endfacet
  facet normal 0 0 -1
    outer loop
      vertex 3 1.5 19
      vertex 87 3 19
      vertex 87 1.5 19
    endloop
  endfacet
  facet normal -0 0 -1
    outer loop
      vertex 87 3 19
      vertex 3 1.5 19
      vertex 3 3 19
    endloop
  endfacet
  facet normal 0 0 -1
    outer loop
      vertex 3 58.5 19
      vertex 87 60 19
      vertex 87 58.5 19
    endloop
  endfacet
  facet normal -0 0 -1
    outer loop
      vertex 87 60 19
      vertex 3 58.5 19
      vertex 3 60 19
    endloop
  endfacet
  facet normal -1 0 0
    outer loop
      vertex 3 58.5 19
      vertex 3 60 25.5
      vertex 3 60 19
    endloop
  endfacet
  facet normal -1 0 0
    outer loop
      vertex 3 58.5 29
      vertex 3 60 25.5
      vertex 3 58.5 19
    endloop
  endfacet
  facet normal -1 0 0
    outer loop
      vertex 3 60 25.5
      vertex 3 58.5 29
      vertex 3 60 27.0287
    endloop
  endfacet
  facet normal -1 0 0
    outer loop
      vertex 3 60 27.0287
      vertex 3 58.5 29
      vertex 3 60 28.85
    endloop
  endfacet
  facet normal -1 0 0
    outer loop
      vertex 3 60 28.85
      vertex 3 58.5 29
      vertex 3 60 29
    endloop
  endfacet
  facet normal -1 -0 0
    outer loop
      vertex 3 60.9107 27.9393
      vertex 3 60 27.0287
      vertex 3 60 28.85
    endloop
  endfacet
  facet normal -1 0 0
    outer loop
      vertex 3 1.5 27.0287
      vertex 3 0.589339 27.9393
      vertex 3 1.5 28.85
    endloop
  endfacet
  facet normal -1 0 0
    outer loop
      vertex 3 1.5 27.0287
      vertex 3 3 19
      vertex 3 1.5 19
    endloop
  endfacet
  facet normal -1 0 0
    outer loop
      vertex 3 3 19
      vertex 3 1.5 27.0287
      vertex 3 3 29
    endloop
  endfacet
  facet normal -1 0 0
    outer loop
      vertex 3 1.5 28.85
      vertex 3 3 29
      vertex 3 1.5 27.0287
    endloop
  endfacet
  facet normal -1 -0 0
    outer loop
      vertex 3 3 29
      vertex 3 1.5 28.85
      vertex 3 1.5 29
    endloop
  endfacet
  facet normal -0 0 1
    outer loop
      vertex 3 3 29
      vertex 87 1.5 29
      vertex 87 3 29
    endloop
  endfacet
  facet normal 0 0 1
    outer loop
      vertex 87 1.5 29
      vertex 3 3 29
      vertex 3 1.5 29
    endloop
  endfacet
  facet normal -0 0 1
    outer loop
      vertex 3 60 29
      vertex 87 58.5 29
      vertex 87 60 29
    endloop
  endfacet
  facet normal 0 0 1
    outer loop
      vertex 87 58.5 29
      vertex 3 60 29
      vertex 3 58.5 29
    endloop
  endfacet
  facet normal 0 -1 0
    outer loop
      vertex 3 1.5 19
      vertex 87 1.5 27.0287
      vertex 3 1.5 27.0287
    endloop
  endfacet
  facet normal 0 -1 -0
    outer loop
      vertex 87 1.5 27.0287
      vertex 3 1.5 19
      vertex 87 1.5 19
    endloop
  endfacet
  facet normal 0 -1 0
    outer loop
      vertex 3 1.5 28.85
      vertex 87 1.5 29
      vertex 3 1.5 29
    endloop
  endfacet
  facet normal 0 -1 -0
    outer loop
      vertex 87 1.5 29
      vertex 3 1.5 28.85
      vertex 87 1.5 28.85
    endloop
  endfacet
  facet normal 0 1 -0
    outer loop
      vertex 87 60 28.85
      vertex 3 60 29
      vertex 87 60 29
    endloop
  endfacet
  facet normal 0 1 0
    outer loop
      vertex 3 60 29
      vertex 87 60 28.85
      vertex 3 60 28.85
    endloop
  endfacet
  facet normal 0 1 -0
    outer loop
      vertex 87 60 25.5
      vertex 3 60 27.0287
      vertex 87 60 27.0287
    endloop
  endfacet
  facet normal 0 1 0
    outer loop
      vertex 3 60 27.0287
      vertex 87 60 25.5
      vertex 3 60 25.5
    endloop
  endfacet
  facet normal 0 1 -0
    outer loop
      vertex 87 3 19
      vertex 3 3 29
      vertex 87 3 29
    endloop
  endfacet
  facet normal 0 1 0
    outer loop
      vertex 3 3 29
      vertex 87 3 19
      vertex 3 3 19
    endloop
  endfacet
  facet normal 0 -1 0
    outer loop
      vertex 3 58.5 19
      vertex 87 58.5 29
      vertex 3 58.5 29
    endloop
  endfacet
  facet normal 0 -1 -0
    outer loop
      vertex 87 58.5 29
      vertex 3 58.5 19
      vertex 87 58.5 19
    endloop
  endfacet
  facet normal 0 -0.707107 -0.707106
    outer loop
      vertex 3 1.5 27.0287
      vertex 87 0.589339 27.9393
      vertex 3 0.589339 27.9393
    endloop
  endfacet
  facet normal 0 -0.707107 -0.707106
    outer loop
      vertex 87 0.589339 27.9393
      vertex 3 1.5 27.0287
      vertex 87 1.5 27.0287
    endloop
  endfacet
  facet normal 0 -0.707106 0.707107
    outer loop
      vertex 3 1.5 28.85
      vertex 87 0.589339 27.9393
      vertex 87 1.5 28.85
    endloop
  endfacet
  facet normal 0 -0.707106 0.707107
    outer loop
      vertex 87 0.589339 27.9393
      vertex 3 1.5 28.85
      vertex 3 0.589339 27.9393
    endloop
  endfacet
  facet normal 0 0.707107 -0.707107
    outer loop
      vertex 87 60 27.0287
      vertex 3 60.9107 27.9393
      vertex 87 60.9107 27.9393
    endloop
  endfacet
  facet normal 0 0.707107 -0.707107
    outer loop
      vertex 3 60.9107 27.9393
      vertex 87 60 27.0287
      vertex 3 60 27.0287
    endloop
  endfacet
  facet normal 0 0.707107 0.707107
    outer loop
      vertex 87 60.9107 27.9393
      vertex 3 60 28.85
      vertex 87 60 28.85
    endloop
  endfacet
  facet normal 0 0.707107 0.707107
    outer loop
      vertex 3 60 28.85
      vertex 87 60.9107 27.9393
      vertex 3 60.9107 27.9393
    endloop
  endfacet
  facet normal 0 1 -0
    outer loop
      vertex 89.26 40.5 25.5
      vertex 88.51 40.5 26.5
      vertex 89.26 40.5 26.5
    endloop
  endfacet
  facet normal 0 1 0
    outer loop
      vertex 88.51 40.5 26.5
      vertex 89.26 40.5 25.5
      vertex 88.51 40.5 25.5
    endloop
  endfacet
  facet normal 0 -1 0
    outer loop
      vertex 88.51 56.5 25.5
      vertex 89.26 56.5 26.5
      vertex 88.51 56.5 26.5
    endloop
  endfacet
  facet normal 0 -1 -0
    outer loop
      vertex 89.26 56.5 26.5
      vertex 88.51 56.5 25.5
      vertex 89.26 56.5 25.5
    endloop
  endfacet
  facet normal 0 1 -0
    outer loop
      vertex 89.26 22 25.5
      vertex 88.51 22 26.5
      vertex 89.26 22 26.5
    endloop
  endfacet
  facet normal 0 1 0
    outer loop
      vertex 88.51 22 26.5
      vertex 89.26 22 25.5
      vertex 88.51 22 25.5
    endloop
  endfacet
  facet normal 0 -1 0
    outer loop
      vertex 88.51 37.5 25.5
      vertex 89.26 37.5 26.5
      vertex 88.51 37.5 26.5
    endloop
  endfacet
  facet normal 0 -1 -0
    outer loop
      vertex 89.26 37.5 26.5
      vertex 88.51 37.5 25.5
      vertex 89.26 37.5 25.5
    endloop
  endfacet
  facet normal 0 1 -0
    outer loop
      vertex 89.26 4 25.5
      vertex 88.51 4 26.5
      vertex 89.26 4 26.5
    endloop
  endfacet
  facet normal 0 1 0
    outer loop
      vertex 88.51 4 26.5
      vertex 89.26 4 25.5
      vertex 88.51 4 25.5
    endloop
  endfacet
  facet normal 0 -1 0
    outer loop
      vertex 88.51 19.5 25.5
      vertex 89.26 19.5 26.5
      vertex 88.51 19.5 26.5
    endloop
  endfacet
  facet normal 0 -1 -0
    outer loop
      vertex 89.26 19.5 26.5
      vertex 88.51 19.5 25.5
      vertex 89.26 19.5 25.5
    endloop
  endfacet
  facet normal -1 0 0
    outer loop
      vertex 0.75 1.5 25.5
      vertex 0.75 60.01 26.5
      vertex 0.75 60.01 25.5
    endloop
  endfacet
  facet normal -1 -0 0
    outer loop
      vertex 0.75 60.01 26.5
      vertex 0.75 1.5 25.5
      vertex 0.75 1.5 26.5
    endloop
  endfacet
  facet normal -0 0 1
    outer loop
      vertex 88.51 4 26.5
      vertex 89.26 1.5 26.5
      vertex 89.26 4 26.5
    endloop
  endfacet
  facet normal 0 0 1
    outer loop
      vertex 89.26 1.5 26.5
      vertex 88.51 4 26.5
      vertex 88.51 1.5 26.5
    endloop
  endfacet
  facet normal -0 0 1
    outer loop
      vertex 0.75 60.01 26.5
      vertex 1.5 1.5 26.5
      vertex 1.5 60.01 26.5
    endloop
  endfacet
  facet normal 0 0 1
    outer loop
      vertex 1.5 1.5 26.5
      vertex 0.75 60.01 26.5
      vertex 0.75 1.5 26.5
    endloop
  endfacet
  facet normal -0 0 1
    outer loop
      vertex 88.51 60.01 26.5
      vertex 89.26 56.5 26.5
      vertex 89.26 60.01 26.5
    endloop
  endfacet
  facet normal 0 0 1
    outer loop
      vertex 89.26 56.5 26.5
      vertex 88.51 60.01 26.5
      vertex 88.51 56.5 26.5
    endloop
  endfacet
  facet normal -0 0 1
    outer loop
      vertex 88.51 40.5 26.5
      vertex 89.26 37.5 26.5
      vertex 89.26 40.5 26.5
    endloop
  endfacet
  facet normal 0 0 1
    outer loop
      vertex 89.26 37.5 26.5
      vertex 88.51 40.5 26.5
      vertex 88.51 37.5 26.5
    endloop
  endfacet
  facet normal -0 0 1
    outer loop
      vertex 88.51 22 26.5
      vertex 89.26 19.5 26.5
      vertex 89.26 22 26.5
    endloop
  endfacet
  facet normal 0 0 1
    outer loop
      vertex 89.26 19.5 26.5
      vertex 88.51 22 26.5
      vertex 88.51 19.5 26.5
    endloop
  endfacet
  facet normal 1 -0 0
    outer loop
      vertex 89.26 1.5 26.5
      vertex 89.26 4 25.5
      vertex 89.26 4 26.5
    endloop
  endfacet
  facet normal 1 0 0
    outer loop
      vertex 89.26 4 25.5
      vertex 89.26 1.5 26.5
      vertex 89.26 1.5 25.5
    endloop
  endfacet
  facet normal 1 -0 0
    outer loop
      vertex 89.26 56.5 26.5
      vertex 89.26 60.01 25.5
      vertex 89.26 60.01 26.5
    endloop
  endfacet
  facet normal 1 0 0
    outer loop
      vertex 89.26 60.01 25.5
      vertex 89.26 56.5 26.5
      vertex 89.26 56.5 25.5
    endloop
  endfacet
  facet normal 1 -0 0
    outer loop
      vertex 89.26 37.5 26.5
      vertex 89.26 40.5 25.5
      vertex 89.26 40.5 26.5
    endloop
  endfacet
  facet normal 1 0 0
    outer loop
      vertex 89.26 40.5 25.5
      vertex 89.26 37.5 26.5
      vertex 89.26 37.5 25.5
    endloop
  endfacet
  facet normal 1 -0 0
    outer loop
      vertex 89.26 19.5 26.5
      vertex 89.26 22 25.5
      vertex 89.26 22 26.5
    endloop
  endfacet
  facet normal 1 0 0
    outer loop
      vertex 89.26 22 25.5
      vertex 89.26 19.5 26.5
      vertex 89.26 19.5 25.5
    endloop
  endfacet
  facet normal 0 1 -0
    outer loop
      vertex 89.26 60.01 25.5
      vertex 88.51 60.01 26.5
      vertex 89.26 60.01 26.5
    endloop
  endfacet
  facet normal 0 1 0
    outer loop
      vertex 88.51 60.01 26.5
      vertex 89.26 60.01 25.5
      vertex 88.51 60.01 25.5
    endloop
  endfacet
  facet normal 0 1 -0
    outer loop
      vertex 1.5 60.01 25.5
      vertex 0.75 60.01 26.5
      vertex 1.5 60.01 26.5
    endloop
  endfacet
  facet normal 0 1 0
    outer loop
      vertex 0.75 60.01 26.5
      vertex 1.5 60.01 25.5
      vertex 0.75 60.01 25.5
    endloop
  endfacet
  facet normal 0 0 1
    outer loop
      vertex 90 61.5 25.5
      vertex 89.26 60.01 25.5
      vertex 90 56.5 25.5
    endloop
  endfacet
  facet normal 0 0 1
    outer loop
      vertex 90 61.5 25.5
      vertex 88.51 60.01 25.5
      vertex 89.26 60.01 25.5
    endloop
  endfacet
  facet normal 0 0 1
    outer loop
      vertex 88.51 60.01 25.5
      vertex 88.5 60 25.5
      vertex 88.51 56.5 25.5
    endloop
  endfacet
  facet normal 0 0 1
    outer loop
      vertex 87 60 25.5
      vertex 88.51 60.01 25.5
      vertex 90 61.5 25.5
    endloop
  endfacet
  facet normal 0 0 1
    outer loop
      vertex 88.51 60.01 25.5
      vertex 87 60 25.5
      vertex 88.5 60 25.5
    endloop
  endfacet
  facet normal 0 0 1
    outer loop
      vertex 90 61.5 25.5
      vertex 3 60 25.5
      vertex 87 60 25.5
    endloop
  endfacet
  facet normal -0 0 1
    outer loop
      vertex 0 61.5 25.5
      vertex 3 60 25.5
      vertex 90 61.5 25.5
    endloop
  endfacet
  facet normal 0 0 1
    outer loop
      vertex 3 60 25.5
      vertex 0 61.5 25.5
      vertex 1.5 60.01 25.5
    endloop
  endfacet
  facet normal 0 0 1
    outer loop
      vertex 0.75 60.01 25.5
      vertex 0 61.5 25.5
      vertex 0.75 1.5 25.5
    endloop
  endfacet
  facet normal 0 0 1
    outer loop
      vertex 1.5 60.01 25.5
      vertex 0 61.5 25.5
      vertex 0.75 60.01 25.5
    endloop
  endfacet
  facet normal 0 0 1
    outer loop
      vertex 90 56.5 25.5
      vertex 89.26 60.01 25.5
      vertex 89.26 56.5 25.5
    endloop
  endfacet
  facet normal 0 0 1
    outer loop
      vertex 88.51 56.5 25.5
      vertex 88.5 60 25.5
      vertex 88.5 56.5 25.5
    endloop
  endfacet
  facet normal 0 0 1
    outer loop
      vertex 3 60 25.5
      vertex 1.5 60.01 25.5
      vertex 1.5 60 25.5
    endloop
  endfacet
  facet normal 0 0 1
    outer loop
      vertex 88.51 4 25.5
      vertex 88.5 4 25.5
      vertex 88.51 1.5 25.5
    endloop
  endfacet
  facet normal 0 0 1
    outer loop
      vertex 89.26 1.5 25.5
      vertex 90 4 25.5
      vertex 89.26 4 25.5
    endloop
  endfacet
  facet normal 0 0 1
    outer loop
      vertex 90 4 25.5
      vertex 89.26 1.5 25.5
      vertex 90 -2.14313e-15 25.5
    endloop
  endfacet
  facet normal -0 0 1
    outer loop
      vertex 88.51 1.5 25.5
      vertex 90 -2.14313e-15 25.5
      vertex 89.26 1.5 25.5
    endloop
  endfacet
  facet normal 0 0 1
    outer loop
      vertex 88.5 1.5 25.5
      vertex 88.51 1.5 25.5
      vertex 88.5 4 25.5
    endloop
  endfacet
  facet normal -0 0 1
    outer loop
      vertex 88.5 1.5 25.5
      vertex 90 -2.14313e-15 25.5
      vertex 88.51 1.5 25.5
    endloop
  endfacet
  facet normal -0 0 1
    outer loop
      vertex 1.5 1.5 25.5
      vertex 90 -2.14313e-15 25.5
      vertex 88.5 1.5 25.5
    endloop
  endfacet
  facet normal 0 0 1
    outer loop
      vertex 0 -2.14313e-15 25.5
      vertex 1.5 1.5 25.5
      vertex 0.75 1.5 25.5
    endloop
  endfacet
  facet normal 0 0 1
    outer loop
      vertex 1.5 1.5 25.5
      vertex 0 -2.14313e-15 25.5
      vertex 90 -2.14313e-15 25.5
    endloop
  endfacet
  facet normal 0 0 1
    outer loop
      vertex 0 -2.14313e-15 25.5
      vertex 0.75 1.5 25.5
      vertex 0 61.5 25.5
    endloop
  endfacet
  facet normal 0 0 -0
    outer loop
      vertex 88.51 56.5 25.5
      vertex 88.5 56.5 25.5
      vertex 90 56.5 25.5
    endloop
  endfacet
  facet normal 0 0 0
    outer loop
      vertex 90 56.5 25.5
      vertex 89.26 56.5 25.5
      vertex 88.51 56.5 25.5
    endloop
  endfacet
  facet normal -0 0 1
    outer loop
      vertex 88.5 40.5 25.5
      vertex 88.51 37.5 25.5
      vertex 88.51 40.5 25.5
    endloop
  endfacet
  facet normal 0 0 1
    outer loop
      vertex 88.51 37.5 25.5
      vertex 88.5 40.5 25.5
      vertex 88.5 37.5 25.5
    endloop
  endfacet
  facet normal -0 0 1
    outer loop
      vertex 89.26 40.5 25.5
      vertex 90 37.5 25.5
      vertex 90 40.5 25.5
    endloop
  endfacet
  facet normal 0 0 1
    outer loop
      vertex 90 37.5 25.5
      vertex 89.26 40.5 25.5
      vertex 89.26 37.5 25.5
    endloop
  endfacet
  facet normal 0 0 0
    outer loop
      vertex 90 37.5 25.5
      vertex 89.26 37.5 25.5
      vertex 88.51 37.5 25.5
    endloop
  endfacet
  facet normal 0 0 -0
    outer loop
      vertex 88.51 37.5 25.5
      vertex 88.5 37.5 25.5
      vertex 90 37.5 25.5
    endloop
  endfacet
  facet normal -0 0 1
    outer loop
      vertex 88.5 22 25.5
      vertex 88.51 19.5 25.5
      vertex 88.51 22 25.5
    endloop
  endfacet
  facet normal 0 0 1
    outer loop
      vertex 88.51 19.5 25.5
      vertex 88.5 22 25.5
      vertex 88.5 19.5 25.5
    endloop
  endfacet
  facet normal -0 0 1
    outer loop
      vertex 89.26 22 25.5
      vertex 90 19.5 25.5
      vertex 90 22 25.5
    endloop
  endfacet
  facet normal 0 0 1
    outer loop
      vertex 90 19.5 25.5
      vertex 89.26 22 25.5
      vertex 89.26 19.5 25.5
    endloop
  endfacet
  facet normal 0 0 0
    outer loop
      vertex 90 19.5 25.5
      vertex 89.26 19.5 25.5
      vertex 88.51 19.5 25.5
    endloop
  endfacet
  facet normal 0 0 -0
    outer loop
      vertex 88.51 19.5 25.5
      vertex 88.5 19.5 25.5
      vertex 90 19.5 25.5
    endloop
  endfacet
  facet normal 0 -1 0
    outer loop
      vertex 88.51 1.5 25.5
      vertex 89.26 1.5 26.5
      vertex 88.51 1.5 26.5
    endloop
  endfacet
  facet normal 0 -1 -0
    outer loop
      vertex 89.26 1.5 26.5
      vertex 88.51 1.5 25.5
      vertex 89.26 1.5 25.5
    endloop
  endfacet
  facet normal 0 -1 0
    outer loop
      vertex 0.75 1.5 25.5
      vertex 1.5 1.5 26.5
      vertex 0.75 1.5 26.5
    endloop
  endfacet
  facet normal 0 -1 -0
    outer loop
      vertex 1.5 1.5 26.5
      vertex 0.75 1.5 25.5
      vertex 1.5 1.5 25.5
    endloop
  endfacet
  facet normal 1 0 0
    outer loop
      vertex 1.5 60.01 26.5
      vertex 1.5 60 25.5
      vertex 1.5 60.01 25.5
    endloop
  endfacet
  facet normal 1 -0 0
    outer loop
      vertex 1.5 1.5 26.5
      vertex 1.5 60 25.5
      vertex 1.5 60.01 26.5
    endloop
  endfacet
  facet normal 1 0 0
    outer loop
      vertex 1.5 1.5 25.5
      vertex 1.5 60 25.5
      vertex 1.5 1.5 26.5
    endloop
  endfacet
  facet normal 1 0 0
    outer loop
      vertex 1.5 60 25.5
      vertex 1.5 1.5 25.5
      vertex 1.5 60 1.5
    endloop
  endfacet
  facet normal 1 0 0
    outer loop
      vertex 1.5 60 1.5
      vertex 1.5 1.5 25.5
      vertex 1.5 1.5 1.5
    endloop
  endfacet
  facet normal -1 0 0
    outer loop
      vertex 88.51 1.5 25.5
      vertex 88.51 4 26.5
      vertex 88.51 4 25.5
    endloop
  endfacet
  facet normal -1 -0 0
    outer loop
      vertex 88.51 4 26.5
      vertex 88.51 1.5 25.5
      vertex 88.51 1.5 26.5
    endloop
  endfacet
  facet normal -1 0 0
    outer loop
      vertex 88.51 56.5 25.5
      vertex 88.51 60.01 26.5
      vertex 88.51 60.01 25.5
    endloop
  endfacet
  facet normal -1 -0 0
    outer loop
      vertex 88.51 60.01 26.5
      vertex 88.51 56.5 25.5
      vertex 88.51 56.5 26.5
    endloop
  endfacet
  facet normal -1 0 0
    outer loop
      vertex 88.51 37.5 25.5
      vertex 88.51 40.5 26.5
      vertex 88.51 40.5 25.5
    endloop
  endfacet
  facet normal -1 -0 0
    outer loop
      vertex 88.51 40.5 26.5
      vertex 88.51 37.5 25.5
      vertex 88.51 37.5 26.5
    endloop
  endfacet
  facet normal -1 0 0
    outer loop
      vertex 88.51 19.5 25.5
      vertex 88.51 22 26.5
      vertex 88.51 22 25.5
    endloop
  endfacet
  facet normal -1 -0 0
    outer loop
      vertex 88.51 22 26.5
      vertex 88.51 19.5 25.5
      vertex 88.51 19.5 26.5
    endloop
  endfacet
  facet normal -1 0 0
    outer loop
      vertex 0 61.5 0
      vertex 0 -2.14313e-15 25.5
      vertex 0 61.5 25.5
    endloop
  endfacet
  facet normal -1 0 -0
    outer loop
      vertex 0 -2.14313e-15 25.5
      vertex 0 61.5 0
      vertex 0 -5.26598e-15 7.53158e-15
    endloop
  endfacet
  facet normal 0 0 1
    outer loop
      vertex 88.5 60 1.5
      vertex 74.2587 51.5 1.5
      vertex 88.5 1.5 1.5
    endloop
  endfacet
  facet normal 0 0 1
    outer loop
      vertex 88.5 60 1.5
      vertex 71.2587 51.5 1.5
      vertex 74.2587 51.5 1.5
    endloop
  endfacet
  facet normal 0 0 1
    outer loop
      vertex 71.2587 51.5 1.5
      vertex 69.2587 51.5 1.5
      vertex 71.2587 10 1.5
    endloop
  endfacet
  facet normal 0 0 1
    outer loop
      vertex 88.5 60 1.5
      vertex 69.2587 51.5 1.5
      vertex 71.2587 51.5 1.5
    endloop
  endfacet
  facet normal 0 0 1
    outer loop
      vertex 88.5 60 1.5
      vertex 66.2587 51.5 1.5
      vertex 69.2587 51.5 1.5
    endloop
  endfacet
  facet normal 0 0 1
    outer loop
      vertex 66.2587 51.5 1.5
      vertex 64.2587 51.5 1.5
      vertex 66.2587 10 1.5
    endloop
  endfacet
  facet normal 0 0 1
    outer loop
      vertex 88.5 60 1.5
      vertex 64.2587 51.5 1.5
      vertex 66.2587 51.5 1.5
    endloop
  endfacet
  facet normal 0 0 1
    outer loop
      vertex 88.5 60 1.5
      vertex 61.2587 51.5 1.5
      vertex 64.2587 51.5 1.5
    endloop
  endfacet
  facet normal 0 0 1
    outer loop
      vertex 61.2587 51.5 1.5
      vertex 59.2587 51.5 1.5
      vertex 61.2587 10 1.5
    endloop
  endfacet
  facet normal 0 0 1
    outer loop
      vertex 88.5 60 1.5
      vertex 59.2587 51.5 1.5
      vertex 61.2587 51.5 1.5
    endloop
  endfacet
  facet normal 0 0 1
    outer loop
      vertex 88.5 60 1.5
      vertex 56.2587 51.5 1.5
      vertex 59.2587 51.5 1.5
    endloop
  endfacet
  facet normal 0 0 1
    outer loop
      vertex 56.2587 51.5 1.5
      vertex 54.2587 51.5 1.5
      vertex 56.2587 10 1.5
    endloop
  endfacet
  facet normal 0 0 1
    outer loop
      vertex 88.5 60 1.5
      vertex 54.2587 51.5 1.5
      vertex 56.2587 51.5 1.5
    endloop
  endfacet
  facet normal 0 0 1
    outer loop
      vertex 88.5 60 1.5
      vertex 51.2587 51.5 1.5
      vertex 54.2587 51.5 1.5
    endloop
  endfacet
  facet normal 0 0 1
    outer loop
      vertex 51.2587 51.5 1.5
      vertex 49.2587 51.5 1.5
      vertex 51.2587 10 1.5
    endloop
  endfacet
  facet normal 0 0 1
    outer loop
      vertex 88.5 60 1.5
      vertex 49.2587 51.5 1.5
      vertex 51.2587 51.5 1.5
    endloop
  endfacet
  facet normal 0 0 1
    outer loop
      vertex 88.5 60 1.5
      vertex 46.2587 51.5 1.5
      vertex 49.2587 51.5 1.5
    endloop
  endfacet
  facet normal 0 0 1
    outer loop
      vertex 46.2587 51.5 1.5
      vertex 44.2587 51.5 1.5
      vertex 46.2587 10 1.5
    endloop
  endfacet
  facet normal 0 0 1
    outer loop
      vertex 88.5 60 1.5
      vertex 44.2587 51.5 1.5
      vertex 46.2587 51.5 1.5
    endloop
  endfacet
  facet normal -0 0 1
    outer loop
      vertex 1.5 60 1.5
      vertex 44.2587 51.5 1.5
      vertex 88.5 60 1.5
    endloop
  endfacet
  facet normal 0 0 1
    outer loop
      vertex 41.2587 51.5 1.5
      vertex 39.2587 51.5 1.5
      vertex 41.2587 10 1.5
    endloop
  endfacet
  facet normal 0 0 1
    outer loop
      vertex 44.2587 51.5 1.5
      vertex 1.5 60 1.5
      vertex 41.2587 51.5 1.5
    endloop
  endfacet
  facet normal 0 0 1
    outer loop
      vertex 41.2587 51.5 1.5
      vertex 1.5 60 1.5
      vertex 39.2587 51.5 1.5
    endloop
  endfacet
  facet normal 0 0 1
    outer loop
      vertex 36.2587 51.5 1.5
      vertex 34.2587 51.5 1.5
      vertex 36.2587 10 1.5
    endloop
  endfacet
  facet normal 0 0 1
    outer loop
      vertex 39.2587 51.5 1.5
      vertex 1.5 60 1.5
      vertex 36.2587 51.5 1.5
    endloop
  endfacet
  facet normal 0 0 1
    outer loop
      vertex 36.2587 51.5 1.5
      vertex 1.5 60 1.5
      vertex 34.2587 51.5 1.5
    endloop
  endfacet
  facet normal 0 0 1
    outer loop
      vertex 31.2587 51.5 1.5
      vertex 29.2587 51.5 1.5
      vertex 31.2587 10 1.5
    endloop
  endfacet
  facet normal 0 0 1
    outer loop
      vertex 34.2587 51.5 1.5
      vertex 1.5 60 1.5
      vertex 31.2587 51.5 1.5
    endloop
  endfacet
  facet normal 0 0 1
    outer loop
      vertex 31.2587 51.5 1.5
      vertex 1.5 60 1.5
      vertex 29.2587 51.5 1.5
    endloop
  endfacet
  facet normal 0 0 1
    outer loop
      vertex 26.2587 51.5 1.5
      vertex 24.2587 51.5 1.5
      vertex 26.2587 10 1.5
    endloop
  endfacet
  facet normal 0 0 1
    outer loop
      vertex 29.2587 51.5 1.5
      vertex 1.5 60 1.5
      vertex 26.2587 51.5 1.5
    endloop
  endfacet
  facet normal 0 0 1
    outer loop
      vertex 26.2587 51.5 1.5
      vertex 1.5 60 1.5
      vertex 24.2587 51.5 1.5
    endloop
  endfacet
  facet normal 0 0 1
    outer loop
      vertex 21.2587 51.5 1.5
      vertex 19.2587 51.5 1.5
      vertex 21.2587 10 1.5
    endloop
  endfacet
  facet normal 0 0 1
    outer loop
      vertex 24.2587 51.5 1.5
      vertex 1.5 60 1.5
      vertex 21.2587 51.5 1.5
    endloop
  endfacet
  facet normal 0 0 1
    outer loop
      vertex 21.2587 51.5 1.5
      vertex 1.5 60 1.5
      vertex 19.2587 51.5 1.5
    endloop
  endfacet
  facet normal 0 0 1
    outer loop
      vertex 16.2587 51.5 1.5
      vertex 14.2587 51.5 1.5
      vertex 16.2587 10 1.5
    endloop
  endfacet
  facet normal 0 0 1
    outer loop
      vertex 19.2587 51.5 1.5
      vertex 1.5 60 1.5
      vertex 16.2587 51.5 1.5
    endloop
  endfacet
  facet normal 0 0 1
    outer loop
      vertex 16.2587 51.5 1.5
      vertex 1.5 60 1.5
      vertex 14.2587 51.5 1.5
    endloop
  endfacet
  facet normal 0 0 1
    outer loop
      vertex 11.2587 51.5 1.5
      vertex 1.5 60 1.5
      vertex 11.2587 10 1.5
    endloop
  endfacet
  facet normal 0 0 1
    outer loop
      vertex 14.2587 51.5 1.5
      vertex 1.5 60 1.5
      vertex 11.2587 51.5 1.5
    endloop
  endfacet
  facet normal -0 0 1
    outer loop
      vertex 74.2587 10 1.5
      vertex 88.5 1.5 1.5
      vertex 74.2587 51.5 1.5
    endloop
  endfacet
  facet normal -0 0 1
    outer loop
      vertex 71.2587 10 1.5
      vertex 88.5 1.5 1.5
      vertex 74.2587 10 1.5
    endloop
  endfacet
  facet normal 0 0 1
    outer loop
      vertex 69.2587 10 1.5
      vertex 71.2587 10 1.5
      vertex 69.2587 51.5 1.5
    endloop
  endfacet
  facet normal -0 0 1
    outer loop
      vertex 69.2587 10 1.5
      vertex 88.5 1.5 1.5
      vertex 71.2587 10 1.5
    endloop
  endfacet
  facet normal -0 0 1
    outer loop
      vertex 66.2587 10 1.5
      vertex 88.5 1.5 1.5
      vertex 69.2587 10 1.5
    endloop
  endfacet
  facet normal 0 0 1
    outer loop
      vertex 64.2587 10 1.5
      vertex 66.2587 10 1.5
      vertex 64.2587 51.5 1.5
    endloop
  endfacet
  facet normal -0 0 1
    outer loop
      vertex 64.2587 10 1.5
      vertex 88.5 1.5 1.5
      vertex 66.2587 10 1.5
    endloop
  endfacet
  facet normal -0 0 1
    outer loop
      vertex 61.2587 10 1.5
      vertex 88.5 1.5 1.5
      vertex 64.2587 10 1.5
    endloop
  endfacet
  facet normal 0 0 1
    outer loop
      vertex 59.2587 10 1.5
      vertex 61.2587 10 1.5
      vertex 59.2587 51.5 1.5
    endloop
  endfacet
  facet normal -0 0 1
    outer loop
      vertex 59.2587 10 1.5
      vertex 88.5 1.5 1.5
      vertex 61.2587 10 1.5
    endloop
  endfacet
  facet normal -0 0 1
    outer loop
      vertex 56.2587 10 1.5
      vertex 88.5 1.5 1.5
      vertex 59.2587 10 1.5
    endloop
  endfacet
  facet normal 0 0 1
    outer loop
      vertex 54.2587 10 1.5
      vertex 56.2587 10 1.5
      vertex 54.2587 51.5 1.5
    endloop
  endfacet
  facet normal -0 0 1
    outer loop
      vertex 54.2587 10 1.5
      vertex 88.5 1.5 1.5
      vertex 56.2587 10 1.5
    endloop
  endfacet
  facet normal -0 0 1
    outer loop
      vertex 51.2587 10 1.5
      vertex 88.5 1.5 1.5
      vertex 54.2587 10 1.5
    endloop
  endfacet
  facet normal 0 0 1
    outer loop
      vertex 49.2587 10 1.5
      vertex 51.2587 10 1.5
      vertex 49.2587 51.5 1.5
    endloop
  endfacet
  facet normal -0 0 1
    outer loop
      vertex 49.2587 10 1.5
      vertex 88.5 1.5 1.5
      vertex 51.2587 10 1.5
    endloop
  endfacet
  facet normal -0 0 1
    outer loop
      vertex 46.2587 10 1.5
      vertex 88.5 1.5 1.5
      vertex 49.2587 10 1.5
    endloop
  endfacet
  facet normal 0 0 1
    outer loop
      vertex 44.2587 10 1.5
      vertex 46.2587 10 1.5
      vertex 44.2587 51.5 1.5
    endloop
  endfacet
  facet normal -0 0 1
    outer loop
      vertex 44.2587 10 1.5
      vertex 88.5 1.5 1.5
      vertex 46.2587 10 1.5
    endloop
  endfacet
  facet normal 0 0 1
    outer loop
      vertex 1.5 1.5 1.5
      vertex 44.2587 10 1.5
      vertex 41.2587 10 1.5
    endloop
  endfacet
  facet normal 0 0 1
    outer loop
      vertex 39.2587 10 1.5
      vertex 41.2587 10 1.5
      vertex 39.2587 51.5 1.5
    endloop
  endfacet
  facet normal 0 0 1
    outer loop
      vertex 1.5 1.5 1.5
      vertex 41.2587 10 1.5
      vertex 39.2587 10 1.5
    endloop
  endfacet
  facet normal 0 0 1
    outer loop
      vertex 1.5 1.5 1.5
      vertex 39.2587 10 1.5
      vertex 36.2587 10 1.5
    endloop
  endfacet
  facet normal 0 0 1
    outer loop
      vertex 34.2587 10 1.5
      vertex 36.2587 10 1.5
      vertex 34.2587 51.5 1.5
    endloop
  endfacet
  facet normal 0 0 1
    outer loop
      vertex 1.5 1.5 1.5
      vertex 36.2587 10 1.5
      vertex 34.2587 10 1.5
    endloop
  endfacet
  facet normal 0 0 1
    outer loop
      vertex 1.5 1.5 1.5
      vertex 34.2587 10 1.5
      vertex 31.2587 10 1.5
    endloop
  endfacet
  facet normal 0 0 1
    outer loop
      vertex 29.2587 10 1.5
      vertex 31.2587 10 1.5
      vertex 29.2587 51.5 1.5
    endloop
  endfacet
  facet normal 0 0 1
    outer loop
      vertex 1.5 1.5 1.5
      vertex 31.2587 10 1.5
      vertex 29.2587 10 1.5
    endloop
  endfacet
  facet normal 0 0 1
    outer loop
      vertex 1.5 1.5 1.5
      vertex 29.2587 10 1.5
      vertex 26.2587 10 1.5
    endloop
  endfacet
  facet normal 0 0 1
    outer loop
      vertex 24.2587 10 1.5
      vertex 26.2587 10 1.5
      vertex 24.2587 51.5 1.5
    endloop
  endfacet
  facet normal 0 0 1
    outer loop
      vertex 1.5 1.5 1.5
      vertex 26.2587 10 1.5
      vertex 24.2587 10 1.5
    endloop
  endfacet
  facet normal 0 0 1
    outer loop
      vertex 1.5 1.5 1.5
      vertex 24.2587 10 1.5
      vertex 21.2587 10 1.5
    endloop
  endfacet
  facet normal 0 0 1
    outer loop
      vertex 19.2587 10 1.5
      vertex 21.2587 10 1.5
      vertex 19.2587 51.5 1.5
    endloop
  endfacet
  facet normal 0 0 1
    outer loop
      vertex 1.5 1.5 1.5
      vertex 21.2587 10 1.5
      vertex 19.2587 10 1.5
    endloop
  endfacet
  facet normal 0 0 1
    outer loop
      vertex 1.5 1.5 1.5
      vertex 19.2587 10 1.5
      vertex 16.2587 10 1.5
    endloop
  endfacet
  facet normal 0 0 1
    outer loop
      vertex 14.2587 10 1.5
      vertex 16.2587 10 1.5
      vertex 14.2587 51.5 1.5
    endloop
  endfacet
  facet normal 0 0 1
    outer loop
      vertex 1.5 1.5 1.5
      vertex 16.2587 10 1.5
      vertex 14.2587 10 1.5
    endloop
  endfacet
  facet normal 0 0 1
    outer loop
      vertex 1.5 1.5 1.5
      vertex 14.2587 10 1.5
      vertex 11.2587 10 1.5
    endloop
  endfacet
  facet normal 0 0 1
    outer loop
      vertex 44.2587 10 1.5
      vertex 1.5 1.5 1.5
      vertex 88.5 1.5 1.5
    endloop
  endfacet
  facet normal 0 0 1
    outer loop
      vertex 1.5 1.5 1.5
      vertex 11.2587 10 1.5
      vertex 1.5 60 1.5
    endloop
  endfacet
  facet normal 1 0 0
    outer loop
      vertex 90 4 25.5
      vertex 90 -2.14313e-15 25.5
      vertex 90 4 20.5
    endloop
  endfacet
  facet normal 1 0 0
    outer loop
      vertex 90 22 25.5
      vertex 90 19.5 25.5
      vertex 90 22 20.5
    endloop
  endfacet
  facet normal 1 0 0
    outer loop
      vertex 90 40.5 25.5
      vertex 90 37.5 25.5
      vertex 90 40.5 22.5
    endloop
  endfacet
  facet normal 1 0 0
    outer loop
      vertex 90 56.5 22.5
      vertex 90 61.5 25.5
      vertex 90 56.5 25.5
    endloop
  endfacet
  facet normal 1 0 0
    outer loop
      vertex 90 61.5 25.5
      vertex 90 56.5 22.5
      vertex 90 61.5 0
    endloop
  endfacet
  facet normal 1 -0 0
    outer loop
      vertex 90 40.5 22.5
      vertex 90 61.5 0
      vertex 90 56.5 22.5
    endloop
  endfacet
  facet normal 1 0 0
    outer loop
      vertex 90 37.5 20.5
      vertex 90 40.5 22.5
      vertex 90 37.5 25.5
    endloop
  endfacet
  facet normal 1 0 0
    outer loop
      vertex 90 40.5 22.5
      vertex 90 37.5 20.5
      vertex 90 61.5 0
    endloop
  endfacet
  facet normal 1 0 0
    outer loop
      vertex 90 -5.26598e-15 7.53158e-15
      vertex 90 37.5 20.5
      vertex 90 22 20.5
    endloop
  endfacet
  facet normal 1 0 0
    outer loop
      vertex 90 19.5 20.5
      vertex 90 22 20.5
      vertex 90 19.5 25.5
    endloop
  endfacet
  facet normal 1 0 0
    outer loop
      vertex 90 -5.26598e-15 7.53158e-15
      vertex 90 22 20.5
      vertex 90 19.5 20.5
    endloop
  endfacet
  facet normal 1 0 0
    outer loop
      vertex 90 -5.26598e-15 7.53158e-15
      vertex 90 19.5 20.5
      vertex 90 4 20.5
    endloop
  endfacet
  facet normal 1 0 0
    outer loop
      vertex 90 37.5 20.5
      vertex 90 -5.26598e-15 7.53158e-15
      vertex 90 61.5 0
    endloop
  endfacet
  facet normal 1 0 0
    outer loop
      vertex 90 -5.26598e-15 7.53158e-15
      vertex 90 4 20.5
      vertex 90 -2.14313e-15 25.5
    endloop
  endfacet
  facet normal 0 -1 1.22465e-16
    outer loop
      vertex 0 -5.26598e-15 7.53158e-15
      vertex 90 -2.14313e-15 25.5
      vertex 0 -2.14313e-15 25.5
    endloop
  endfacet
  facet normal 0 -1 1.22465e-16
    outer loop
      vertex 90 -2.14313e-15 25.5
      vertex 0 -5.26598e-15 7.53158e-15
      vertex 90 -5.26598e-15 7.53158e-15
    endloop
  endfacet
  facet normal 0 1 -0
    outer loop
      vertex 90 61.5 0
      vertex 0 61.5 25.5
      vertex 90 61.5 25.5
    endloop
  endfacet
  facet normal 0 1 0
    outer loop
      vertex 0 61.5 25.5
      vertex 90 61.5 0
      vertex 0 61.5 0
    endloop
  endfacet
  facet normal -1 0 0
    outer loop
      vertex 88.5 60 1.5
      vertex 88.5 56.5 22.5
      vertex 88.5 60 25.5
    endloop
  endfacet
  facet normal -1 0 0
    outer loop
      vertex 88.5 60 1.5
      vertex 88.5 40.5 22.5
      vertex 88.5 56.5 22.5
    endloop
  endfacet
  facet normal -1 0 0
    outer loop
      vertex 88.5 37.5 25.5
      vertex 88.5 40.5 22.5
      vertex 88.5 37.5 20.5
    endloop
  endfacet
  facet normal -1 0 0
    outer loop
      vertex 88.5 60 1.5
      vertex 88.5 37.5 20.5
      vertex 88.5 40.5 22.5
    endloop
  endfacet
  facet normal -1 0 0
    outer loop
      vertex 88.5 1.5 1.5
      vertex 88.5 37.5 20.5
      vertex 88.5 60 1.5
    endloop
  endfacet
  facet normal -1 0 0
    outer loop
      vertex 88.5 22 20.5
      vertex 88.5 19.5 20.5
      vertex 88.5 22 25.5
    endloop
  endfacet
  facet normal -1 -0 0
    outer loop
      vertex 88.5 37.5 20.5
      vertex 88.5 1.5 1.5
      vertex 88.5 22 20.5
    endloop
  endfacet
  facet normal -1 -0 0
    outer loop
      vertex 88.5 22 20.5
      vertex 88.5 1.5 1.5
      vertex 88.5 19.5 20.5
    endloop
  endfacet
  facet normal -1 -0 0
    outer loop
      vertex 88.5 19.5 20.5
      vertex 88.5 1.5 1.5
      vertex 88.5 4 20.5
    endloop
  endfacet
  facet normal -1 0 0
    outer loop
      vertex 88.5 1.5 25.5
      vertex 88.5 4 20.5
      vertex 88.5 1.5 1.5
    endloop
  endfacet
  facet normal -1 0 0
    outer loop
      vertex 88.5 4 20.5
      vertex 88.5 1.5 25.5
      vertex 88.5 4 25.5
    endloop
  endfacet
  facet normal -1 -0 0
    outer loop
      vertex 88.5 60 25.5
      vertex 88.5 56.5 22.5
      vertex 88.5 56.5 25.5
    endloop
  endfacet
  facet normal -1 0 0
    outer loop
      vertex 88.5 40.5 22.5
      vertex 88.5 37.5 25.5
      vertex 88.5 40.5 25.5
    endloop
  endfacet
  facet normal -1 -0 0
    outer loop
      vertex 88.5 22 25.5
      vertex 88.5 19.5 20.5
      vertex 88.5 19.5 25.5
    endloop
  endfacet
  facet normal 0 -1 0
    outer loop
      vertex 1.5 60 25.5
      vertex 3 60 19
      vertex 3 60 25.5
    endloop
  endfacet
  facet normal 0 -1 -0
    outer loop
      vertex 3 60 19
      vertex 1.5 60 1.5
      vertex 87 60 19
    endloop
  endfacet
  facet normal 0 -1 0
    outer loop
      vertex 1.5 60 1.5
      vertex 3 60 19
      vertex 1.5 60 25.5
    endloop
  endfacet
  facet normal 0 -1 0
    outer loop
      vertex 87 60 19
      vertex 88.5 60 25.5
      vertex 87 60 25.5
    endloop
  endfacet
  facet normal 0 -1 0
    outer loop
      vertex 87 60 19
      vertex 88.5 60 1.5
      vertex 88.5 60 25.5
    endloop
  endfacet
  facet normal 0 -1 0
    outer loop
      vertex 88.5 60 1.5
      vertex 87 60 19
      vertex 1.5 60 1.5
    endloop
  endfacet
  facet normal 0 1 -0
    outer loop
      vertex 88.5 1.5 1.5
      vertex 1.5 1.5 25.5
      vertex 88.5 1.5 25.5
    endloop
  endfacet
  facet normal 0 1 0
    outer loop
      vertex 1.5 1.5 25.5
      vertex 88.5 1.5 1.5
      vertex 1.5 1.5 1.5
    endloop
  endfacet
  facet normal -0 0 1
    outer loop
      vertex 88.5 56.5 22.5
      vertex 90 40.5 22.5
      vertex 90 56.5 22.5
    endloop
  endfacet
  facet normal 0 0 1
    outer loop
      vertex 90 40.5 22.5
      vertex 88.5 56.5 22.5
      vertex 88.5 40.5 22.5
    endloop
  endfacet
  facet normal 0 1 -0
    outer loop
      vertex 90 40.5 22.5
      vertex 89.26 40.5 25.5
      vertex 90 40.5 25.5
    endloop
  endfacet
  facet normal 0 1 0
    outer loop
      vertex 88.5 40.5 22.5
      vertex 89.26 40.5 25.5
      vertex 90 40.5 22.5
    endloop
  endfacet
  facet normal 0 1 0
    outer loop
      vertex 89.26 40.5 25.5
      vertex 88.5 40.5 22.5
      vertex 88.51 40.5 25.5
    endloop
  endfacet
  facet normal 0 1 0
    outer loop
      vertex 88.51 40.5 25.5
      vertex 88.5 40.5 22.5
      vertex 88.5 40.5 25.5
    endloop
  endfacet
  facet normal 0 -1 0
    outer loop
      vertex 88.5 56.5 22.5
      vertex 90 56.5 25.5
      vertex 88.5 56.5 25.5
    endloop
  endfacet
  facet normal 0 -1 -0
    outer loop
      vertex 90 56.5 25.5
      vertex 88.5 56.5 22.5
      vertex 90 56.5 22.5
    endloop
  endfacet
  facet normal -0 0 1
    outer loop
      vertex 88.5 37.5 20.5
      vertex 90 22 20.5
      vertex 90 37.5 20.5
    endloop
  endfacet
  facet normal 0 0 1
    outer loop
      vertex 90 22 20.5
      vertex 88.5 37.5 20.5
      vertex 88.5 22 20.5
    endloop
  endfacet
  facet normal 0 1 -0
    outer loop
      vertex 90 22 20.5
      vertex 89.26 22 25.5
      vertex 90 22 25.5
    endloop
  endfacet
  facet normal 0 1 0
    outer loop
      vertex 88.5 22 20.5
      vertex 89.26 22 25.5
      vertex 90 22 20.5
    endloop
  endfacet
  facet normal 0 1 0
    outer loop
      vertex 89.26 22 25.5
      vertex 88.5 22 20.5
      vertex 88.51 22 25.5
    endloop
  endfacet
  facet normal 0 1 0
    outer loop
      vertex 88.51 22 25.5
      vertex 88.5 22 20.5
      vertex 88.5 22 25.5
    endloop
  endfacet
  facet normal 0 -1 0
    outer loop
      vertex 88.5 37.5 20.5
      vertex 90 37.5 25.5
      vertex 88.5 37.5 25.5
    endloop
  endfacet
  facet normal 0 -1 -0
    outer loop
      vertex 90 37.5 25.5
      vertex 88.5 37.5 20.5
      vertex 90 37.5 20.5
    endloop
  endfacet
  facet normal -0 0 1
    outer loop
      vertex 88.5 19.5 20.5
      vertex 90 4 20.5
      vertex 90 19.5 20.5
    endloop
  endfacet
  facet normal 0 0 1
    outer loop
      vertex 90 4 20.5
      vertex 88.5 19.5 20.5
      vertex 88.5 4 20.5
    endloop
  endfacet
  facet normal 0 1 -0
    outer loop
      vertex 90 4 20.5
      vertex 89.26 4 25.5
      vertex 90 4 25.5
    endloop
  endfacet
  facet normal 0 1 0
    outer loop
      vertex 88.5 4 20.5
      vertex 89.26 4 25.5
      vertex 90 4 20.5
    endloop
  endfacet
  facet normal 0 1 0
    outer loop
      vertex 89.26 4 25.5
      vertex 88.5 4 20.5
      vertex 88.51 4 25.5
    endloop
  endfacet
  facet normal 0 1 0
    outer loop
      vertex 88.51 4 25.5
      vertex 88.5 4 20.5
      vertex 88.5 4 25.5
    endloop
  endfacet
  facet normal 0 -1 0
    outer loop
      vertex 88.5 19.5 20.5
      vertex 90 19.5 25.5
      vertex 88.5 19.5 25.5
    endloop
  endfacet
  facet normal 0 -1 -0
    outer loop
      vertex 90 19.5 25.5
      vertex 88.5 19.5 20.5
      vertex 90 19.5 20.5
    endloop
  endfacet
  facet normal 0.5 9.98755e-17 0.866025
    outer loop
      vertex 11.2587 51.5 1.5
      vertex 13.8567 10 6.30693e-15
      vertex 13.8567 51.5 1.22465e-15
    endloop
  endfacet
  facet normal 0.5 0 0.866025
    outer loop
      vertex 13.8567 10 6.30693e-15
      vertex 11.2587 51.5 1.5
      vertex 11.2587 10 1.5
    endloop
  endfacet
  facet normal -0.5 -9.98755e-17 -0.866025
    outer loop
      vertex 14.2587 10 1.5
      vertex 16.8567 51.5 1.22465e-15
      vertex 16.8567 10 6.30693e-15
    endloop
  endfacet
  facet normal -0.5 0 -0.866025
    outer loop
      vertex 16.8567 51.5 1.22465e-15
      vertex 14.2587 10 1.5
      vertex 14.2587 51.5 1.5
    endloop
  endfacet
  facet normal 0 1 0
    outer loop
      vertex 13.8567 10 6.30693e-15
      vertex 14.2587 10 1.5
      vertex 16.8567 10 6.30693e-15
    endloop
  endfacet
  facet normal 0 1 0
    outer loop
      vertex 14.2587 10 1.5
      vertex 13.8567 10 6.30693e-15
      vertex 11.2587 10 1.5
    endloop
  endfacet
  facet normal 0 -1 0
    outer loop
      vertex 13.8567 51.5 1.22465e-15
      vertex 14.2587 51.5 1.5
      vertex 11.2587 51.5 1.5
    endloop
  endfacet
  facet normal 0 -1 -0
    outer loop
      vertex 14.2587 51.5 1.5
      vertex 13.8567 51.5 1.22465e-15
      vertex 16.8567 51.5 1.22465e-15
    endloop
  endfacet
  facet normal 0.5 9.98755e-17 0.866025
    outer loop
      vertex 16.2587 51.5 1.5
      vertex 18.8567 10 6.30693e-15
      vertex 18.8567 51.5 1.22465e-15
    endloop
  endfacet
  facet normal 0.5 0 0.866025
    outer loop
      vertex 18.8567 10 6.30693e-15
      vertex 16.2587 51.5 1.5
      vertex 16.2587 10 1.5
    endloop
  endfacet
  facet normal -0.5 -9.98755e-17 -0.866025
    outer loop
      vertex 19.2587 10 1.5
      vertex 21.8567 51.5 1.22465e-15
      vertex 21.8567 10 6.30693e-15
    endloop
  endfacet
  facet normal -0.5 0 -0.866025
    outer loop
      vertex 21.8567 51.5 1.22465e-15
      vertex 19.2587 10 1.5
      vertex 19.2587 51.5 1.5
    endloop
  endfacet
  facet normal 0 -1 0
    outer loop
      vertex 18.8567 51.5 1.22465e-15
      vertex 19.2587 51.5 1.5
      vertex 16.2587 51.5 1.5
    endloop
  endfacet
  facet normal 0 -1 -0
    outer loop
      vertex 19.2587 51.5 1.5
      vertex 18.8567 51.5 1.22465e-15
      vertex 21.8567 51.5 1.22465e-15
    endloop
  endfacet
  facet normal 0 1 0
    outer loop
      vertex 18.8567 10 6.30693e-15
      vertex 19.2587 10 1.5
      vertex 21.8567 10 6.30693e-15
    endloop
  endfacet
  facet normal 0 1 0
    outer loop
      vertex 19.2587 10 1.5
      vertex 18.8567 10 6.30693e-15
      vertex 16.2587 10 1.5
    endloop
  endfacet
  facet normal 0.5 9.98755e-17 0.866025
    outer loop
      vertex 21.2587 51.5 1.5
      vertex 23.8567 10 6.30693e-15
      vertex 23.8567 51.5 1.22465e-15
    endloop
  endfacet
  facet normal 0.5 0 0.866025
    outer loop
      vertex 23.8567 10 6.30693e-15
      vertex 21.2587 51.5 1.5
      vertex 21.2587 10 1.5
    endloop
  endfacet
  facet normal -0.5 -9.98755e-17 -0.866025
    outer loop
      vertex 24.2587 10 1.5
      vertex 26.8567 51.5 1.22465e-15
      vertex 26.8567 10 6.30693e-15
    endloop
  endfacet
  facet normal -0.5 0 -0.866025
    outer loop
      vertex 26.8567 51.5 1.22465e-15
      vertex 24.2587 10 1.5
      vertex 24.2587 51.5 1.5
    endloop
  endfacet
  facet normal 0 1 0
    outer loop
      vertex 23.8567 10 6.30693e-15
      vertex 24.2587 10 1.5
      vertex 26.8567 10 6.30693e-15
    endloop
  endfacet
  facet normal 0 1 0
    outer loop
      vertex 24.2587 10 1.5
      vertex 23.8567 10 6.30693e-15
      vertex 21.2587 10 1.5
    endloop
  endfacet
  facet normal 0 -1 0
    outer loop
      vertex 23.8567 51.5 1.22465e-15
      vertex 24.2587 51.5 1.5
      vertex 21.2587 51.5 1.5
    endloop
  endfacet
  facet normal 0 -1 -0
    outer loop
      vertex 24.2587 51.5 1.5
      vertex 23.8567 51.5 1.22465e-15
      vertex 26.8567 51.5 1.22465e-15
    endloop
  endfacet
  facet normal 0.5 9.98755e-17 0.866025
    outer loop
      vertex 26.2587 51.5 1.5
      vertex 28.8567 10 6.30693e-15
      vertex 28.8567 51.5 1.22465e-15
    endloop
  endfacet
  facet normal 0.5 0 0.866025
    outer loop
      vertex 28.8567 10 6.30693e-15
      vertex 26.2587 51.5 1.5
      vertex 26.2587 10 1.5
    endloop
  endfacet
  facet normal -0.5 -9.98755e-17 -0.866025
    outer loop
      vertex 29.2587 10 1.5
      vertex 31.8567 51.5 1.22465e-15
      vertex 31.8567 10 6.30693e-15
    endloop
  endfacet
  facet normal -0.5 0 -0.866025
    outer loop
      vertex 31.8567 51.5 1.22465e-15
      vertex 29.2587 10 1.5
      vertex 29.2587 51.5 1.5
    endloop
  endfacet
  facet normal 0 1 0
    outer loop
      vertex 28.8567 10 6.30693e-15
      vertex 29.2587 10 1.5
      vertex 31.8567 10 6.30693e-15
    endloop
  endfacet
  facet normal 0 1 0
    outer loop
      vertex 29.2587 10 1.5
      vertex 28.8567 10 6.30693e-15
      vertex 26.2587 10 1.5
    endloop
  endfacet
  facet normal 0 -1 0
    outer loop
      vertex 28.8567 51.5 1.22465e-15
      vertex 29.2587 51.5 1.5
      vertex 26.2587 51.5 1.5
    endloop
  endfacet
  facet normal 0 -1 -0
    outer loop
      vertex 29.2587 51.5 1.5
      vertex 28.8567 51.5 1.22465e-15
      vertex 31.8567 51.5 1.22465e-15
    endloop
  endfacet
  facet normal 0.5 9.98755e-17 0.866025
    outer loop
      vertex 31.2587 51.5 1.5
      vertex 33.8567 10 6.30693e-15
      vertex 33.8567 51.5 1.22465e-15
    endloop
  endfacet
  facet normal 0.5 0 0.866025
    outer loop
      vertex 33.8567 10 6.30693e-15
      vertex 31.2587 51.5 1.5
      vertex 31.2587 10 1.5
    endloop
  endfacet
  facet normal -0.5 -9.98755e-17 -0.866025
    outer loop
      vertex 34.2587 10 1.5
      vertex 36.8567 51.5 1.22465e-15
      vertex 36.8567 10 6.30693e-15
    endloop
  endfacet
  facet normal -0.5 0 -0.866025
    outer loop
      vertex 36.8567 51.5 1.22465e-15
      vertex 34.2587 10 1.5
      vertex 34.2587 51.5 1.5
    endloop
  endfacet
  facet normal 0 -1 0
    outer loop
      vertex 33.8567 51.5 1.22465e-15
      vertex 34.2587 51.5 1.5
      vertex 31.2587 51.5 1.5
    endloop
  endfacet
  facet normal 0 -1 -0
    outer loop
      vertex 34.2587 51.5 1.5
      vertex 33.8567 51.5 1.22465e-15
      vertex 36.8567 51.5 1.22465e-15
    endloop
  endfacet
  facet normal 0 1 0
    outer loop
      vertex 33.8567 10 6.30693e-15
      vertex 34.2587 10 1.5
      vertex 36.8567 10 6.30693e-15
    endloop
  endfacet
  facet normal 0 1 0
    outer loop
      vertex 34.2587 10 1.5
      vertex 33.8567 10 6.30693e-15
      vertex 31.2587 10 1.5
    endloop
  endfacet
  facet normal 0.5 9.98755e-17 0.866025
    outer loop
      vertex 36.2587 51.5 1.5
      vertex 38.8567 10 6.30693e-15
      vertex 38.8567 51.5 1.22465e-15
    endloop
  endfacet
  facet normal 0.5 0 0.866025
    outer loop
      vertex 38.8567 10 6.30693e-15
      vertex 36.2587 51.5 1.5
      vertex 36.2587 10 1.5
    endloop
  endfacet
  facet normal -0.5 -9.98755e-17 -0.866025
    outer loop
      vertex 39.2587 10 1.5
      vertex 41.8567 51.5 1.22465e-15
      vertex 41.8567 10 6.30693e-15
    endloop
  endfacet
  facet normal -0.5 0 -0.866025
    outer loop
      vertex 41.8567 51.5 1.22465e-15
      vertex 39.2587 10 1.5
      vertex 39.2587 51.5 1.5
    endloop
  endfacet
  facet normal 0 -1 0
    outer loop
      vertex 38.8567 51.5 1.22465e-15
      vertex 39.2587 51.5 1.5
      vertex 36.2587 51.5 1.5
    endloop
  endfacet
  facet normal 0 -1 -0
    outer loop
      vertex 39.2587 51.5 1.5
      vertex 38.8567 51.5 1.22465e-15
      vertex 41.8567 51.5 1.22465e-15
    endloop
  endfacet
  facet normal 0 1 0
    outer loop
      vertex 38.8567 10 6.30693e-15
      vertex 39.2587 10 1.5
      vertex 41.8567 10 6.30693e-15
    endloop
  endfacet
  facet normal 0 1 0
    outer loop
      vertex 39.2587 10 1.5
      vertex 38.8567 10 6.30693e-15
      vertex 36.2587 10 1.5
    endloop
  endfacet
  facet normal 0.5 9.98755e-17 0.866025
    outer loop
      vertex 41.2587 51.5 1.5
      vertex 43.8567 10 6.30693e-15
      vertex 43.8567 51.5 1.22465e-15
    endloop
  endfacet
  facet normal 0.5 0 0.866025
    outer loop
      vertex 43.8567 10 6.30693e-15
      vertex 41.2587 51.5 1.5
      vertex 41.2587 10 1.5
    endloop
  endfacet
  facet normal -0.5 -9.98755e-17 -0.866025
    outer loop
      vertex 44.2587 10 1.5
      vertex 46.8567 51.5 1.22465e-15
      vertex 46.8567 10 6.30693e-15
    endloop
  endfacet
  facet normal -0.5 0 -0.866025
    outer loop
      vertex 46.8567 51.5 1.22465e-15
      vertex 44.2587 10 1.5
      vertex 44.2587 51.5 1.5
    endloop
  endfacet
  facet normal 0 1 0
    outer loop
      vertex 43.8567 10 6.30693e-15
      vertex 44.2587 10 1.5
      vertex 46.8567 10 6.30693e-15
    endloop
  endfacet
  facet normal 0 1 0
    outer loop
      vertex 44.2587 10 1.5
      vertex 43.8567 10 6.30693e-15
      vertex 41.2587 10 1.5
    endloop
  endfacet
  facet normal 0 -1 0
    outer loop
      vertex 43.8567 51.5 1.22465e-15
      vertex 44.2587 51.5 1.5
      vertex 41.2587 51.5 1.5
    endloop
  endfacet
  facet normal 0 -1 -0
    outer loop
      vertex 44.2587 51.5 1.5
      vertex 43.8567 51.5 1.22465e-15
      vertex 46.8567 51.5 1.22465e-15
    endloop
  endfacet
  facet normal 0.5 9.98755e-17 0.866025
    outer loop
      vertex 46.2587 51.5 1.5
      vertex 48.8567 10 6.30693e-15
      vertex 48.8567 51.5 1.22465e-15
    endloop
  endfacet
  facet normal 0.5 0 0.866025
    outer loop
      vertex 48.8567 10 6.30693e-15
      vertex 46.2587 51.5 1.5
      vertex 46.2587 10 1.5
    endloop
  endfacet
  facet normal -0.5 -9.98755e-17 -0.866025
    outer loop
      vertex 49.2587 10 1.5
      vertex 51.8567 51.5 1.22465e-15
      vertex 51.8567 10 6.30693e-15
    endloop
  endfacet
  facet normal -0.5 0 -0.866025
    outer loop
      vertex 51.8567 51.5 1.22465e-15
      vertex 49.2587 10 1.5
      vertex 49.2587 51.5 1.5
    endloop
  endfacet
  facet normal 0 1 0
    outer loop
      vertex 48.8567 10 6.30693e-15
      vertex 49.2587 10 1.5
      vertex 51.8567 10 6.30693e-15
    endloop
  endfacet
  facet normal 0 1 0
    outer loop
      vertex 49.2587 10 1.5
      vertex 48.8567 10 6.30693e-15
      vertex 46.2587 10 1.5
    endloop
  endfacet
  facet normal 0 -1 0
    outer loop
      vertex 48.8567 51.5 1.22465e-15
      vertex 49.2587 51.5 1.5
      vertex 46.2587 51.5 1.5
    endloop
  endfacet
  facet normal 0 -1 -0
    outer loop
      vertex 49.2587 51.5 1.5
      vertex 48.8567 51.5 1.22465e-15
      vertex 51.8567 51.5 1.22465e-15
    endloop
  endfacet
  facet normal 0.5 9.98755e-17 0.866025
    outer loop
      vertex 51.2587 51.5 1.5
      vertex 53.8567 10 6.30693e-15
      vertex 53.8567 51.5 1.22465e-15
    endloop
  endfacet
  facet normal 0.5 0 0.866025
    outer loop
      vertex 53.8567 10 6.30693e-15
      vertex 51.2587 51.5 1.5
      vertex 51.2587 10 1.5
    endloop
  endfacet
  facet normal -0.5 -9.98755e-17 -0.866025
    outer loop
      vertex 54.2587 10 1.5
      vertex 56.8567 51.5 1.22465e-15
      vertex 56.8567 10 6.30693e-15
    endloop
  endfacet
  facet normal -0.5 0 -0.866025
    outer loop
      vertex 56.8567 51.5 1.22465e-15
      vertex 54.2587 10 1.5
      vertex 54.2587 51.5 1.5
    endloop
  endfacet
  facet normal 0 -1 0
    outer loop
      vertex 53.8567 51.5 1.22465e-15
      vertex 54.2587 51.5 1.5
      vertex 51.2587 51.5 1.5
    endloop
  endfacet
  facet normal 0 -1 -0
    outer loop
      vertex 54.2587 51.5 1.5
      vertex 53.8567 51.5 1.22465e-15
      vertex 56.8567 51.5 1.22465e-15
    endloop
  endfacet
  facet normal 0 1 0
    outer loop
      vertex 53.8567 10 6.30693e-15
      vertex 54.2587 10 1.5
      vertex 56.8567 10 6.30693e-15
    endloop
  endfacet
  facet normal 0 1 0
    outer loop
      vertex 54.2587 10 1.5
      vertex 53.8567 10 6.30693e-15
      vertex 51.2587 10 1.5
    endloop
  endfacet
  facet normal 0.5 9.98755e-17 0.866025
    outer loop
      vertex 56.2587 51.5 1.5
      vertex 58.8567 10 6.30693e-15
      vertex 58.8567 51.5 1.22465e-15
    endloop
  endfacet
  facet normal 0.5 0 0.866025
    outer loop
      vertex 58.8567 10 6.30693e-15
      vertex 56.2587 51.5 1.5
      vertex 56.2587 10 1.5
    endloop
  endfacet
  facet normal -0.5 -9.98755e-17 -0.866025
    outer loop
      vertex 59.2587 10 1.5
      vertex 61.8567 51.5 1.22465e-15
      vertex 61.8567 10 6.30693e-15
    endloop
  endfacet
  facet normal -0.5 0 -0.866025
    outer loop
      vertex 61.8567 51.5 1.22465e-15
      vertex 59.2587 10 1.5
      vertex 59.2587 51.5 1.5
    endloop
  endfacet
  facet normal 0 1 0
    outer loop
      vertex 58.8567 10 6.30693e-15
      vertex 59.2587 10 1.5
      vertex 61.8567 10 6.30693e-15
    endloop
  endfacet
  facet normal 0 1 0
    outer loop
      vertex 59.2587 10 1.5
      vertex 58.8567 10 6.30693e-15
      vertex 56.2587 10 1.5
    endloop
  endfacet
  facet normal 0 -1 0
    outer loop
      vertex 58.8567 51.5 1.22465e-15
      vertex 59.2587 51.5 1.5
      vertex 56.2587 51.5 1.5
    endloop
  endfacet
  facet normal 0 -1 -0
    outer loop
      vertex 59.2587 51.5 1.5
      vertex 58.8567 51.5 1.22465e-15
      vertex 61.8567 51.5 1.22465e-15
    endloop
  endfacet
  facet normal 0.5 9.98755e-17 0.866025
    outer loop
      vertex 61.2587 51.5 1.5
      vertex 63.8567 10 6.30693e-15
      vertex 63.8567 51.5 1.22465e-15
    endloop
  endfacet
  facet normal 0.5 0 0.866025
    outer loop
      vertex 63.8567 10 6.30693e-15
      vertex 61.2587 51.5 1.5
      vertex 61.2587 10 1.5
    endloop
  endfacet
  facet normal -0.5 -9.98755e-17 -0.866025
    outer loop
      vertex 64.2587 10 1.5
      vertex 66.8567 51.5 1.22465e-15
      vertex 66.8567 10 6.30693e-15
    endloop
  endfacet
  facet normal -0.5 0 -0.866025
    outer loop
      vertex 66.8567 51.5 1.22465e-15
      vertex 64.2587 10 1.5
      vertex 64.2587 51.5 1.5
    endloop
  endfacet
  facet normal 0 -1 0
    outer loop
      vertex 63.8567 51.5 1.22465e-15
      vertex 64.2587 51.5 1.5
      vertex 61.2587 51.5 1.5
    endloop
  endfacet
  facet normal 0 -1 -0
    outer loop
      vertex 64.2587 51.5 1.5
      vertex 63.8567 51.5 1.22465e-15
      vertex 66.8567 51.5 1.22465e-15
    endloop
  endfacet
  facet normal 0 1 0
    outer loop
      vertex 63.8567 10 6.30693e-15
      vertex 64.2587 10 1.5
      vertex 66.8567 10 6.30693e-15
    endloop
  endfacet
  facet normal 0 1 0
    outer loop
      vertex 64.2587 10 1.5
      vertex 63.8567 10 6.30693e-15
      vertex 61.2587 10 1.5
    endloop
  endfacet
  facet normal 0.5 9.98755e-17 0.866025
    outer loop
      vertex 66.2587 51.5 1.5
      vertex 68.8567 10 6.30693e-15
      vertex 68.8567 51.5 1.22465e-15
    endloop
  endfacet
  facet normal 0.5 0 0.866025
    outer loop
      vertex 68.8567 10 6.30693e-15
      vertex 66.2587 51.5 1.5
      vertex 66.2587 10 1.5
    endloop
  endfacet
  facet normal -0.5 -9.98755e-17 -0.866025
    outer loop
      vertex 69.2587 10 1.5
      vertex 71.8567 51.5 1.22465e-15
      vertex 71.8567 10 6.30693e-15
    endloop
  endfacet
  facet normal -0.5 0 -0.866025
    outer loop
      vertex 71.8567 51.5 1.22465e-15
      vertex 69.2587 10 1.5
      vertex 69.2587 51.5 1.5
    endloop
  endfacet
  facet normal 0 1 0
    outer loop
      vertex 68.8567 10 6.30693e-15
      vertex 69.2587 10 1.5
      vertex 71.8567 10 6.30693e-15
    endloop
  endfacet
  facet normal 0 1 0
    outer loop
      vertex 69.2587 10 1.5
      vertex 68.8567 10 6.30693e-15
      vertex 66.2587 10 1.5
    endloop
  endfacet
  facet normal 0 -1 0
    outer loop
      vertex 68.8567 51.5 1.22465e-15
      vertex 69.2587 51.5 1.5
      vertex 66.2587 51.5 1.5
    endloop
  endfacet
  facet normal 0 -1 -0
    outer loop
      vertex 69.2587 51.5 1.5
      vertex 68.8567 51.5 1.22465e-15
      vertex 71.8567 51.5 1.22465e-15
    endloop
  endfacet
  facet normal 0.5 9.98755e-17 0.866025
    outer loop
      vertex 71.2587 51.5 1.5
      vertex 73.8567 10 6.30693e-15
      vertex 73.8567 51.5 1.22465e-15
    endloop
  endfacet
  facet normal 0.5 0 0.866025
    outer loop
      vertex 73.8567 10 6.30693e-15
      vertex 71.2587 51.5 1.5
      vertex 71.2587 10 1.5
    endloop
  endfacet
  facet normal -0.5 -9.98755e-17 -0.866025
    outer loop
      vertex 74.2587 10 1.5
      vertex 76.8567 51.5 1.22465e-15
      vertex 76.8567 10 6.30693e-15
    endloop
  endfacet
  facet normal -0.5 0 -0.866025
    outer loop
      vertex 76.8567 51.5 1.22465e-15
      vertex 74.2587 10 1.5
      vertex 74.2587 51.5 1.5
    endloop
  endfacet
  facet normal 0 -1 0
    outer loop
      vertex 73.8567 51.5 1.22465e-15
      vertex 74.2587 51.5 1.5
      vertex 71.2587 51.5 1.5
    endloop
  endfacet
  facet normal 0 -1 -0
    outer loop
      vertex 74.2587 51.5 1.5
      vertex 73.8567 51.5 1.22465e-15
      vertex 76.8567 51.5 1.22465e-15
    endloop
  endfacet
  facet normal 0 1 0
    outer loop
      vertex 73.8567 10 6.30693e-15
      vertex 74.2587 10 1.5
      vertex 76.8567 10 6.30693e-15
    endloop
  endfacet
  facet normal 0 1 0
    outer loop
      vertex 74.2587 10 1.5
      vertex 73.8567 10 6.30693e-15
      vertex 71.2587 10 1.5
    endloop
  endfacet
  facet normal 1.25749e-23 -1.22465e-16 -1
    outer loop
      vertex 90 -5.26598e-15 7.53158e-15
      vertex 76.8567 10 6.30693e-15
      vertex 90 61.5 0
    endloop
  endfacet
  facet normal 0 -1.22465e-16 -1
    outer loop
      vertex 90 -5.26598e-15 7.53158e-15
      vertex 73.8567 10 6.30693e-15
      vertex 76.8567 10 6.30693e-15
    endloop
  endfacet
  facet normal -0 -1.22465e-16 -1
    outer loop
      vertex 73.8567 10 6.30693e-15
      vertex 71.8567 10 6.30693e-15
      vertex 73.8567 51.5 1.22465e-15
    endloop
  endfacet
  facet normal 0 -1.22465e-16 -1
    outer loop
      vertex 90 -5.26598e-15 7.53158e-15
      vertex 71.8567 10 6.30693e-15
      vertex 73.8567 10 6.30693e-15
    endloop
  endfacet
  facet normal 0 -1.22465e-16 -1
    outer loop
      vertex 90 -5.26598e-15 7.53158e-15
      vertex 68.8567 10 6.30693e-15
      vertex 71.8567 10 6.30693e-15
    endloop
  endfacet
  facet normal -0 -1.22465e-16 -1
    outer loop
      vertex 68.8567 10 6.30693e-15
      vertex 66.8567 10 6.30693e-15
      vertex 68.8567 51.5 1.22465e-15
    endloop
  endfacet
  facet normal 0 -1.22465e-16 -1
    outer loop
      vertex 90 -5.26598e-15 7.53158e-15
      vertex 66.8567 10 6.30693e-15
      vertex 68.8567 10 6.30693e-15
    endloop
  endfacet
  facet normal 0 -1.22465e-16 -1
    outer loop
      vertex 90 -5.26598e-15 7.53158e-15
      vertex 63.8567 10 6.30693e-15
      vertex 66.8567 10 6.30693e-15
    endloop
  endfacet
  facet normal -0 -1.22465e-16 -1
    outer loop
      vertex 63.8567 10 6.30693e-15
      vertex 61.8567 10 6.30693e-15
      vertex 63.8567 51.5 1.22465e-15
    endloop
  endfacet
  facet normal 0 -1.22465e-16 -1
    outer loop
      vertex 90 -5.26598e-15 7.53158e-15
      vertex 61.8567 10 6.30693e-15
      vertex 63.8567 10 6.30693e-15
    endloop
  endfacet
  facet normal 0 -1.22465e-16 -1
    outer loop
      vertex 90 -5.26598e-15 7.53158e-15
      vertex 58.8567 10 6.30693e-15
      vertex 61.8567 10 6.30693e-15
    endloop
  endfacet
  facet normal -0 -1.22465e-16 -1
    outer loop
      vertex 58.8567 10 6.30693e-15
      vertex 56.8567 10 6.30693e-15
      vertex 58.8567 51.5 1.22465e-15
    endloop
  endfacet
  facet normal 0 -1.22465e-16 -1
    outer loop
      vertex 90 -5.26598e-15 7.53158e-15
      vertex 56.8567 10 6.30693e-15
      vertex 58.8567 10 6.30693e-15
    endloop
  endfacet
  facet normal 0 -1.22465e-16 -1
    outer loop
      vertex 90 -5.26598e-15 7.53158e-15
      vertex 53.8567 10 6.30693e-15
      vertex 56.8567 10 6.30693e-15
    endloop
  endfacet
  facet normal -0 -1.22465e-16 -1
    outer loop
      vertex 53.8567 10 6.30693e-15
      vertex 51.8567 10 6.30693e-15
      vertex 53.8567 51.5 1.22465e-15
    endloop
  endfacet
  facet normal 0 -1.22465e-16 -1
    outer loop
      vertex 90 -5.26598e-15 7.53158e-15
      vertex 51.8567 10 6.30693e-15
      vertex 53.8567 10 6.30693e-15
    endloop
  endfacet
  facet normal 0 -1.22465e-16 -1
    outer loop
      vertex 90 -5.26598e-15 7.53158e-15
      vertex 48.8567 10 6.30693e-15
      vertex 51.8567 10 6.30693e-15
    endloop
  endfacet
  facet normal -0 -1.22465e-16 -1
    outer loop
      vertex 48.8567 10 6.30693e-15
      vertex 46.8567 10 6.30693e-15
      vertex 48.8567 51.5 1.22465e-15
    endloop
  endfacet
  facet normal 0 -1.22465e-16 -1
    outer loop
      vertex 90 -5.26598e-15 7.53158e-15
      vertex 46.8567 10 6.30693e-15
      vertex 48.8567 10 6.30693e-15
    endloop
  endfacet
  facet normal 0 -1.22465e-16 -1
    outer loop
      vertex 90 -5.26598e-15 7.53158e-15
      vertex 43.8567 10 6.30693e-15
      vertex 46.8567 10 6.30693e-15
    endloop
  endfacet
  facet normal -0 -1.22465e-16 -1
    outer loop
      vertex 43.8567 10 6.30693e-15
      vertex 41.8567 10 6.30693e-15
      vertex 43.8567 51.5 1.22465e-15
    endloop
  endfacet
  facet normal 0 -1.22465e-16 -1
    outer loop
      vertex 0 -5.26598e-15 7.53158e-15
      vertex 43.8567 10 6.30693e-15
      vertex 90 -5.26598e-15 7.53158e-15
    endloop
  endfacet
  facet normal -0 -1.22465e-16 -1
    outer loop
      vertex 43.8567 10 6.30693e-15
      vertex 0 -5.26598e-15 7.53158e-15
      vertex 41.8567 10 6.30693e-15
    endloop
  endfacet
  facet normal -0 -1.22465e-16 -1
    outer loop
      vertex 38.8567 10 6.30693e-15
      vertex 36.8567 10 6.30693e-15
      vertex 38.8567 51.5 1.22465e-15
    endloop
  endfacet
  facet normal -0 -1.22465e-16 -1
    outer loop
      vertex 41.8567 10 6.30693e-15
      vertex 0 -5.26598e-15 7.53158e-15
      vertex 38.8567 10 6.30693e-15
    endloop
  endfacet
  facet normal -0 -1.22465e-16 -1
    outer loop
      vertex 38.8567 10 6.30693e-15
      vertex 0 -5.26598e-15 7.53158e-15
      vertex 36.8567 10 6.30693e-15
    endloop
  endfacet
  facet normal -0 -1.22465e-16 -1
    outer loop
      vertex 33.8567 10 6.30693e-15
      vertex 31.8567 10 6.30693e-15
      vertex 33.8567 51.5 1.22465e-15
    endloop
  endfacet
  facet normal -0 -1.22465e-16 -1
    outer loop
      vertex 36.8567 10 6.30693e-15
      vertex 0 -5.26598e-15 7.53158e-15
      vertex 33.8567 10 6.30693e-15
    endloop
  endfacet
  facet normal -0 -1.22465e-16 -1
    outer loop
      vertex 33.8567 10 6.30693e-15
      vertex 0 -5.26598e-15 7.53158e-15
      vertex 31.8567 10 6.30693e-15
    endloop
  endfacet
  facet normal -0 -1.22465e-16 -1
    outer loop
      vertex 28.8567 10 6.30693e-15
      vertex 26.8567 10 6.30693e-15
      vertex 28.8567 51.5 1.22465e-15
    endloop
  endfacet
  facet normal -0 -1.22465e-16 -1
    outer loop
      vertex 31.8567 10 6.30693e-15
      vertex 0 -5.26598e-15 7.53158e-15
      vertex 28.8567 10 6.30693e-15
    endloop
  endfacet
  facet normal -0 -1.22465e-16 -1
    outer loop
      vertex 28.8567 10 6.30693e-15
      vertex 0 -5.26598e-15 7.53158e-15
      vertex 26.8567 10 6.30693e-15
    endloop
  endfacet
  facet normal -0 -1.22465e-16 -1
    outer loop
      vertex 23.8567 10 6.30693e-15
      vertex 21.8567 10 6.30693e-15
      vertex 23.8567 51.5 1.22465e-15
    endloop
  endfacet
  facet normal -0 -1.22465e-16 -1
    outer loop
      vertex 26.8567 10 6.30693e-15
      vertex 0 -5.26598e-15 7.53158e-15
      vertex 23.8567 10 6.30693e-15
    endloop
  endfacet
  facet normal -0 -1.22465e-16 -1
    outer loop
      vertex 23.8567 10 6.30693e-15
      vertex 0 -5.26598e-15 7.53158e-15
      vertex 21.8567 10 6.30693e-15
    endloop
  endfacet
  facet normal -0 -1.22465e-16 -1
    outer loop
      vertex 18.8567 10 6.30693e-15
      vertex 16.8567 10 6.30693e-15
      vertex 18.8567 51.5 1.22465e-15
    endloop
  endfacet
  facet normal -0 -1.22465e-16 -1
    outer loop
      vertex 21.8567 10 6.30693e-15
      vertex 0 -5.26598e-15 7.53158e-15
      vertex 18.8567 10 6.30693e-15
    endloop
  endfacet
  facet normal -0 -1.22465e-16 -1
    outer loop
      vertex 18.8567 10 6.30693e-15
      vertex 0 -5.26598e-15 7.53158e-15
      vertex 16.8567 10 6.30693e-15
    endloop
  endfacet
  facet normal -1.39931e-23 -1.22465e-16 -1
    outer loop
      vertex 13.8567 10 6.30693e-15
      vertex 0 -5.26598e-15 7.53158e-15
      vertex 13.8567 51.5 1.22465e-15
    endloop
  endfacet
  facet normal -0 -1.22465e-16 -1
    outer loop
      vertex 16.8567 10 6.30693e-15
      vertex 0 -5.26598e-15 7.53158e-15
      vertex 13.8567 10 6.30693e-15
    endloop
  endfacet
  facet normal 1.3588e-24 -1.22465e-16 -1
    outer loop
      vertex 76.8567 51.5 1.22465e-15
      vertex 90 61.5 0
      vertex 76.8567 10 6.30693e-15
    endloop
  endfacet
  facet normal 0 -1.22465e-16 -1
    outer loop
      vertex 73.8567 51.5 1.22465e-15
      vertex 90 61.5 0
      vertex 76.8567 51.5 1.22465e-15
    endloop
  endfacet
  facet normal 0 -1.22465e-16 -1
    outer loop
      vertex 71.8567 51.5 1.22465e-15
      vertex 73.8567 51.5 1.22465e-15
      vertex 71.8567 10 6.30693e-15
    endloop
  endfacet
  facet normal 0 -1.22465e-16 -1
    outer loop
      vertex 71.8567 51.5 1.22465e-15
      vertex 90 61.5 0
      vertex 73.8567 51.5 1.22465e-15
    endloop
  endfacet
  facet normal 0 -1.22465e-16 -1
    outer loop
      vertex 68.8567 51.5 1.22465e-15
      vertex 90 61.5 0
      vertex 71.8567 51.5 1.22465e-15
    endloop
  endfacet
  facet normal 0 -1.22465e-16 -1
    outer loop
      vertex 66.8567 51.5 1.22465e-15
      vertex 68.8567 51.5 1.22465e-15
      vertex 66.8567 10 6.30693e-15
    endloop
  endfacet
  facet normal 0 -1.22465e-16 -1
    outer loop
      vertex 66.8567 51.5 1.22465e-15
      vertex 90 61.5 0
      vertex 68.8567 51.5 1.22465e-15
    endloop
  endfacet
  facet normal 0 -1.22465e-16 -1
    outer loop
      vertex 63.8567 51.5 1.22465e-15
      vertex 90 61.5 0
      vertex 66.8567 51.5 1.22465e-15
    endloop
  endfacet
  facet normal 0 -1.22465e-16 -1
    outer loop
      vertex 61.8567 51.5 1.22465e-15
      vertex 63.8567 51.5 1.22465e-15
      vertex 61.8567 10 6.30693e-15
    endloop
  endfacet
  facet normal 0 -1.22465e-16 -1
    outer loop
      vertex 61.8567 51.5 1.22465e-15
      vertex 90 61.5 0
      vertex 63.8567 51.5 1.22465e-15
    endloop
  endfacet
  facet normal 0 -1.22465e-16 -1
    outer loop
      vertex 58.8567 51.5 1.22465e-15
      vertex 90 61.5 0
      vertex 61.8567 51.5 1.22465e-15
    endloop
  endfacet
  facet normal 0 -1.22465e-16 -1
    outer loop
      vertex 56.8567 51.5 1.22465e-15
      vertex 58.8567 51.5 1.22465e-15
      vertex 56.8567 10 6.30693e-15
    endloop
  endfacet
  facet normal 0 -1.22465e-16 -1
    outer loop
      vertex 56.8567 51.5 1.22465e-15
      vertex 90 61.5 0
      vertex 58.8567 51.5 1.22465e-15
    endloop
  endfacet
  facet normal 0 -1.22465e-16 -1
    outer loop
      vertex 53.8567 51.5 1.22465e-15
      vertex 90 61.5 0
      vertex 56.8567 51.5 1.22465e-15
    endloop
  endfacet
  facet normal 0 -1.22465e-16 -1
    outer loop
      vertex 51.8567 51.5 1.22465e-15
      vertex 53.8567 51.5 1.22465e-15
      vertex 51.8567 10 6.30693e-15
    endloop
  endfacet
  facet normal 0 -1.22465e-16 -1
    outer loop
      vertex 51.8567 51.5 1.22465e-15
      vertex 90 61.5 0
      vertex 53.8567 51.5 1.22465e-15
    endloop
  endfacet
  facet normal 0 -1.22465e-16 -1
    outer loop
      vertex 48.8567 51.5 1.22465e-15
      vertex 90 61.5 0
      vertex 51.8567 51.5 1.22465e-15
    endloop
  endfacet
  facet normal 0 -1.22465e-16 -1
    outer loop
      vertex 46.8567 51.5 1.22465e-15
      vertex 48.8567 51.5 1.22465e-15
      vertex 46.8567 10 6.30693e-15
    endloop
  endfacet
  facet normal 0 -1.22465e-16 -1
    outer loop
      vertex 46.8567 51.5 1.22465e-15
      vertex 90 61.5 0
      vertex 48.8567 51.5 1.22465e-15
    endloop
  endfacet
  facet normal 0 -1.22465e-16 -1
    outer loop
      vertex 43.8567 51.5 1.22465e-15
      vertex 90 61.5 0
      vertex 46.8567 51.5 1.22465e-15
    endloop
  endfacet
  facet normal 0 -1.22465e-16 -1
    outer loop
      vertex 41.8567 51.5 1.22465e-15
      vertex 43.8567 51.5 1.22465e-15
      vertex 41.8567 10 6.30693e-15
    endloop
  endfacet
  facet normal 0 -1.22465e-16 -1
    outer loop
      vertex 0 61.5 0
      vertex 43.8567 51.5 1.22465e-15
      vertex 41.8567 51.5 1.22465e-15
    endloop
  endfacet
  facet normal 0 -1.22465e-16 -1
    outer loop
      vertex 0 61.5 0
      vertex 41.8567 51.5 1.22465e-15
      vertex 38.8567 51.5 1.22465e-15
    endloop
  endfacet
  facet normal 0 -1.22465e-16 -1
    outer loop
      vertex 36.8567 51.5 1.22465e-15
      vertex 38.8567 51.5 1.22465e-15
      vertex 36.8567 10 6.30693e-15
    endloop
  endfacet
  facet normal 0 -1.22465e-16 -1
    outer loop
      vertex 0 61.5 0
      vertex 38.8567 51.5 1.22465e-15
      vertex 36.8567 51.5 1.22465e-15
    endloop
  endfacet
  facet normal 0 -1.22465e-16 -1
    outer loop
      vertex 0 61.5 0
      vertex 36.8567 51.5 1.22465e-15
      vertex 33.8567 51.5 1.22465e-15
    endloop
  endfacet
  facet normal 0 -1.22465e-16 -1
    outer loop
      vertex 31.8567 51.5 1.22465e-15
      vertex 33.8567 51.5 1.22465e-15
      vertex 31.8567 10 6.30693e-15
    endloop
  endfacet
  facet normal 0 -1.22465e-16 -1
    outer loop
      vertex 0 61.5 0
      vertex 33.8567 51.5 1.22465e-15
      vertex 31.8567 51.5 1.22465e-15
    endloop
  endfacet
  facet normal 0 -1.22465e-16 -1
    outer loop
      vertex 0 61.5 0
      vertex 31.8567 51.5 1.22465e-15
      vertex 28.8567 51.5 1.22465e-15
    endloop
  endfacet
  facet normal 0 -1.22465e-16 -1
    outer loop
      vertex 26.8567 51.5 1.22465e-15
      vertex 28.8567 51.5 1.22465e-15
      vertex 26.8567 10 6.30693e-15
    endloop
  endfacet
  facet normal 0 -1.22465e-16 -1
    outer loop
      vertex 0 61.5 0
      vertex 28.8567 51.5 1.22465e-15
      vertex 26.8567 51.5 1.22465e-15
    endloop
  endfacet
  facet normal 0 -1.22465e-16 -1
    outer loop
      vertex 0 61.5 0
      vertex 26.8567 51.5 1.22465e-15
      vertex 23.8567 51.5 1.22465e-15
    endloop
  endfacet
  facet normal 0 -1.22465e-16 -1
    outer loop
      vertex 21.8567 51.5 1.22465e-15
      vertex 23.8567 51.5 1.22465e-15
      vertex 21.8567 10 6.30693e-15
    endloop
  endfacet
  facet normal 0 -1.22465e-16 -1
    outer loop
      vertex 0 61.5 0
      vertex 23.8567 51.5 1.22465e-15
      vertex 21.8567 51.5 1.22465e-15
    endloop
  endfacet
  facet normal 0 -1.22465e-16 -1
    outer loop
      vertex 0 61.5 0
      vertex 21.8567 51.5 1.22465e-15
      vertex 18.8567 51.5 1.22465e-15
    endloop
  endfacet
  facet normal 0 -1.22465e-16 -1
    outer loop
      vertex 16.8567 51.5 1.22465e-15
      vertex 18.8567 51.5 1.22465e-15
      vertex 16.8567 10 6.30693e-15
    endloop
  endfacet
  facet normal 0 -1.22465e-16 -1
    outer loop
      vertex 0 61.5 0
      vertex 18.8567 51.5 1.22465e-15
      vertex 16.8567 51.5 1.22465e-15
    endloop
  endfacet
  facet normal 0 -1.22465e-16 -1
    outer loop
      vertex 0 61.5 0
      vertex 16.8567 51.5 1.22465e-15
      vertex 13.8567 51.5 1.22465e-15
    endloop
  endfacet
  facet normal 0 -1.22465e-16 -1
    outer loop
      vertex 43.8567 51.5 1.22465e-15
      vertex 0 61.5 0
      vertex 90 61.5 0
    endloop
  endfacet
  facet normal -3.35458e-24 -1.22465e-16 -1
    outer loop
      vertex 0 61.5 0
      vertex 13.8567 51.5 1.22465e-15
      vertex 0 -5.26598e-15 7.53158e-15
    endloop
  endfacet
endsolid OpenSCAD_Model
